<mxfile modified="2020-09-27T13:34:23.045Z" host="app.diagrams.net" agent="5.0 (Windows NT 10.0; Win64; x64) AppleWebKit/537.36 (KHTML, like Gecko) Chrome/84.0.4147.89 Safari/537.36" etag="NyBfzMa2JZJQ1IyGoJBr" version="13.7.3" type="github" pages="3">
  <diagram id="DrTvIJRE7iMPETnN-COV" name="Page-1">
    <mxGraphModel dx="1830" dy="1441" grid="1" gridSize="10" guides="1" tooltips="1" connect="1" arrows="1" fold="1" page="0" pageScale="1" pageWidth="827" pageHeight="1169" math="0" shadow="0">
      <root>
        <mxCell id="0" />
        <mxCell id="1" parent="0" />
        <mxCell id="LsLMx1Tqu1ayLNCX3tlf-34" value="cgroup" style="swimlane;fontStyle=0;childLayout=stackLayout;horizontal=1;startSize=26;fillColor=#e0e0e0;horizontalStack=0;resizeParent=1;resizeParentMax=0;resizeLast=0;collapsible=1;marginBottom=0;swimlaneFillColor=#ffffff;align=center;fontSize=14;" parent="1" vertex="1">
          <mxGeometry x="190" y="310" width="260" height="254" as="geometry">
            <mxRectangle x="200" y="80" width="70" height="26" as="alternateBounds" />
          </mxGeometry>
        </mxCell>
        <mxCell id="LsLMx1Tqu1ayLNCX3tlf-35" value="cgroup *parent" style="text;strokeColor=none;fillColor=none;spacingLeft=4;spacingRight=4;overflow=hidden;rotatable=0;points=[[0,0.5],[1,0.5]];portConstraint=eastwest;fontSize=12;" parent="LsLMx1Tqu1ayLNCX3tlf-34" vertex="1">
          <mxGeometry y="26" width="260" height="26" as="geometry" />
        </mxCell>
        <mxCell id="LsLMx1Tqu1ayLNCX3tlf-77" value="struct cgroup_subsys_state *subsys&#xa;[CGROUP_SUBSYS_COUNT]" style="swimlane;fontStyle=0;childLayout=stackLayout;horizontal=1;startSize=46;fillColor=#fff2cc;horizontalStack=0;resizeParent=1;resizeParentMax=0;resizeLast=0;collapsible=1;marginBottom=0;swimlaneFillColor=#ffffff;align=center;fontSize=14;strokeColor=#d6b656;strokeWidth=4;" parent="LsLMx1Tqu1ayLNCX3tlf-34" vertex="1">
          <mxGeometry y="52" width="260" height="150" as="geometry" />
        </mxCell>
        <mxCell id="LsLMx1Tqu1ayLNCX3tlf-78" value="0" style="text;strokeColor=none;fillColor=none;spacingLeft=4;spacingRight=4;overflow=hidden;rotatable=0;points=[[0,0.5],[1,0.5]];portConstraint=eastwest;fontSize=12;" parent="LsLMx1Tqu1ayLNCX3tlf-77" vertex="1">
          <mxGeometry y="46" width="260" height="26" as="geometry" />
        </mxCell>
        <mxCell id="LsLMx1Tqu1ayLNCX3tlf-79" value="mem_cgroup_subsys_id&#xa;&#xa;" style="text;strokeColor=none;fillColor=none;spacingLeft=4;spacingRight=4;overflow=hidden;rotatable=0;points=[[0,0.5],[1,0.5]];portConstraint=eastwest;fontSize=12;" parent="LsLMx1Tqu1ayLNCX3tlf-77" vertex="1">
          <mxGeometry y="72" width="260" height="26" as="geometry" />
        </mxCell>
        <mxCell id="LsLMx1Tqu1ayLNCX3tlf-267" value="cpu_cgroup_subsys_id" style="text;strokeColor=none;fillColor=none;spacingLeft=4;spacingRight=4;overflow=hidden;rotatable=0;points=[[0,0.5],[1,0.5]];portConstraint=eastwest;fontSize=12;" parent="LsLMx1Tqu1ayLNCX3tlf-77" vertex="1">
          <mxGeometry y="98" width="260" height="26" as="geometry" />
        </mxCell>
        <mxCell id="LsLMx1Tqu1ayLNCX3tlf-80" value="blkio_subsys_id" style="text;strokeColor=none;fillColor=none;spacingLeft=4;spacingRight=4;overflow=hidden;rotatable=0;points=[[0,0.5],[1,0.5]];portConstraint=eastwest;fontSize=12;" parent="LsLMx1Tqu1ayLNCX3tlf-77" vertex="1">
          <mxGeometry y="124" width="260" height="26" as="geometry" />
        </mxCell>
        <mxCell id="LsLMx1Tqu1ayLNCX3tlf-150" value="list_head css_sets" style="text;strokeColor=#C73500;fillColor=#fa6800;spacingLeft=4;spacingRight=4;overflow=hidden;rotatable=0;points=[[0,0.5],[1,0.5]];portConstraint=eastwest;fontSize=12;fontColor=#ffffff;" parent="LsLMx1Tqu1ayLNCX3tlf-34" vertex="1">
          <mxGeometry y="202" width="260" height="26" as="geometry" />
        </mxCell>
        <mxCell id="LsLMx1Tqu1ayLNCX3tlf-37" value="cgroupfs_root *root" style="text;strokeColor=none;fillColor=none;spacingLeft=4;spacingRight=4;overflow=hidden;rotatable=0;points=[[0,0.5],[1,0.5]];portConstraint=eastwest;fontSize=12;" parent="LsLMx1Tqu1ayLNCX3tlf-34" vertex="1">
          <mxGeometry y="228" width="260" height="26" as="geometry" />
        </mxCell>
        <mxCell id="LsLMx1Tqu1ayLNCX3tlf-62" value="mem_cgroup" style="swimlane;fontStyle=0;childLayout=stackLayout;horizontal=1;startSize=26;fillColor=#e1d5e7;horizontalStack=0;resizeParent=1;resizeParentMax=0;resizeLast=0;collapsible=1;marginBottom=0;swimlaneFillColor=#ffffff;align=center;fontSize=14;strokeColor=#9673a6;" parent="1" vertex="1">
          <mxGeometry x="920" y="344.5" width="260" height="130" as="geometry" />
        </mxCell>
        <mxCell id="LsLMx1Tqu1ayLNCX3tlf-39" value="struct cgroup_subsys_state css" style="swimlane;fontStyle=0;childLayout=stackLayout;horizontal=1;startSize=26;fillColor=#fff2cc;horizontalStack=0;resizeParent=1;resizeParentMax=0;resizeLast=0;collapsible=1;marginBottom=0;swimlaneFillColor=#ffffff;align=center;fontSize=14;strokeColor=#d6b656;" parent="LsLMx1Tqu1ayLNCX3tlf-62" vertex="1">
          <mxGeometry y="26" width="260" height="78" as="geometry" />
        </mxCell>
        <mxCell id="LsLMx1Tqu1ayLNCX3tlf-40" value="cgroup *cgroup" style="text;strokeColor=none;fillColor=none;spacingLeft=4;spacingRight=4;overflow=hidden;rotatable=0;points=[[0,0.5],[1,0.5]];portConstraint=eastwest;fontSize=12;" parent="LsLMx1Tqu1ayLNCX3tlf-39" vertex="1">
          <mxGeometry y="26" width="260" height="26" as="geometry" />
        </mxCell>
        <mxCell id="LsLMx1Tqu1ayLNCX3tlf-277" value="css_id *id" style="text;strokeColor=none;fillColor=none;spacingLeft=4;spacingRight=4;overflow=hidden;rotatable=0;points=[[0,0.5],[1,0.5]];portConstraint=eastwest;fontSize=12;" parent="LsLMx1Tqu1ayLNCX3tlf-39" vertex="1">
          <mxGeometry y="52" width="260" height="26" as="geometry" />
        </mxCell>
        <mxCell id="LsLMx1Tqu1ayLNCX3tlf-65" value="private" style="text;strokeColor=none;fillColor=none;spacingLeft=4;spacingRight=4;overflow=hidden;rotatable=0;points=[[0,0.5],[1,0.5]];portConstraint=eastwest;fontSize=12;" parent="LsLMx1Tqu1ayLNCX3tlf-62" vertex="1">
          <mxGeometry y="104" width="260" height="26" as="geometry" />
        </mxCell>
        <mxCell id="LsLMx1Tqu1ayLNCX3tlf-66" value="" style="edgeStyle=orthogonalEdgeStyle;fontSize=12;html=1;endArrow=block;exitX=1;exitY=0.5;exitDx=0;exitDy=0;entryX=0;entryY=0.25;entryDx=0;entryDy=0;endFill=1;strokeWidth=2;" parent="1" source="LsLMx1Tqu1ayLNCX3tlf-79" target="LsLMx1Tqu1ayLNCX3tlf-39" edge="1">
          <mxGeometry width="100" height="100" relative="1" as="geometry">
            <mxPoint x="519.6666666666667" y="258.66666666666674" as="sourcePoint" />
            <mxPoint x="690" y="140" as="targetPoint" />
            <Array as="points">
              <mxPoint x="870" y="447" />
              <mxPoint x="870" y="390" />
            </Array>
          </mxGeometry>
        </mxCell>
        <mxCell id="LsLMx1Tqu1ayLNCX3tlf-67" value="struct cgroup_subsys *subsys[]" style="swimlane;fontStyle=0;childLayout=stackLayout;horizontal=1;startSize=26;fillColor=#e0e0e0;horizontalStack=0;resizeParent=1;resizeParentMax=0;resizeLast=0;collapsible=1;marginBottom=0;swimlaneFillColor=#ffffff;align=center;fontSize=14;" parent="1" vertex="1">
          <mxGeometry x="1744.5" y="715" width="220" height="130" as="geometry" />
        </mxCell>
        <mxCell id="LsLMx1Tqu1ayLNCX3tlf-68" value="0" style="text;strokeColor=none;fillColor=none;spacingLeft=4;spacingRight=4;overflow=hidden;rotatable=0;points=[[0,0.5],[1,0.5]];portConstraint=eastwest;fontSize=12;" parent="LsLMx1Tqu1ayLNCX3tlf-67" vertex="1">
          <mxGeometry y="26" width="220" height="26" as="geometry" />
        </mxCell>
        <mxCell id="LsLMx1Tqu1ayLNCX3tlf-69" value="mem_cgroup_subsys_id&#xa;" style="text;strokeColor=none;fillColor=none;spacingLeft=4;spacingRight=4;overflow=hidden;rotatable=0;points=[[0,0.5],[1,0.5]];portConstraint=eastwest;fontSize=12;" parent="LsLMx1Tqu1ayLNCX3tlf-67" vertex="1">
          <mxGeometry y="52" width="220" height="26" as="geometry" />
        </mxCell>
        <mxCell id="LsLMx1Tqu1ayLNCX3tlf-102" value="cpu_cgroup_subsys_id" style="text;strokeColor=none;fillColor=none;spacingLeft=4;spacingRight=4;overflow=hidden;rotatable=0;points=[[0,0.5],[1,0.5]];portConstraint=eastwest;fontSize=12;" parent="LsLMx1Tqu1ayLNCX3tlf-67" vertex="1">
          <mxGeometry y="78" width="220" height="26" as="geometry" />
        </mxCell>
        <mxCell id="LsLMx1Tqu1ayLNCX3tlf-224" value="blkio_subsys_id" style="text;strokeColor=none;fillColor=none;spacingLeft=4;spacingRight=4;overflow=hidden;rotatable=0;points=[[0,0.5],[1,0.5]];portConstraint=eastwest;fontSize=12;" parent="LsLMx1Tqu1ayLNCX3tlf-67" vertex="1">
          <mxGeometry y="104" width="220" height="26" as="geometry" />
        </mxCell>
        <mxCell id="LsLMx1Tqu1ayLNCX3tlf-72" value="struct cgroup_subsys mem_cgroup_subsys" style="swimlane;fontStyle=0;childLayout=stackLayout;horizontal=1;startSize=26;fillColor=#e1d5e7;horizontalStack=0;resizeParent=1;resizeParentMax=0;resizeLast=0;collapsible=1;marginBottom=0;swimlaneFillColor=#ffffff;align=center;fontSize=14;strokeColor=#9673a6;" parent="1" vertex="1">
          <mxGeometry x="2044.5" y="679" width="345" height="104" as="geometry" />
        </mxCell>
        <mxCell id="LsLMx1Tqu1ayLNCX3tlf-73" value="css_alloc" style="text;strokeColor=none;fillColor=none;spacingLeft=4;spacingRight=4;overflow=hidden;rotatable=0;points=[[0,0.5],[1,0.5]];portConstraint=eastwest;fontSize=12;" parent="LsLMx1Tqu1ayLNCX3tlf-72" vertex="1">
          <mxGeometry y="26" width="345" height="26" as="geometry" />
        </mxCell>
        <mxCell id="LsLMx1Tqu1ayLNCX3tlf-74" value="css_free" style="text;strokeColor=none;fillColor=none;spacingLeft=4;spacingRight=4;overflow=hidden;rotatable=0;points=[[0,0.5],[1,0.5]];portConstraint=eastwest;fontSize=12;" parent="LsLMx1Tqu1ayLNCX3tlf-72" vertex="1">
          <mxGeometry y="52" width="345" height="26" as="geometry" />
        </mxCell>
        <mxCell id="LsLMx1Tqu1ayLNCX3tlf-273" value="struct idr idr" style="text;strokeColor=none;fillColor=none;spacingLeft=4;spacingRight=4;overflow=hidden;rotatable=0;points=[[0,0.5],[1,0.5]];portConstraint=eastwest;fontSize=12;" parent="LsLMx1Tqu1ayLNCX3tlf-72" vertex="1">
          <mxGeometry y="78" width="345" height="26" as="geometry" />
        </mxCell>
        <mxCell id="LsLMx1Tqu1ayLNCX3tlf-76" value="" style="edgeStyle=entityRelationEdgeStyle;fontSize=12;html=1;endArrow=block;exitX=1;exitY=0.5;exitDx=0;exitDy=0;entryX=-0.001;entryY=0.003;entryDx=0;entryDy=0;entryPerimeter=0;endFill=1;" parent="1" source="LsLMx1Tqu1ayLNCX3tlf-69" target="LsLMx1Tqu1ayLNCX3tlf-72" edge="1">
          <mxGeometry width="100" height="100" relative="1" as="geometry">
            <mxPoint x="1304.5" y="499" as="sourcePoint" />
            <mxPoint x="1404.5" y="399" as="targetPoint" />
          </mxGeometry>
        </mxCell>
        <mxCell id="LsLMx1Tqu1ayLNCX3tlf-82" value="cgroupfs_root" style="swimlane;fontStyle=0;childLayout=stackLayout;horizontal=1;startSize=26;fillColor=#e0e0e0;horizontalStack=0;resizeParent=1;resizeParentMax=0;resizeLast=0;collapsible=1;marginBottom=0;swimlaneFillColor=#ffffff;align=center;fontSize=14;" parent="1" vertex="1">
          <mxGeometry x="510" y="4" width="230" height="306" as="geometry" />
        </mxCell>
        <mxCell id="LsLMx1Tqu1ayLNCX3tlf-83" value="unsigned long subsys_mask" style="text;strokeColor=none;fillColor=none;spacingLeft=4;spacingRight=4;overflow=hidden;rotatable=0;points=[[0,0.5],[1,0.5]];portConstraint=eastwest;fontSize=12;" parent="LsLMx1Tqu1ayLNCX3tlf-82" vertex="1">
          <mxGeometry y="26" width="230" height="26" as="geometry" />
        </mxCell>
        <mxCell id="LsLMx1Tqu1ayLNCX3tlf-166" value="cgroup top_cgroup" style="swimlane;fontStyle=0;childLayout=stackLayout;horizontal=1;startSize=26;fillColor=#d80073;horizontalStack=0;resizeParent=1;resizeParentMax=0;resizeLast=0;collapsible=1;marginBottom=0;swimlaneFillColor=#ffffff;align=center;fontSize=14;strokeColor=#A50040;fontColor=#ffffff;strokeWidth=3;" parent="LsLMx1Tqu1ayLNCX3tlf-82" vertex="1">
          <mxGeometry y="52" width="230" height="254" as="geometry">
            <mxRectangle x="200" y="80" width="70" height="26" as="alternateBounds" />
          </mxGeometry>
        </mxCell>
        <mxCell id="LsLMx1Tqu1ayLNCX3tlf-167" value="Row 1" style="text;strokeColor=none;fillColor=none;spacingLeft=4;spacingRight=4;overflow=hidden;rotatable=0;points=[[0,0.5],[1,0.5]];portConstraint=eastwest;fontSize=12;" parent="LsLMx1Tqu1ayLNCX3tlf-166" vertex="1">
          <mxGeometry y="26" width="230" height="26" as="geometry" />
        </mxCell>
        <mxCell id="LsLMx1Tqu1ayLNCX3tlf-168" value="struct cgroup_subsys_state *subsys&#xa;[CGROUP_SUBSYS_COUNT]" style="swimlane;fontStyle=0;childLayout=stackLayout;horizontal=1;startSize=46;fillColor=#fff2cc;horizontalStack=0;resizeParent=1;resizeParentMax=0;resizeLast=0;collapsible=1;marginBottom=0;swimlaneFillColor=#ffffff;align=center;fontSize=14;strokeColor=#d6b656;strokeWidth=2;" parent="LsLMx1Tqu1ayLNCX3tlf-166" vertex="1">
          <mxGeometry y="52" width="230" height="150" as="geometry" />
        </mxCell>
        <mxCell id="LsLMx1Tqu1ayLNCX3tlf-169" value="0" style="text;strokeColor=none;fillColor=none;spacingLeft=4;spacingRight=4;overflow=hidden;rotatable=0;points=[[0,0.5],[1,0.5]];portConstraint=eastwest;fontSize=12;" parent="LsLMx1Tqu1ayLNCX3tlf-168" vertex="1">
          <mxGeometry y="46" width="230" height="26" as="geometry" />
        </mxCell>
        <mxCell id="LsLMx1Tqu1ayLNCX3tlf-170" value="mem_cgroup_subsys_id&#xa;&#xa;" style="text;strokeColor=none;fillColor=none;spacingLeft=4;spacingRight=4;overflow=hidden;rotatable=0;points=[[0,0.5],[1,0.5]];portConstraint=eastwest;fontSize=12;" parent="LsLMx1Tqu1ayLNCX3tlf-168" vertex="1">
          <mxGeometry y="72" width="230" height="26" as="geometry" />
        </mxCell>
        <mxCell id="LsLMx1Tqu1ayLNCX3tlf-171" value="cpu_cgroup_subsys_id" style="text;strokeColor=none;fillColor=none;spacingLeft=4;spacingRight=4;overflow=hidden;rotatable=0;points=[[0,0.5],[1,0.5]];portConstraint=eastwest;fontSize=12;" parent="LsLMx1Tqu1ayLNCX3tlf-168" vertex="1">
          <mxGeometry y="98" width="230" height="26" as="geometry" />
        </mxCell>
        <mxCell id="LsLMx1Tqu1ayLNCX3tlf-264" value="blkio_subsys_id" style="text;strokeColor=none;fillColor=none;spacingLeft=4;spacingRight=4;overflow=hidden;rotatable=0;points=[[0,0.5],[1,0.5]];portConstraint=eastwest;fontSize=12;" parent="LsLMx1Tqu1ayLNCX3tlf-168" vertex="1">
          <mxGeometry y="124" width="230" height="26" as="geometry" />
        </mxCell>
        <mxCell id="LsLMx1Tqu1ayLNCX3tlf-172" value="css_sets" style="text;strokeColor=none;fillColor=none;spacingLeft=4;spacingRight=4;overflow=hidden;rotatable=0;points=[[0,0.5],[1,0.5]];portConstraint=eastwest;fontSize=12;" parent="LsLMx1Tqu1ayLNCX3tlf-166" vertex="1">
          <mxGeometry y="202" width="230" height="26" as="geometry" />
        </mxCell>
        <mxCell id="LsLMx1Tqu1ayLNCX3tlf-173" value="cgroupfs_root *root" style="text;strokeColor=none;fillColor=none;spacingLeft=4;spacingRight=4;overflow=hidden;rotatable=0;points=[[0,0.5],[1,0.5]];portConstraint=eastwest;fontSize=12;" parent="LsLMx1Tqu1ayLNCX3tlf-166" vertex="1">
          <mxGeometry y="228" width="230" height="26" as="geometry" />
        </mxCell>
        <mxCell id="LsLMx1Tqu1ayLNCX3tlf-86" value="" style="edgeStyle=entityRelationEdgeStyle;fontSize=12;html=1;endArrow=block;exitX=1;exitY=0.5;exitDx=0;exitDy=0;entryX=-0.002;entryY=-0.003;entryDx=0;entryDy=0;entryPerimeter=0;startArrow=block;startFill=1;endFill=1;" parent="1" source="LsLMx1Tqu1ayLNCX3tlf-37" target="LsLMx1Tqu1ayLNCX3tlf-82" edge="1">
          <mxGeometry width="100" height="100" relative="1" as="geometry">
            <mxPoint x="720" y="160" as="sourcePoint" />
            <mxPoint x="820" y="60" as="targetPoint" />
          </mxGeometry>
        </mxCell>
        <mxCell id="LsLMx1Tqu1ayLNCX3tlf-87" value="struct cgroup_subsys cpu_cgroup_subsys" style="swimlane;fontStyle=0;childLayout=stackLayout;horizontal=1;startSize=26;fillColor=#e1d5e7;horizontalStack=0;resizeParent=1;resizeParentMax=0;resizeLast=0;collapsible=1;marginBottom=0;swimlaneFillColor=#ffffff;align=center;fontSize=14;strokeColor=#9673a6;" parent="1" vertex="1">
          <mxGeometry x="2044.5" y="841" width="345" height="104" as="geometry" />
        </mxCell>
        <mxCell id="LsLMx1Tqu1ayLNCX3tlf-146" value="css_alloc" style="text;strokeColor=none;fillColor=none;spacingLeft=4;spacingRight=4;overflow=hidden;rotatable=0;points=[[0,0.5],[1,0.5]];portConstraint=eastwest;fontSize=12;" parent="LsLMx1Tqu1ayLNCX3tlf-87" vertex="1">
          <mxGeometry y="26" width="345" height="26" as="geometry" />
        </mxCell>
        <mxCell id="LsLMx1Tqu1ayLNCX3tlf-147" value="css_free" style="text;strokeColor=none;fillColor=none;spacingLeft=4;spacingRight=4;overflow=hidden;rotatable=0;points=[[0,0.5],[1,0.5]];portConstraint=eastwest;fontSize=12;" parent="LsLMx1Tqu1ayLNCX3tlf-87" vertex="1">
          <mxGeometry y="52" width="345" height="26" as="geometry" />
        </mxCell>
        <mxCell id="LsLMx1Tqu1ayLNCX3tlf-274" value="struct idr idr" style="text;strokeColor=none;fillColor=none;spacingLeft=4;spacingRight=4;overflow=hidden;rotatable=0;points=[[0,0.5],[1,0.5]];portConstraint=eastwest;fontSize=12;" parent="LsLMx1Tqu1ayLNCX3tlf-87" vertex="1">
          <mxGeometry y="78" width="345" height="26" as="geometry" />
        </mxCell>
        <mxCell id="LsLMx1Tqu1ayLNCX3tlf-91" value="" style="edgeStyle=entityRelationEdgeStyle;fontSize=12;html=1;endArrow=block;exitX=1;exitY=0.5;exitDx=0;exitDy=0;entryX=-0.005;entryY=0.003;entryDx=0;entryDy=0;entryPerimeter=0;endFill=1;" parent="1" source="LsLMx1Tqu1ayLNCX3tlf-102" target="LsLMx1Tqu1ayLNCX3tlf-87" edge="1">
          <mxGeometry width="100" height="100" relative="1" as="geometry">
            <mxPoint x="1834.5" y="636" as="sourcePoint" />
            <mxPoint x="1964.5" y="809" as="targetPoint" />
          </mxGeometry>
        </mxCell>
        <mxCell id="LsLMx1Tqu1ayLNCX3tlf-93" value="css_set" style="swimlane;fontStyle=0;childLayout=stackLayout;horizontal=1;startSize=26;fillColor=#e0e0e0;horizontalStack=0;resizeParent=1;resizeParentMax=0;resizeLast=0;collapsible=1;marginBottom=0;swimlaneFillColor=#ffffff;align=center;fontSize=14;" parent="1" vertex="1">
          <mxGeometry x="670" y="961" width="220" height="328" as="geometry" />
        </mxCell>
        <mxCell id="LsLMx1Tqu1ayLNCX3tlf-94" value="Row 1" style="text;strokeColor=none;fillColor=none;spacingLeft=4;spacingRight=4;overflow=hidden;rotatable=0;points=[[0,0.5],[1,0.5]];portConstraint=eastwest;fontSize=12;" parent="LsLMx1Tqu1ayLNCX3tlf-93" vertex="1">
          <mxGeometry y="26" width="220" height="26" as="geometry" />
        </mxCell>
        <mxCell id="LsLMx1Tqu1ayLNCX3tlf-95" value="Row 2" style="text;strokeColor=none;fillColor=none;spacingLeft=4;spacingRight=4;overflow=hidden;rotatable=0;points=[[0,0.5],[1,0.5]];portConstraint=eastwest;fontSize=12;" parent="LsLMx1Tqu1ayLNCX3tlf-93" vertex="1">
          <mxGeometry y="52" width="220" height="26" as="geometry" />
        </mxCell>
        <mxCell id="LsLMx1Tqu1ayLNCX3tlf-97" value="cgroup_subsys_state *subsys&#xa;[CGROUP_SUBSYS_COUNT]" style="swimlane;fontStyle=0;childLayout=stackLayout;horizontal=1;startSize=42;fillColor=#fff2cc;horizontalStack=0;resizeParent=1;resizeParentMax=0;resizeLast=0;collapsible=1;marginBottom=0;swimlaneFillColor=#ffffff;align=center;fontSize=14;strokeColor=#d6b656;" parent="LsLMx1Tqu1ayLNCX3tlf-93" vertex="1">
          <mxGeometry y="78" width="220" height="146" as="geometry" />
        </mxCell>
        <mxCell id="LsLMx1Tqu1ayLNCX3tlf-98" value="0" style="text;strokeColor=none;fillColor=none;spacingLeft=4;spacingRight=4;overflow=hidden;rotatable=0;points=[[0,0.5],[1,0.5]];portConstraint=eastwest;fontSize=12;" parent="LsLMx1Tqu1ayLNCX3tlf-97" vertex="1">
          <mxGeometry y="42" width="220" height="26" as="geometry" />
        </mxCell>
        <mxCell id="LsLMx1Tqu1ayLNCX3tlf-99" value="mem_cgroup_subsys_id&#xa;&#xa;" style="text;strokeColor=none;fillColor=none;spacingLeft=4;spacingRight=4;overflow=hidden;rotatable=0;points=[[0,0.5],[1,0.5]];portConstraint=eastwest;fontSize=12;" parent="LsLMx1Tqu1ayLNCX3tlf-97" vertex="1">
          <mxGeometry y="68" width="220" height="26" as="geometry" />
        </mxCell>
        <mxCell id="LsLMx1Tqu1ayLNCX3tlf-176" value="cpu_cgroup_subsys_id" style="text;strokeColor=none;fillColor=none;spacingLeft=4;spacingRight=4;overflow=hidden;rotatable=0;points=[[0,0.5],[1,0.5]];portConstraint=eastwest;fontSize=12;" parent="LsLMx1Tqu1ayLNCX3tlf-97" vertex="1">
          <mxGeometry y="94" width="220" height="26" as="geometry" />
        </mxCell>
        <mxCell id="LsLMx1Tqu1ayLNCX3tlf-213" value="blkio_subsys_id" style="text;strokeColor=none;fillColor=none;spacingLeft=4;spacingRight=4;overflow=hidden;rotatable=0;points=[[0,0.5],[1,0.5]];portConstraint=eastwest;fontSize=12;" parent="LsLMx1Tqu1ayLNCX3tlf-97" vertex="1">
          <mxGeometry y="120" width="220" height="26" as="geometry" />
        </mxCell>
        <mxCell id="LsLMx1Tqu1ayLNCX3tlf-96" value="list_head tasks" style="text;strokeColor=#006EAF;fillColor=#1ba1e2;spacingLeft=4;spacingRight=4;overflow=hidden;rotatable=0;points=[[0,0.5],[1,0.5]];portConstraint=eastwest;fontSize=12;fontColor=#ffffff;" parent="LsLMx1Tqu1ayLNCX3tlf-93" vertex="1">
          <mxGeometry y="224" width="220" height="26" as="geometry" />
        </mxCell>
        <mxCell id="LsLMx1Tqu1ayLNCX3tlf-104" value="hlist_node hlist_node" style="text;strokeColor=none;fillColor=none;spacingLeft=4;spacingRight=4;overflow=hidden;rotatable=0;points=[[0,0.5],[1,0.5]];portConstraint=eastwest;fontSize=12;" parent="LsLMx1Tqu1ayLNCX3tlf-93" vertex="1">
          <mxGeometry y="250" width="220" height="26" as="geometry" />
        </mxCell>
        <mxCell id="LsLMx1Tqu1ayLNCX3tlf-116" value="list_head css_sets" style="text;strokeColor=#d79b00;fillColor=#ffe6cc;spacingLeft=4;spacingRight=4;overflow=hidden;rotatable=0;points=[[0,0.5],[1,0.5]];portConstraint=eastwest;fontSize=12;" parent="LsLMx1Tqu1ayLNCX3tlf-93" vertex="1">
          <mxGeometry y="276" width="220" height="26" as="geometry" />
        </mxCell>
        <mxCell id="LsLMx1Tqu1ayLNCX3tlf-103" value="list_head cg_links" style="text;strokeColor=#A50040;fillColor=#d80073;spacingLeft=4;spacingRight=4;overflow=hidden;rotatable=0;points=[[0,0.5],[1,0.5]];portConstraint=eastwest;fontSize=12;fontColor=#ffffff;" parent="LsLMx1Tqu1ayLNCX3tlf-93" vertex="1">
          <mxGeometry y="302" width="220" height="26" as="geometry" />
        </mxCell>
        <mxCell id="LsLMx1Tqu1ayLNCX3tlf-105" value="cg_cgroup_link" style="swimlane;fontStyle=0;childLayout=stackLayout;horizontal=1;startSize=26;fillColor=#e0e0e0;horizontalStack=0;resizeParent=1;resizeParentMax=0;resizeLast=0;collapsible=1;marginBottom=0;swimlaneFillColor=#ffffff;align=center;fontSize=14;" parent="1" vertex="1">
          <mxGeometry x="780" y="730" width="160" height="130" as="geometry" />
        </mxCell>
        <mxCell id="LsLMx1Tqu1ayLNCX3tlf-106" value="list_head cgrp_link_list" style="text;strokeColor=#C73500;fillColor=#fa6800;spacingLeft=4;spacingRight=4;overflow=hidden;rotatable=0;points=[[0,0.5],[1,0.5]];portConstraint=eastwest;fontSize=12;fontColor=#ffffff;" parent="LsLMx1Tqu1ayLNCX3tlf-105" vertex="1">
          <mxGeometry y="26" width="160" height="26" as="geometry" />
        </mxCell>
        <mxCell id="LsLMx1Tqu1ayLNCX3tlf-107" value="cgroup *cgrp" style="text;strokeColor=#432D57;fillColor=#76608a;spacingLeft=4;spacingRight=4;overflow=hidden;rotatable=0;points=[[0,0.5],[1,0.5]];portConstraint=eastwest;fontSize=12;fontColor=#ffffff;" parent="LsLMx1Tqu1ayLNCX3tlf-105" vertex="1">
          <mxGeometry y="52" width="160" height="26" as="geometry" />
        </mxCell>
        <mxCell id="LsLMx1Tqu1ayLNCX3tlf-108" value="list_head cg_link_list" style="text;strokeColor=#A50040;fillColor=#d80073;spacingLeft=4;spacingRight=4;overflow=hidden;rotatable=0;points=[[0,0.5],[1,0.5]];portConstraint=eastwest;fontSize=12;fontColor=#ffffff;" parent="LsLMx1Tqu1ayLNCX3tlf-105" vertex="1">
          <mxGeometry y="78" width="160" height="26" as="geometry" />
        </mxCell>
        <mxCell id="LsLMx1Tqu1ayLNCX3tlf-109" value="css_set *cg" style="text;strokeColor=#6D1F00;fillColor=#a0522d;spacingLeft=4;spacingRight=4;overflow=hidden;rotatable=0;points=[[0,0.5],[1,0.5]];portConstraint=eastwest;fontSize=12;fontColor=#ffffff;" parent="LsLMx1Tqu1ayLNCX3tlf-105" vertex="1">
          <mxGeometry y="104" width="160" height="26" as="geometry" />
        </mxCell>
        <mxCell id="LsLMx1Tqu1ayLNCX3tlf-110" value="task_struct" style="swimlane;fontStyle=0;childLayout=stackLayout;horizontal=1;startSize=26;fillColor=#e0e0e0;horizontalStack=0;resizeParent=1;resizeParentMax=0;resizeLast=0;collapsible=1;marginBottom=0;swimlaneFillColor=#ffffff;align=center;fontSize=14;" parent="1" vertex="1">
          <mxGeometry x="430" y="1422" width="160" height="78" as="geometry" />
        </mxCell>
        <mxCell id="LsLMx1Tqu1ayLNCX3tlf-111" value="css_set * cgroups" style="text;strokeColor=none;fillColor=none;spacingLeft=4;spacingRight=4;overflow=hidden;rotatable=0;points=[[0,0.5],[1,0.5]];portConstraint=eastwest;fontSize=12;" parent="LsLMx1Tqu1ayLNCX3tlf-110" vertex="1">
          <mxGeometry y="26" width="160" height="26" as="geometry" />
        </mxCell>
        <mxCell id="LsLMx1Tqu1ayLNCX3tlf-112" value="list_head cg_list" style="text;strokeColor=#006EAF;fillColor=#1ba1e2;spacingLeft=4;spacingRight=4;overflow=hidden;rotatable=0;points=[[0,0.5],[1,0.5]];portConstraint=eastwest;fontSize=12;fontColor=#ffffff;" parent="LsLMx1Tqu1ayLNCX3tlf-110" vertex="1">
          <mxGeometry y="52" width="160" height="26" as="geometry" />
        </mxCell>
        <mxCell id="LsLMx1Tqu1ayLNCX3tlf-130" value="task_struct" style="swimlane;fontStyle=0;childLayout=stackLayout;horizontal=1;startSize=26;fillColor=#e0e0e0;horizontalStack=0;resizeParent=1;resizeParentMax=0;resizeLast=0;collapsible=1;marginBottom=0;swimlaneFillColor=#ffffff;align=center;fontSize=14;" parent="1" vertex="1">
          <mxGeometry x="1450" y="1435" width="160" height="78" as="geometry" />
        </mxCell>
        <mxCell id="LsLMx1Tqu1ayLNCX3tlf-131" value="css_set * cgroups" style="text;strokeColor=none;fillColor=none;spacingLeft=4;spacingRight=4;overflow=hidden;rotatable=0;points=[[0,0.5],[1,0.5]];portConstraint=eastwest;fontSize=12;" parent="LsLMx1Tqu1ayLNCX3tlf-130" vertex="1">
          <mxGeometry y="26" width="160" height="26" as="geometry" />
        </mxCell>
        <mxCell id="LsLMx1Tqu1ayLNCX3tlf-132" value="list_head cg_list" style="text;strokeColor=#006EAF;fillColor=#1ba1e2;spacingLeft=4;spacingRight=4;overflow=hidden;rotatable=0;points=[[0,0.5],[1,0.5]];portConstraint=eastwest;fontSize=12;fontColor=#ffffff;" parent="LsLMx1Tqu1ayLNCX3tlf-130" vertex="1">
          <mxGeometry y="52" width="160" height="26" as="geometry" />
        </mxCell>
        <mxCell id="LsLMx1Tqu1ayLNCX3tlf-138" style="edgeStyle=orthogonalEdgeStyle;rounded=0;orthogonalLoop=1;jettySize=auto;html=1;exitX=1;exitY=0.5;exitDx=0;exitDy=0;entryX=1;entryY=0.5;entryDx=0;entryDy=0;startArrow=classic;startFill=1;" parent="1" source="LsLMx1Tqu1ayLNCX3tlf-96" target="LsLMx1Tqu1ayLNCX3tlf-256" edge="1">
          <mxGeometry relative="1" as="geometry" />
        </mxCell>
        <mxCell id="LsLMx1Tqu1ayLNCX3tlf-142" value="task_group" style="swimlane;fontStyle=0;childLayout=stackLayout;horizontal=1;startSize=26;fillColor=#e1d5e7;horizontalStack=0;resizeParent=1;resizeParentMax=0;resizeLast=0;collapsible=1;marginBottom=0;swimlaneFillColor=#ffffff;align=center;fontSize=14;strokeColor=#9673a6;" parent="1" vertex="1">
          <mxGeometry x="920" y="499" width="260" height="130" as="geometry" />
        </mxCell>
        <mxCell id="LsLMx1Tqu1ayLNCX3tlf-143" value="struct cgroup_subsys_state css" style="swimlane;fontStyle=0;childLayout=stackLayout;horizontal=1;startSize=26;fillColor=#fff2cc;horizontalStack=0;resizeParent=1;resizeParentMax=0;resizeLast=0;collapsible=1;marginBottom=0;swimlaneFillColor=#ffffff;align=center;fontSize=14;strokeColor=#d6b656;" parent="LsLMx1Tqu1ayLNCX3tlf-142" vertex="1">
          <mxGeometry y="26" width="260" height="78" as="geometry" />
        </mxCell>
        <mxCell id="LsLMx1Tqu1ayLNCX3tlf-144" value="cgroup *cgroup" style="text;strokeColor=none;fillColor=none;spacingLeft=4;spacingRight=4;overflow=hidden;rotatable=0;points=[[0,0.5],[1,0.5]];portConstraint=eastwest;fontSize=12;" parent="LsLMx1Tqu1ayLNCX3tlf-143" vertex="1">
          <mxGeometry y="26" width="260" height="26" as="geometry" />
        </mxCell>
        <mxCell id="LsLMx1Tqu1ayLNCX3tlf-281" value="css_id *id" style="text;strokeColor=none;fillColor=none;spacingLeft=4;spacingRight=4;overflow=hidden;rotatable=0;points=[[0,0.5],[1,0.5]];portConstraint=eastwest;fontSize=12;" parent="LsLMx1Tqu1ayLNCX3tlf-143" vertex="1">
          <mxGeometry y="52" width="260" height="26" as="geometry" />
        </mxCell>
        <mxCell id="LsLMx1Tqu1ayLNCX3tlf-145" value="private" style="text;strokeColor=none;fillColor=none;spacingLeft=4;spacingRight=4;overflow=hidden;rotatable=0;points=[[0,0.5],[1,0.5]];portConstraint=eastwest;fontSize=12;" parent="LsLMx1Tqu1ayLNCX3tlf-142" vertex="1">
          <mxGeometry y="104" width="260" height="26" as="geometry" />
        </mxCell>
        <mxCell id="LsLMx1Tqu1ayLNCX3tlf-148" value="" style="endArrow=classic;html=1;exitX=0;exitY=0.5;exitDx=0;exitDy=0;entryX=0;entryY=0.011;entryDx=0;entryDy=0;entryPerimeter=0;fillColor=#76608a;strokeColor=#432D57;strokeWidth=2;edgeStyle=orthogonalEdgeStyle;" parent="1" source="LsLMx1Tqu1ayLNCX3tlf-107" target="LsLMx1Tqu1ayLNCX3tlf-34" edge="1">
          <mxGeometry width="50" height="50" relative="1" as="geometry">
            <mxPoint x="150" y="870" as="sourcePoint" />
            <mxPoint x="200" y="820" as="targetPoint" />
            <Array as="points">
              <mxPoint x="130" y="795" />
              <mxPoint x="130" y="313" />
            </Array>
          </mxGeometry>
        </mxCell>
        <mxCell id="LsLMx1Tqu1ayLNCX3tlf-153" value="cg_cgroup_link" style="swimlane;fontStyle=0;childLayout=stackLayout;horizontal=1;startSize=26;fillColor=#e0e0e0;horizontalStack=0;resizeParent=1;resizeParentMax=0;resizeLast=0;collapsible=1;marginBottom=0;swimlaneFillColor=#ffffff;align=center;fontSize=14;" parent="1" vertex="1">
          <mxGeometry x="990" y="730" width="160" height="130" as="geometry" />
        </mxCell>
        <mxCell id="LsLMx1Tqu1ayLNCX3tlf-154" value="list_head cgrp_link_list" style="text;strokeColor=#C73500;fillColor=#fa6800;spacingLeft=4;spacingRight=4;overflow=hidden;rotatable=0;points=[[0,0.5],[1,0.5]];portConstraint=eastwest;fontSize=12;fontColor=#ffffff;" parent="LsLMx1Tqu1ayLNCX3tlf-153" vertex="1">
          <mxGeometry y="26" width="160" height="26" as="geometry" />
        </mxCell>
        <mxCell id="LsLMx1Tqu1ayLNCX3tlf-155" value="cgroup *cgrp" style="text;strokeColor=#432D57;fillColor=#76608a;spacingLeft=4;spacingRight=4;overflow=hidden;rotatable=0;points=[[0,0.5],[1,0.5]];portConstraint=eastwest;fontSize=12;fontColor=#ffffff;" parent="LsLMx1Tqu1ayLNCX3tlf-153" vertex="1">
          <mxGeometry y="52" width="160" height="26" as="geometry" />
        </mxCell>
        <mxCell id="LsLMx1Tqu1ayLNCX3tlf-156" value="list_head cg_link_list" style="text;strokeColor=#A50040;fillColor=#d80073;spacingLeft=4;spacingRight=4;overflow=hidden;rotatable=0;points=[[0,0.5],[1,0.5]];portConstraint=eastwest;fontSize=12;fontColor=#ffffff;" parent="LsLMx1Tqu1ayLNCX3tlf-153" vertex="1">
          <mxGeometry y="78" width="160" height="26" as="geometry" />
        </mxCell>
        <mxCell id="LsLMx1Tqu1ayLNCX3tlf-157" value="css_set *cg" style="text;strokeColor=#6D1F00;fillColor=#a0522d;spacingLeft=4;spacingRight=4;overflow=hidden;rotatable=0;points=[[0,0.5],[1,0.5]];portConstraint=eastwest;fontSize=12;fontColor=#ffffff;" parent="LsLMx1Tqu1ayLNCX3tlf-153" vertex="1">
          <mxGeometry y="104" width="160" height="26" as="geometry" />
        </mxCell>
        <mxCell id="LsLMx1Tqu1ayLNCX3tlf-174" style="edgeStyle=orthogonalEdgeStyle;rounded=1;orthogonalLoop=1;jettySize=auto;html=1;exitX=1;exitY=0.5;exitDx=0;exitDy=0;entryX=0;entryY=0.25;entryDx=0;entryDy=0;startArrow=none;startFill=0;endArrow=block;endFill=1;strokeWidth=2;" parent="1" source="LsLMx1Tqu1ayLNCX3tlf-267" target="LsLMx1Tqu1ayLNCX3tlf-143" edge="1">
          <mxGeometry relative="1" as="geometry">
            <Array as="points">
              <mxPoint x="871" y="473" />
              <mxPoint x="871" y="544" />
            </Array>
          </mxGeometry>
        </mxCell>
        <mxCell id="LsLMx1Tqu1ayLNCX3tlf-177" style="edgeStyle=orthogonalEdgeStyle;curved=1;rounded=0;orthogonalLoop=1;jettySize=auto;html=1;exitX=1;exitY=0.5;exitDx=0;exitDy=0;entryX=0;entryY=0.5;entryDx=0;entryDy=0;startArrow=classic;startFill=1;endArrow=block;endFill=1;strokeWidth=2;" parent="1" source="LsLMx1Tqu1ayLNCX3tlf-106" target="LsLMx1Tqu1ayLNCX3tlf-154" edge="1">
          <mxGeometry relative="1" as="geometry" />
        </mxCell>
        <mxCell id="LsLMx1Tqu1ayLNCX3tlf-178" value="css_set" style="swimlane;fontStyle=0;childLayout=stackLayout;horizontal=1;startSize=26;fillColor=#e0e0e0;horizontalStack=0;resizeParent=1;resizeParentMax=0;resizeLast=0;collapsible=1;marginBottom=0;swimlaneFillColor=#ffffff;align=center;fontSize=14;" parent="1" vertex="1">
          <mxGeometry x="1030" y="961" width="220" height="328" as="geometry" />
        </mxCell>
        <mxCell id="LsLMx1Tqu1ayLNCX3tlf-179" value="Row 1" style="text;strokeColor=none;fillColor=none;spacingLeft=4;spacingRight=4;overflow=hidden;rotatable=0;points=[[0,0.5],[1,0.5]];portConstraint=eastwest;fontSize=12;" parent="LsLMx1Tqu1ayLNCX3tlf-178" vertex="1">
          <mxGeometry y="26" width="220" height="26" as="geometry" />
        </mxCell>
        <mxCell id="LsLMx1Tqu1ayLNCX3tlf-180" value="Row 2" style="text;strokeColor=none;fillColor=none;spacingLeft=4;spacingRight=4;overflow=hidden;rotatable=0;points=[[0,0.5],[1,0.5]];portConstraint=eastwest;fontSize=12;" parent="LsLMx1Tqu1ayLNCX3tlf-178" vertex="1">
          <mxGeometry y="52" width="220" height="26" as="geometry" />
        </mxCell>
        <mxCell id="LsLMx1Tqu1ayLNCX3tlf-181" value="cgroup_subsys_state *subsys&#xa;[CGROUP_SUBSYS_COUNT]" style="swimlane;fontStyle=0;childLayout=stackLayout;horizontal=1;startSize=42;fillColor=#fff2cc;horizontalStack=0;resizeParent=1;resizeParentMax=0;resizeLast=0;collapsible=1;marginBottom=0;swimlaneFillColor=#ffffff;align=center;fontSize=14;strokeColor=#d6b656;" parent="LsLMx1Tqu1ayLNCX3tlf-178" vertex="1">
          <mxGeometry y="78" width="220" height="146" as="geometry" />
        </mxCell>
        <mxCell id="LsLMx1Tqu1ayLNCX3tlf-182" value="0" style="text;strokeColor=none;fillColor=none;spacingLeft=4;spacingRight=4;overflow=hidden;rotatable=0;points=[[0,0.5],[1,0.5]];portConstraint=eastwest;fontSize=12;" parent="LsLMx1Tqu1ayLNCX3tlf-181" vertex="1">
          <mxGeometry y="42" width="220" height="26" as="geometry" />
        </mxCell>
        <mxCell id="LsLMx1Tqu1ayLNCX3tlf-183" value="mem_cgroup_subsys_id&#xa;&#xa;" style="text;strokeColor=none;fillColor=none;spacingLeft=4;spacingRight=4;overflow=hidden;rotatable=0;points=[[0,0.5],[1,0.5]];portConstraint=eastwest;fontSize=12;" parent="LsLMx1Tqu1ayLNCX3tlf-181" vertex="1">
          <mxGeometry y="68" width="220" height="26" as="geometry" />
        </mxCell>
        <mxCell id="LsLMx1Tqu1ayLNCX3tlf-184" value="cpu_cgroup_subsys_id" style="text;strokeColor=none;fillColor=none;spacingLeft=4;spacingRight=4;overflow=hidden;rotatable=0;points=[[0,0.5],[1,0.5]];portConstraint=eastwest;fontSize=12;" parent="LsLMx1Tqu1ayLNCX3tlf-181" vertex="1">
          <mxGeometry y="94" width="220" height="26" as="geometry" />
        </mxCell>
        <mxCell id="LsLMx1Tqu1ayLNCX3tlf-214" value="blkio_subsys_id" style="text;strokeColor=none;fillColor=none;spacingLeft=4;spacingRight=4;overflow=hidden;rotatable=0;points=[[0,0.5],[1,0.5]];portConstraint=eastwest;fontSize=12;" parent="LsLMx1Tqu1ayLNCX3tlf-181" vertex="1">
          <mxGeometry y="120" width="220" height="26" as="geometry" />
        </mxCell>
        <mxCell id="LsLMx1Tqu1ayLNCX3tlf-185" value="list_head tasks" style="text;strokeColor=#006EAF;fillColor=#1ba1e2;spacingLeft=4;spacingRight=4;overflow=hidden;rotatable=0;points=[[0,0.5],[1,0.5]];portConstraint=eastwest;fontSize=12;fontColor=#ffffff;" parent="LsLMx1Tqu1ayLNCX3tlf-178" vertex="1">
          <mxGeometry y="224" width="220" height="26" as="geometry" />
        </mxCell>
        <mxCell id="LsLMx1Tqu1ayLNCX3tlf-186" value="hlist_node hlist_node" style="text;strokeColor=none;fillColor=none;spacingLeft=4;spacingRight=4;overflow=hidden;rotatable=0;points=[[0,0.5],[1,0.5]];portConstraint=eastwest;fontSize=12;" parent="LsLMx1Tqu1ayLNCX3tlf-178" vertex="1">
          <mxGeometry y="250" width="220" height="26" as="geometry" />
        </mxCell>
        <mxCell id="LsLMx1Tqu1ayLNCX3tlf-187" value="list_head css_sets" style="text;strokeColor=#d79b00;fillColor=#ffe6cc;spacingLeft=4;spacingRight=4;overflow=hidden;rotatable=0;points=[[0,0.5],[1,0.5]];portConstraint=eastwest;fontSize=12;" parent="LsLMx1Tqu1ayLNCX3tlf-178" vertex="1">
          <mxGeometry y="276" width="220" height="26" as="geometry" />
        </mxCell>
        <mxCell id="LsLMx1Tqu1ayLNCX3tlf-188" value="list_head cg_links" style="text;strokeColor=#A50040;fillColor=#d80073;spacingLeft=4;spacingRight=4;overflow=hidden;rotatable=0;points=[[0,0.5],[1,0.5]];portConstraint=eastwest;fontSize=12;fontColor=#ffffff;" parent="LsLMx1Tqu1ayLNCX3tlf-178" vertex="1">
          <mxGeometry y="302" width="220" height="26" as="geometry" />
        </mxCell>
        <mxCell id="LsLMx1Tqu1ayLNCX3tlf-189" value="" style="endArrow=classic;html=1;strokeWidth=2;exitX=0;exitY=0.5;exitDx=0;exitDy=0;entryX=0;entryY=0.5;entryDx=0;entryDy=0;edgeStyle=orthogonalEdgeStyle;" parent="1" source="LsLMx1Tqu1ayLNCX3tlf-103" target="LsLMx1Tqu1ayLNCX3tlf-108" edge="1">
          <mxGeometry width="50" height="50" relative="1" as="geometry">
            <mxPoint x="20" y="1130" as="sourcePoint" />
            <mxPoint x="70" y="1080" as="targetPoint" />
            <Array as="points">
              <mxPoint x="530" y="1276" />
              <mxPoint x="530" y="821" />
            </Array>
          </mxGeometry>
        </mxCell>
        <mxCell id="LsLMx1Tqu1ayLNCX3tlf-190" style="edgeStyle=orthogonalEdgeStyle;curved=1;rounded=0;orthogonalLoop=1;jettySize=auto;html=1;exitX=0;exitY=0.5;exitDx=0;exitDy=0;startArrow=block;startFill=1;endArrow=block;endFill=1;strokeWidth=2;" parent="1" source="LsLMx1Tqu1ayLNCX3tlf-156" target="LsLMx1Tqu1ayLNCX3tlf-108" edge="1">
          <mxGeometry relative="1" as="geometry" />
        </mxCell>
        <mxCell id="LsLMx1Tqu1ayLNCX3tlf-191" style="edgeStyle=orthogonalEdgeStyle;rounded=0;orthogonalLoop=1;jettySize=auto;html=1;exitX=0;exitY=0.5;exitDx=0;exitDy=0;entryX=0.004;entryY=0.009;entryDx=0;entryDy=0;entryPerimeter=0;startArrow=block;startFill=1;endArrow=block;endFill=1;strokeWidth=2;elbow=vertical;" parent="1" source="LsLMx1Tqu1ayLNCX3tlf-35" target="LsLMx1Tqu1ayLNCX3tlf-166" edge="1">
          <mxGeometry relative="1" as="geometry" />
        </mxCell>
        <mxCell id="LsLMx1Tqu1ayLNCX3tlf-192" value="cgroupfs_root" style="swimlane;fontStyle=0;childLayout=stackLayout;horizontal=1;startSize=26;fillColor=#e0e0e0;horizontalStack=0;resizeParent=1;resizeParentMax=0;resizeLast=0;collapsible=1;marginBottom=0;swimlaneFillColor=#ffffff;align=center;fontSize=14;" parent="1" vertex="1">
          <mxGeometry x="1640" y="4" width="230" height="254" as="geometry" />
        </mxCell>
        <mxCell id="LsLMx1Tqu1ayLNCX3tlf-193" value="unsigned long subsys_mask" style="text;strokeColor=none;fillColor=none;spacingLeft=4;spacingRight=4;overflow=hidden;rotatable=0;points=[[0,0.5],[1,0.5]];portConstraint=eastwest;fontSize=12;" parent="LsLMx1Tqu1ayLNCX3tlf-192" vertex="1">
          <mxGeometry y="26" width="230" height="26" as="geometry" />
        </mxCell>
        <mxCell id="LsLMx1Tqu1ayLNCX3tlf-194" value="cgroup top_cgroup" style="swimlane;fontStyle=0;childLayout=stackLayout;horizontal=1;startSize=26;fillColor=#d80073;horizontalStack=0;resizeParent=1;resizeParentMax=0;resizeLast=0;collapsible=1;marginBottom=0;swimlaneFillColor=#ffffff;align=center;fontSize=14;strokeColor=#A50040;fontColor=#ffffff;gradientColor=none;strokeWidth=3;" parent="LsLMx1Tqu1ayLNCX3tlf-192" vertex="1">
          <mxGeometry y="52" width="230" height="202" as="geometry">
            <mxRectangle x="200" y="80" width="70" height="26" as="alternateBounds" />
          </mxGeometry>
        </mxCell>
        <mxCell id="LsLMx1Tqu1ayLNCX3tlf-195" value="Row 1" style="text;strokeColor=none;fillColor=none;spacingLeft=4;spacingRight=4;overflow=hidden;rotatable=0;points=[[0,0.5],[1,0.5]];portConstraint=eastwest;fontSize=12;" parent="LsLMx1Tqu1ayLNCX3tlf-194" vertex="1">
          <mxGeometry y="26" width="230" height="26" as="geometry" />
        </mxCell>
        <mxCell id="LsLMx1Tqu1ayLNCX3tlf-196" value="struct cgroup_subsys_state *subsys&#xa;[CGROUP_SUBSYS_COUNT]" style="swimlane;fontStyle=0;childLayout=stackLayout;horizontal=1;startSize=46;fillColor=#fff2cc;horizontalStack=0;resizeParent=1;resizeParentMax=0;resizeLast=0;collapsible=1;marginBottom=0;swimlaneFillColor=#ffffff;align=center;fontSize=14;strokeColor=#d6b656;strokeWidth=2;" parent="LsLMx1Tqu1ayLNCX3tlf-194" vertex="1">
          <mxGeometry y="52" width="230" height="98" as="geometry" />
        </mxCell>
        <mxCell id="LsLMx1Tqu1ayLNCX3tlf-197" value="0" style="text;strokeColor=none;fillColor=none;spacingLeft=4;spacingRight=4;overflow=hidden;rotatable=0;points=[[0,0.5],[1,0.5]];portConstraint=eastwest;fontSize=12;" parent="LsLMx1Tqu1ayLNCX3tlf-196" vertex="1">
          <mxGeometry y="46" width="230" height="26" as="geometry" />
        </mxCell>
        <mxCell id="LsLMx1Tqu1ayLNCX3tlf-198" value="blkio_subsys_id&#xa;" style="text;strokeColor=none;fillColor=none;spacingLeft=4;spacingRight=4;overflow=hidden;rotatable=0;points=[[0,0.5],[1,0.5]];portConstraint=eastwest;fontSize=12;" parent="LsLMx1Tqu1ayLNCX3tlf-196" vertex="1">
          <mxGeometry y="72" width="230" height="26" as="geometry" />
        </mxCell>
        <mxCell id="LsLMx1Tqu1ayLNCX3tlf-200" value="css_sets" style="text;strokeColor=none;fillColor=none;spacingLeft=4;spacingRight=4;overflow=hidden;rotatable=0;points=[[0,0.5],[1,0.5]];portConstraint=eastwest;fontSize=12;" parent="LsLMx1Tqu1ayLNCX3tlf-194" vertex="1">
          <mxGeometry y="150" width="230" height="26" as="geometry" />
        </mxCell>
        <mxCell id="LsLMx1Tqu1ayLNCX3tlf-201" value="cgroupfs_root *root" style="text;strokeColor=none;fillColor=none;spacingLeft=4;spacingRight=4;overflow=hidden;rotatable=0;points=[[0,0.5],[1,0.5]];portConstraint=eastwest;fontSize=12;" parent="LsLMx1Tqu1ayLNCX3tlf-194" vertex="1">
          <mxGeometry y="176" width="230" height="26" as="geometry" />
        </mxCell>
        <mxCell id="LsLMx1Tqu1ayLNCX3tlf-203" value="mem_cgroup" style="swimlane;fontStyle=0;childLayout=stackLayout;horizontal=1;startSize=26;fillColor=#e1d5e7;horizontalStack=0;resizeParent=1;resizeParentMax=0;resizeLast=0;collapsible=1;marginBottom=0;swimlaneFillColor=#ffffff;align=center;fontSize=14;strokeColor=#9673a6;" parent="1" vertex="1">
          <mxGeometry x="920" y="11.5" width="260" height="130" as="geometry" />
        </mxCell>
        <mxCell id="LsLMx1Tqu1ayLNCX3tlf-204" value="struct cgroup_subsys_state css" style="swimlane;fontStyle=0;childLayout=stackLayout;horizontal=1;startSize=26;fillColor=#fff2cc;horizontalStack=0;resizeParent=1;resizeParentMax=0;resizeLast=0;collapsible=1;marginBottom=0;swimlaneFillColor=#ffffff;align=center;fontSize=14;strokeColor=#d6b656;" parent="LsLMx1Tqu1ayLNCX3tlf-203" vertex="1">
          <mxGeometry y="26" width="260" height="78" as="geometry" />
        </mxCell>
        <mxCell id="LsLMx1Tqu1ayLNCX3tlf-205" value="cgroup *cgroup" style="text;strokeColor=none;fillColor=none;spacingLeft=4;spacingRight=4;overflow=hidden;rotatable=0;points=[[0,0.5],[1,0.5]];portConstraint=eastwest;fontSize=12;" parent="LsLMx1Tqu1ayLNCX3tlf-204" vertex="1">
          <mxGeometry y="26" width="260" height="26" as="geometry" />
        </mxCell>
        <mxCell id="LsLMx1Tqu1ayLNCX3tlf-276" value="css_id *id" style="text;strokeColor=none;fillColor=none;spacingLeft=4;spacingRight=4;overflow=hidden;rotatable=0;points=[[0,0.5],[1,0.5]];portConstraint=eastwest;fontSize=12;" parent="LsLMx1Tqu1ayLNCX3tlf-204" vertex="1">
          <mxGeometry y="52" width="260" height="26" as="geometry" />
        </mxCell>
        <mxCell id="LsLMx1Tqu1ayLNCX3tlf-206" value="private" style="text;strokeColor=none;fillColor=none;spacingLeft=4;spacingRight=4;overflow=hidden;rotatable=0;points=[[0,0.5],[1,0.5]];portConstraint=eastwest;fontSize=12;" parent="LsLMx1Tqu1ayLNCX3tlf-203" vertex="1">
          <mxGeometry y="104" width="260" height="26" as="geometry" />
        </mxCell>
        <mxCell id="LsLMx1Tqu1ayLNCX3tlf-207" value="task_group" style="swimlane;fontStyle=0;childLayout=stackLayout;horizontal=1;startSize=26;fillColor=#e1d5e7;horizontalStack=0;resizeParent=1;resizeParentMax=0;resizeLast=0;collapsible=1;marginBottom=0;swimlaneFillColor=#ffffff;align=center;fontSize=14;strokeColor=#9673a6;" parent="1" vertex="1">
          <mxGeometry x="920" y="180" width="260" height="130" as="geometry" />
        </mxCell>
        <mxCell id="LsLMx1Tqu1ayLNCX3tlf-208" value="struct cgroup_subsys_state css" style="swimlane;fontStyle=0;childLayout=stackLayout;horizontal=1;startSize=26;fillColor=#fff2cc;horizontalStack=0;resizeParent=1;resizeParentMax=0;resizeLast=0;collapsible=1;marginBottom=0;swimlaneFillColor=#ffffff;align=center;fontSize=14;strokeColor=#d6b656;" parent="LsLMx1Tqu1ayLNCX3tlf-207" vertex="1">
          <mxGeometry y="26" width="260" height="78" as="geometry" />
        </mxCell>
        <mxCell id="LsLMx1Tqu1ayLNCX3tlf-209" value="cgroup *cgroup" style="text;strokeColor=none;fillColor=none;spacingLeft=4;spacingRight=4;overflow=hidden;rotatable=0;points=[[0,0.5],[1,0.5]];portConstraint=eastwest;fontSize=12;" parent="LsLMx1Tqu1ayLNCX3tlf-208" vertex="1">
          <mxGeometry y="26" width="260" height="26" as="geometry" />
        </mxCell>
        <mxCell id="LsLMx1Tqu1ayLNCX3tlf-278" value="css_id *id" style="text;strokeColor=none;fillColor=none;spacingLeft=4;spacingRight=4;overflow=hidden;rotatable=0;points=[[0,0.5],[1,0.5]];portConstraint=eastwest;fontSize=12;" parent="LsLMx1Tqu1ayLNCX3tlf-208" vertex="1">
          <mxGeometry y="52" width="260" height="26" as="geometry" />
        </mxCell>
        <mxCell id="LsLMx1Tqu1ayLNCX3tlf-210" value="private" style="text;strokeColor=none;fillColor=none;spacingLeft=4;spacingRight=4;overflow=hidden;rotatable=0;points=[[0,0.5],[1,0.5]];portConstraint=eastwest;fontSize=12;" parent="LsLMx1Tqu1ayLNCX3tlf-207" vertex="1">
          <mxGeometry y="104" width="260" height="26" as="geometry" />
        </mxCell>
        <mxCell id="LsLMx1Tqu1ayLNCX3tlf-211" style="edgeStyle=orthogonalEdgeStyle;rounded=0;orthogonalLoop=1;jettySize=auto;html=1;exitX=1;exitY=0.5;exitDx=0;exitDy=0;entryX=0;entryY=0.25;entryDx=0;entryDy=0;startArrow=none;startFill=0;endArrow=block;endFill=1;strokeWidth=2;" parent="1" source="LsLMx1Tqu1ayLNCX3tlf-170" target="LsLMx1Tqu1ayLNCX3tlf-204" edge="1">
          <mxGeometry relative="1" as="geometry" />
        </mxCell>
        <mxCell id="LsLMx1Tqu1ayLNCX3tlf-212" style="edgeStyle=orthogonalEdgeStyle;rounded=0;orthogonalLoop=1;jettySize=auto;html=1;exitX=1;exitY=0.5;exitDx=0;exitDy=0;startArrow=none;startFill=0;endArrow=block;endFill=1;strokeWidth=2;" parent="1" source="LsLMx1Tqu1ayLNCX3tlf-171" edge="1">
          <mxGeometry relative="1" as="geometry">
            <mxPoint x="920" y="219" as="targetPoint" />
            <Array as="points">
              <mxPoint x="920" y="219" />
            </Array>
          </mxGeometry>
        </mxCell>
        <mxCell id="LsLMx1Tqu1ayLNCX3tlf-215" value="cg_cgroup_link" style="swimlane;fontStyle=0;childLayout=stackLayout;horizontal=1;startSize=26;fillColor=#e0e0e0;horizontalStack=0;resizeParent=1;resizeParentMax=0;resizeLast=0;collapsible=1;marginBottom=0;swimlaneFillColor=#ffffff;align=center;fontSize=14;" parent="1" vertex="1">
          <mxGeometry x="1440" y="728" width="160" height="130" as="geometry" />
        </mxCell>
        <mxCell id="LsLMx1Tqu1ayLNCX3tlf-216" value="list_head cgrp_link_list" style="text;strokeColor=#C73500;fillColor=#fa6800;spacingLeft=4;spacingRight=4;overflow=hidden;rotatable=0;points=[[0,0.5],[1,0.5]];portConstraint=eastwest;fontSize=12;fontColor=#ffffff;" parent="LsLMx1Tqu1ayLNCX3tlf-215" vertex="1">
          <mxGeometry y="26" width="160" height="26" as="geometry" />
        </mxCell>
        <mxCell id="LsLMx1Tqu1ayLNCX3tlf-217" value="cgroup *cgrp" style="text;strokeColor=#432D57;fillColor=#76608a;spacingLeft=4;spacingRight=4;overflow=hidden;rotatable=0;points=[[0,0.5],[1,0.5]];portConstraint=eastwest;fontSize=12;fontColor=#ffffff;" parent="LsLMx1Tqu1ayLNCX3tlf-215" vertex="1">
          <mxGeometry y="52" width="160" height="26" as="geometry" />
        </mxCell>
        <mxCell id="LsLMx1Tqu1ayLNCX3tlf-218" value="list_head cg_link_list" style="text;strokeColor=#A50040;fillColor=#d80073;spacingLeft=4;spacingRight=4;overflow=hidden;rotatable=0;points=[[0,0.5],[1,0.5]];portConstraint=eastwest;fontSize=12;fontColor=#ffffff;" parent="LsLMx1Tqu1ayLNCX3tlf-215" vertex="1">
          <mxGeometry y="78" width="160" height="26" as="geometry" />
        </mxCell>
        <mxCell id="LsLMx1Tqu1ayLNCX3tlf-219" value="css_set *cg" style="text;strokeColor=#6D1F00;fillColor=#a0522d;spacingLeft=4;spacingRight=4;overflow=hidden;rotatable=0;points=[[0,0.5],[1,0.5]];portConstraint=eastwest;fontSize=12;fontColor=#ffffff;" parent="LsLMx1Tqu1ayLNCX3tlf-215" vertex="1">
          <mxGeometry y="104" width="160" height="26" as="geometry" />
        </mxCell>
        <mxCell id="LsLMx1Tqu1ayLNCX3tlf-220" value="struct cgroup_subsys blkio_subsys" style="swimlane;fontStyle=0;childLayout=stackLayout;horizontal=1;startSize=26;fillColor=#e1d5e7;horizontalStack=0;resizeParent=1;resizeParentMax=0;resizeLast=0;collapsible=1;marginBottom=0;swimlaneFillColor=#ffffff;align=center;fontSize=14;strokeColor=#9673a6;" parent="1" vertex="1">
          <mxGeometry x="2044.5" y="985" width="345" height="104" as="geometry" />
        </mxCell>
        <mxCell id="LsLMx1Tqu1ayLNCX3tlf-221" value="css_alloc" style="text;strokeColor=none;fillColor=none;spacingLeft=4;spacingRight=4;overflow=hidden;rotatable=0;points=[[0,0.5],[1,0.5]];portConstraint=eastwest;fontSize=12;" parent="LsLMx1Tqu1ayLNCX3tlf-220" vertex="1">
          <mxGeometry y="26" width="345" height="26" as="geometry" />
        </mxCell>
        <mxCell id="LsLMx1Tqu1ayLNCX3tlf-222" value="css_free" style="text;strokeColor=none;fillColor=none;spacingLeft=4;spacingRight=4;overflow=hidden;rotatable=0;points=[[0,0.5],[1,0.5]];portConstraint=eastwest;fontSize=12;" parent="LsLMx1Tqu1ayLNCX3tlf-220" vertex="1">
          <mxGeometry y="52" width="345" height="26" as="geometry" />
        </mxCell>
        <mxCell id="LsLMx1Tqu1ayLNCX3tlf-275" value="struct idr idr" style="text;strokeColor=none;fillColor=none;spacingLeft=4;spacingRight=4;overflow=hidden;rotatable=0;points=[[0,0.5],[1,0.5]];portConstraint=eastwest;fontSize=12;" parent="LsLMx1Tqu1ayLNCX3tlf-220" vertex="1">
          <mxGeometry y="78" width="345" height="26" as="geometry" />
        </mxCell>
        <mxCell id="LsLMx1Tqu1ayLNCX3tlf-225" style="edgeStyle=entityRelationEdgeStyle;rounded=1;orthogonalLoop=1;jettySize=auto;html=1;exitX=1;exitY=0.5;exitDx=0;exitDy=0;entryX=-0.007;entryY=-0.008;entryDx=0;entryDy=0;entryPerimeter=0;startArrow=none;startFill=0;endArrow=block;endFill=1;strokeWidth=1;" parent="1" source="LsLMx1Tqu1ayLNCX3tlf-224" target="LsLMx1Tqu1ayLNCX3tlf-220" edge="1">
          <mxGeometry relative="1" as="geometry" />
        </mxCell>
        <mxCell id="LsLMx1Tqu1ayLNCX3tlf-226" value="cgroup" style="swimlane;fontStyle=0;childLayout=stackLayout;horizontal=1;startSize=26;fillColor=#e0e0e0;horizontalStack=0;resizeParent=1;resizeParentMax=0;resizeLast=0;collapsible=1;marginBottom=0;swimlaneFillColor=#ffffff;align=center;fontSize=14;" parent="1" vertex="1">
          <mxGeometry x="1740" y="310" width="260" height="202" as="geometry">
            <mxRectangle x="200" y="80" width="70" height="26" as="alternateBounds" />
          </mxGeometry>
        </mxCell>
        <mxCell id="LsLMx1Tqu1ayLNCX3tlf-227" value="cgroup *parent" style="text;strokeColor=none;fillColor=none;spacingLeft=4;spacingRight=4;overflow=hidden;rotatable=0;points=[[0,0.5],[1,0.5]];portConstraint=eastwest;fontSize=12;" parent="LsLMx1Tqu1ayLNCX3tlf-226" vertex="1">
          <mxGeometry y="26" width="260" height="26" as="geometry" />
        </mxCell>
        <mxCell id="LsLMx1Tqu1ayLNCX3tlf-228" value="struct cgroup_subsys_state *subsys&#xa;[CGROUP_SUBSYS_COUNT]" style="swimlane;fontStyle=0;childLayout=stackLayout;horizontal=1;startSize=46;fillColor=#fff2cc;horizontalStack=0;resizeParent=1;resizeParentMax=0;resizeLast=0;collapsible=1;marginBottom=0;swimlaneFillColor=#ffffff;align=center;fontSize=14;strokeColor=#d6b656;strokeWidth=4;" parent="LsLMx1Tqu1ayLNCX3tlf-226" vertex="1">
          <mxGeometry y="52" width="260" height="98" as="geometry" />
        </mxCell>
        <mxCell id="LsLMx1Tqu1ayLNCX3tlf-229" value="0" style="text;strokeColor=none;fillColor=none;spacingLeft=4;spacingRight=4;overflow=hidden;rotatable=0;points=[[0,0.5],[1,0.5]];portConstraint=eastwest;fontSize=12;" parent="LsLMx1Tqu1ayLNCX3tlf-228" vertex="1">
          <mxGeometry y="46" width="260" height="26" as="geometry" />
        </mxCell>
        <mxCell id="LsLMx1Tqu1ayLNCX3tlf-231" value="blkio_subsys_id&#xa;&#xa;" style="text;strokeColor=none;fillColor=none;spacingLeft=4;spacingRight=4;overflow=hidden;rotatable=0;points=[[0,0.5],[1,0.5]];portConstraint=eastwest;fontSize=12;" parent="LsLMx1Tqu1ayLNCX3tlf-228" vertex="1">
          <mxGeometry y="72" width="260" height="26" as="geometry" />
        </mxCell>
        <mxCell id="LsLMx1Tqu1ayLNCX3tlf-232" value="list_head css_sets" style="text;strokeColor=#C73500;fillColor=#fa6800;spacingLeft=4;spacingRight=4;overflow=hidden;rotatable=0;points=[[0,0.5],[1,0.5]];portConstraint=eastwest;fontSize=12;fontColor=#ffffff;" parent="LsLMx1Tqu1ayLNCX3tlf-226" vertex="1">
          <mxGeometry y="150" width="260" height="26" as="geometry" />
        </mxCell>
        <mxCell id="LsLMx1Tqu1ayLNCX3tlf-233" value="cgroupfs_root *root" style="text;strokeColor=none;fillColor=none;spacingLeft=4;spacingRight=4;overflow=hidden;rotatable=0;points=[[0,0.5],[1,0.5]];portConstraint=eastwest;fontSize=12;" parent="LsLMx1Tqu1ayLNCX3tlf-226" vertex="1">
          <mxGeometry y="176" width="260" height="26" as="geometry" />
        </mxCell>
        <mxCell id="LsLMx1Tqu1ayLNCX3tlf-234" style="rounded=1;orthogonalLoop=1;jettySize=auto;html=1;exitX=0;exitY=0.5;exitDx=0;exitDy=0;entryX=-0.009;entryY=0.008;entryDx=0;entryDy=0;entryPerimeter=0;startArrow=none;startFill=0;endArrow=block;endFill=1;strokeWidth=1;edgeStyle=orthogonalEdgeStyle;" parent="1" source="LsLMx1Tqu1ayLNCX3tlf-227" target="LsLMx1Tqu1ayLNCX3tlf-192" edge="1">
          <mxGeometry relative="1" as="geometry">
            <Array as="points">
              <mxPoint x="1590" y="349" />
              <mxPoint x="1590" y="6" />
            </Array>
          </mxGeometry>
        </mxCell>
        <mxCell id="LsLMx1Tqu1ayLNCX3tlf-235" value="blkcg" style="swimlane;fontStyle=0;childLayout=stackLayout;horizontal=1;startSize=26;fillColor=#e1d5e7;horizontalStack=0;resizeParent=1;resizeParentMax=0;resizeLast=0;collapsible=1;marginBottom=0;swimlaneFillColor=#ffffff;align=center;fontSize=14;strokeColor=#9673a6;" parent="1" vertex="1">
          <mxGeometry x="1230" y="90" width="260" height="130" as="geometry" />
        </mxCell>
        <mxCell id="LsLMx1Tqu1ayLNCX3tlf-236" value="struct cgroup_subsys_state css" style="swimlane;fontStyle=0;childLayout=stackLayout;horizontal=1;startSize=26;fillColor=#fff2cc;horizontalStack=0;resizeParent=1;resizeParentMax=0;resizeLast=0;collapsible=1;marginBottom=0;swimlaneFillColor=#ffffff;align=center;fontSize=14;strokeColor=#d6b656;" parent="LsLMx1Tqu1ayLNCX3tlf-235" vertex="1">
          <mxGeometry y="26" width="260" height="78" as="geometry" />
        </mxCell>
        <mxCell id="LsLMx1Tqu1ayLNCX3tlf-237" value="cgroup *cgroup" style="text;strokeColor=none;fillColor=none;spacingLeft=4;spacingRight=4;overflow=hidden;rotatable=0;points=[[0,0.5],[1,0.5]];portConstraint=eastwest;fontSize=12;" parent="LsLMx1Tqu1ayLNCX3tlf-236" vertex="1">
          <mxGeometry y="26" width="260" height="26" as="geometry" />
        </mxCell>
        <mxCell id="LsLMx1Tqu1ayLNCX3tlf-280" value="css_id *id" style="text;strokeColor=none;fillColor=none;spacingLeft=4;spacingRight=4;overflow=hidden;rotatable=0;points=[[0,0.5],[1,0.5]];portConstraint=eastwest;fontSize=12;" parent="LsLMx1Tqu1ayLNCX3tlf-236" vertex="1">
          <mxGeometry y="52" width="260" height="26" as="geometry" />
        </mxCell>
        <mxCell id="LsLMx1Tqu1ayLNCX3tlf-238" value="private" style="text;strokeColor=none;fillColor=none;spacingLeft=4;spacingRight=4;overflow=hidden;rotatable=0;points=[[0,0.5],[1,0.5]];portConstraint=eastwest;fontSize=12;" parent="LsLMx1Tqu1ayLNCX3tlf-235" vertex="1">
          <mxGeometry y="104" width="260" height="26" as="geometry" />
        </mxCell>
        <mxCell id="LsLMx1Tqu1ayLNCX3tlf-239" value="blkcg" style="swimlane;fontStyle=0;childLayout=stackLayout;horizontal=1;startSize=26;fillColor=#e1d5e7;horizontalStack=0;resizeParent=1;resizeParentMax=0;resizeLast=0;collapsible=1;marginBottom=0;swimlaneFillColor=#ffffff;align=center;fontSize=14;strokeColor=#9673a6;" parent="1" vertex="1">
          <mxGeometry x="1240" y="344.5" width="260" height="130" as="geometry" />
        </mxCell>
        <mxCell id="LsLMx1Tqu1ayLNCX3tlf-240" value="struct cgroup_subsys_state css" style="swimlane;fontStyle=0;childLayout=stackLayout;horizontal=1;startSize=26;fillColor=#fff2cc;horizontalStack=0;resizeParent=1;resizeParentMax=0;resizeLast=0;collapsible=1;marginBottom=0;swimlaneFillColor=#ffffff;align=center;fontSize=14;strokeColor=#d6b656;" parent="LsLMx1Tqu1ayLNCX3tlf-239" vertex="1">
          <mxGeometry y="26" width="260" height="78" as="geometry" />
        </mxCell>
        <mxCell id="LsLMx1Tqu1ayLNCX3tlf-268" value="cgroup *cgroup" style="text;strokeColor=none;fillColor=none;spacingLeft=4;spacingRight=4;overflow=hidden;rotatable=0;points=[[0,0.5],[1,0.5]];portConstraint=eastwest;fontSize=12;" parent="LsLMx1Tqu1ayLNCX3tlf-240" vertex="1">
          <mxGeometry y="26" width="260" height="26" as="geometry" />
        </mxCell>
        <mxCell id="LsLMx1Tqu1ayLNCX3tlf-279" value="css_id *id" style="text;strokeColor=none;fillColor=none;spacingLeft=4;spacingRight=4;overflow=hidden;rotatable=0;points=[[0,0.5],[1,0.5]];portConstraint=eastwest;fontSize=12;" parent="LsLMx1Tqu1ayLNCX3tlf-240" vertex="1">
          <mxGeometry y="52" width="260" height="26" as="geometry" />
        </mxCell>
        <mxCell id="LsLMx1Tqu1ayLNCX3tlf-242" value="private" style="text;strokeColor=none;fillColor=none;spacingLeft=4;spacingRight=4;overflow=hidden;rotatable=0;points=[[0,0.5],[1,0.5]];portConstraint=eastwest;fontSize=12;" parent="LsLMx1Tqu1ayLNCX3tlf-239" vertex="1">
          <mxGeometry y="104" width="260" height="26" as="geometry" />
        </mxCell>
        <mxCell id="LsLMx1Tqu1ayLNCX3tlf-243" style="edgeStyle=orthogonalEdgeStyle;rounded=0;orthogonalLoop=1;jettySize=auto;html=1;exitX=0;exitY=0.5;exitDx=0;exitDy=0;entryX=1;entryY=0.25;entryDx=0;entryDy=0;startArrow=none;startFill=0;endArrow=block;endFill=1;strokeWidth=1;" parent="1" source="LsLMx1Tqu1ayLNCX3tlf-198" target="LsLMx1Tqu1ayLNCX3tlf-236" edge="1">
          <mxGeometry relative="1" as="geometry" />
        </mxCell>
        <mxCell id="LsLMx1Tqu1ayLNCX3tlf-244" style="edgeStyle=orthogonalEdgeStyle;rounded=0;orthogonalLoop=1;jettySize=auto;html=1;exitX=0;exitY=0.5;exitDx=0;exitDy=0;entryX=1.001;entryY=0.122;entryDx=0;entryDy=0;startArrow=none;startFill=0;endArrow=block;endFill=1;strokeWidth=1;entryPerimeter=0;" parent="1" source="LsLMx1Tqu1ayLNCX3tlf-231" target="LsLMx1Tqu1ayLNCX3tlf-240" edge="1">
          <mxGeometry relative="1" as="geometry" />
        </mxCell>
        <mxCell id="LsLMx1Tqu1ayLNCX3tlf-245" style="orthogonalLoop=1;jettySize=auto;html=1;exitX=0;exitY=0.5;exitDx=0;exitDy=0;entryX=0.995;entryY=0.003;entryDx=0;entryDy=0;startArrow=none;startFill=0;endArrow=block;endFill=1;strokeWidth=2;fillColor=#a20025;strokeColor=#6F0000;entryPerimeter=0;edgeStyle=orthogonalEdgeStyle;" parent="1" source="LsLMx1Tqu1ayLNCX3tlf-157" target="LsLMx1Tqu1ayLNCX3tlf-93" edge="1">
          <mxGeometry relative="1" as="geometry">
            <Array as="points">
              <mxPoint x="960" y="847" />
              <mxPoint x="960" y="962" />
            </Array>
          </mxGeometry>
        </mxCell>
        <mxCell id="LsLMx1Tqu1ayLNCX3tlf-246" style="edgeStyle=orthogonalEdgeStyle;rounded=0;orthogonalLoop=1;jettySize=auto;html=1;exitX=1;exitY=0.5;exitDx=0;exitDy=0;entryX=0;entryY=0;entryDx=0;entryDy=0;entryPerimeter=0;startArrow=none;startFill=0;endArrow=block;endFill=1;strokeWidth=2;" parent="1" source="LsLMx1Tqu1ayLNCX3tlf-155" target="LsLMx1Tqu1ayLNCX3tlf-226" edge="1">
          <mxGeometry relative="1" as="geometry">
            <Array as="points">
              <mxPoint x="1220" y="795" />
              <mxPoint x="1220" y="310" />
            </Array>
          </mxGeometry>
        </mxCell>
        <mxCell id="LsLMx1Tqu1ayLNCX3tlf-247" style="edgeStyle=orthogonalEdgeStyle;rounded=0;orthogonalLoop=1;jettySize=auto;html=1;exitX=0;exitY=0.5;exitDx=0;exitDy=0;entryX=0;entryY=0.25;entryDx=0;entryDy=0;startArrow=none;startFill=0;endArrow=block;endFill=1;strokeWidth=2;" parent="1" source="LsLMx1Tqu1ayLNCX3tlf-99" target="LsLMx1Tqu1ayLNCX3tlf-39" edge="1">
          <mxGeometry relative="1" as="geometry" />
        </mxCell>
        <mxCell id="LsLMx1Tqu1ayLNCX3tlf-248" style="edgeStyle=orthogonalEdgeStyle;rounded=0;orthogonalLoop=1;jettySize=auto;html=1;exitX=0;exitY=0.5;exitDx=0;exitDy=0;entryX=0;entryY=0.25;entryDx=0;entryDy=0;startArrow=none;startFill=0;endArrow=block;endFill=1;strokeWidth=1;" parent="1" source="LsLMx1Tqu1ayLNCX3tlf-176" target="LsLMx1Tqu1ayLNCX3tlf-143" edge="1">
          <mxGeometry relative="1" as="geometry">
            <Array as="points">
              <mxPoint x="611" y="1146" />
              <mxPoint x="611" y="544" />
            </Array>
          </mxGeometry>
        </mxCell>
        <mxCell id="LsLMx1Tqu1ayLNCX3tlf-249" style="edgeStyle=orthogonalEdgeStyle;rounded=1;orthogonalLoop=1;jettySize=auto;html=1;exitX=0;exitY=0.5;exitDx=0;exitDy=0;entryX=0;entryY=0.003;entryDx=0;entryDy=0;startArrow=none;startFill=0;endArrow=block;endFill=1;strokeWidth=2;entryPerimeter=0;fillColor=#a20025;strokeColor=#6F0000;" parent="1" source="LsLMx1Tqu1ayLNCX3tlf-109" target="LsLMx1Tqu1ayLNCX3tlf-93" edge="1">
          <mxGeometry relative="1" as="geometry" />
        </mxCell>
        <mxCell id="LsLMx1Tqu1ayLNCX3tlf-250" style="edgeStyle=orthogonalEdgeStyle;rounded=1;orthogonalLoop=1;jettySize=auto;html=1;exitX=0;exitY=0.5;exitDx=0;exitDy=0;entryX=1.005;entryY=-0.009;entryDx=0;entryDy=0;startArrow=none;startFill=0;endArrow=block;endFill=1;strokeWidth=2;entryPerimeter=0;fillColor=#a20025;strokeColor=#6F0000;" parent="1" source="LsLMx1Tqu1ayLNCX3tlf-219" target="LsLMx1Tqu1ayLNCX3tlf-178" edge="1">
          <mxGeometry relative="1" as="geometry">
            <Array as="points">
              <mxPoint x="1330" y="845" />
              <mxPoint x="1330" y="958" />
            </Array>
          </mxGeometry>
        </mxCell>
        <mxCell id="LsLMx1Tqu1ayLNCX3tlf-251" style="edgeStyle=orthogonalEdgeStyle;rounded=1;orthogonalLoop=1;jettySize=auto;html=1;exitX=1;exitY=0.5;exitDx=0;exitDy=0;entryX=0;entryY=0.5;entryDx=0;entryDy=0;startArrow=none;startFill=0;endArrow=block;endFill=1;strokeWidth=1;" parent="1" source="LsLMx1Tqu1ayLNCX3tlf-188" target="LsLMx1Tqu1ayLNCX3tlf-218" edge="1">
          <mxGeometry relative="1" as="geometry" />
        </mxCell>
        <mxCell id="LsLMx1Tqu1ayLNCX3tlf-252" style="edgeStyle=orthogonalEdgeStyle;rounded=1;orthogonalLoop=1;jettySize=auto;html=1;exitX=1;exitY=0.5;exitDx=0;exitDy=0;entryX=-0.004;entryY=0.01;entryDx=0;entryDy=0;entryPerimeter=0;startArrow=none;startFill=0;endArrow=block;endFill=1;strokeWidth=1;" parent="1" source="LsLMx1Tqu1ayLNCX3tlf-217" target="LsLMx1Tqu1ayLNCX3tlf-226" edge="1">
          <mxGeometry relative="1" as="geometry">
            <Array as="points">
              <mxPoint x="1700" y="793" />
              <mxPoint x="1700" y="312" />
            </Array>
          </mxGeometry>
        </mxCell>
        <mxCell id="LsLMx1Tqu1ayLNCX3tlf-253" style="edgeStyle=orthogonalEdgeStyle;rounded=1;orthogonalLoop=1;jettySize=auto;html=1;exitX=0;exitY=0.5;exitDx=0;exitDy=0;entryX=1;entryY=0.5;entryDx=0;entryDy=0;startArrow=block;startFill=1;endArrow=block;endFill=1;strokeWidth=1;" parent="1" source="LsLMx1Tqu1ayLNCX3tlf-232" target="LsLMx1Tqu1ayLNCX3tlf-216" edge="1">
          <mxGeometry relative="1" as="geometry">
            <Array as="points">
              <mxPoint x="1660" y="473" />
              <mxPoint x="1660" y="767" />
            </Array>
          </mxGeometry>
        </mxCell>
        <mxCell id="LsLMx1Tqu1ayLNCX3tlf-254" value="task_struct" style="swimlane;fontStyle=0;childLayout=stackLayout;horizontal=1;startSize=26;fillColor=#e0e0e0;horizontalStack=0;resizeParent=1;resizeParentMax=0;resizeLast=0;collapsible=1;marginBottom=0;swimlaneFillColor=#ffffff;align=center;fontSize=14;" parent="1" vertex="1">
          <mxGeometry x="630" y="1422" width="160" height="78" as="geometry" />
        </mxCell>
        <mxCell id="LsLMx1Tqu1ayLNCX3tlf-255" value="css_set * cgroups" style="text;strokeColor=none;fillColor=none;spacingLeft=4;spacingRight=4;overflow=hidden;rotatable=0;points=[[0,0.5],[1,0.5]];portConstraint=eastwest;fontSize=12;" parent="LsLMx1Tqu1ayLNCX3tlf-254" vertex="1">
          <mxGeometry y="26" width="160" height="26" as="geometry" />
        </mxCell>
        <mxCell id="LsLMx1Tqu1ayLNCX3tlf-256" value="list_head cg_list" style="text;strokeColor=#006EAF;fillColor=#1ba1e2;spacingLeft=4;spacingRight=4;overflow=hidden;rotatable=0;points=[[0,0.5],[1,0.5]];portConstraint=eastwest;fontSize=12;fontColor=#ffffff;" parent="LsLMx1Tqu1ayLNCX3tlf-254" vertex="1">
          <mxGeometry y="52" width="160" height="26" as="geometry" />
        </mxCell>
        <mxCell id="LsLMx1Tqu1ayLNCX3tlf-258" value="task_struct" style="swimlane;fontStyle=0;childLayout=stackLayout;horizontal=1;startSize=26;fillColor=#e0e0e0;horizontalStack=0;resizeParent=1;resizeParentMax=0;resizeLast=0;collapsible=1;marginBottom=0;swimlaneFillColor=#ffffff;align=center;fontSize=14;" parent="1" vertex="1">
          <mxGeometry x="1100" y="1435" width="160" height="78" as="geometry" />
        </mxCell>
        <mxCell id="LsLMx1Tqu1ayLNCX3tlf-259" value="css_set * cgroups" style="text;strokeColor=none;fillColor=none;spacingLeft=4;spacingRight=4;overflow=hidden;rotatable=0;points=[[0,0.5],[1,0.5]];portConstraint=eastwest;fontSize=12;" parent="LsLMx1Tqu1ayLNCX3tlf-258" vertex="1">
          <mxGeometry y="26" width="160" height="26" as="geometry" />
        </mxCell>
        <mxCell id="LsLMx1Tqu1ayLNCX3tlf-260" value="list_head cg_list" style="text;strokeColor=#006EAF;fillColor=#1ba1e2;spacingLeft=4;spacingRight=4;overflow=hidden;rotatable=0;points=[[0,0.5],[1,0.5]];portConstraint=eastwest;fontSize=12;fontColor=#ffffff;" parent="LsLMx1Tqu1ayLNCX3tlf-258" vertex="1">
          <mxGeometry y="52" width="160" height="26" as="geometry" />
        </mxCell>
        <mxCell id="LsLMx1Tqu1ayLNCX3tlf-262" style="edgeStyle=orthogonalEdgeStyle;orthogonalLoop=1;jettySize=auto;html=1;exitX=0;exitY=0.5;exitDx=0;exitDy=0;entryX=-0.001;entryY=0.169;entryDx=0;entryDy=0;startArrow=block;startFill=1;endArrow=block;endFill=1;strokeWidth=2;entryPerimeter=0;" parent="1" source="LsLMx1Tqu1ayLNCX3tlf-213" target="LsLMx1Tqu1ayLNCX3tlf-240" edge="1">
          <mxGeometry relative="1" as="geometry">
            <Array as="points">
              <mxPoint x="570" y="1172" />
              <mxPoint x="570" y="330" />
              <mxPoint x="1200" y="330" />
              <mxPoint x="1200" y="384" />
            </Array>
          </mxGeometry>
        </mxCell>
        <mxCell id="LsLMx1Tqu1ayLNCX3tlf-263" style="edgeStyle=orthogonalEdgeStyle;orthogonalLoop=1;jettySize=auto;html=1;exitX=1;exitY=0.5;exitDx=0;exitDy=0;startArrow=block;startFill=1;endArrow=block;endFill=1;strokeWidth=2;" parent="1" source="LsLMx1Tqu1ayLNCX3tlf-214" edge="1">
          <mxGeometry relative="1" as="geometry">
            <mxPoint x="1500" y="384" as="targetPoint" />
            <Array as="points">
              <mxPoint x="1640" y="1172" />
              <mxPoint x="1640" y="384" />
            </Array>
          </mxGeometry>
        </mxCell>
        <mxCell id="LsLMx1Tqu1ayLNCX3tlf-269" style="edgeStyle=orthogonalEdgeStyle;orthogonalLoop=1;jettySize=auto;html=1;exitX=1;exitY=0.5;exitDx=0;exitDy=0;entryX=0;entryY=0.5;entryDx=0;entryDy=0;startArrow=block;startFill=1;endArrow=block;endFill=1;strokeWidth=2;" parent="1" source="LsLMx1Tqu1ayLNCX3tlf-112" target="LsLMx1Tqu1ayLNCX3tlf-256" edge="1">
          <mxGeometry relative="1" as="geometry" />
        </mxCell>
        <mxCell id="LsLMx1Tqu1ayLNCX3tlf-270" style="edgeStyle=orthogonalEdgeStyle;orthogonalLoop=1;jettySize=auto;html=1;exitX=1;exitY=0.5;exitDx=0;exitDy=0;entryX=0;entryY=0.5;entryDx=0;entryDy=0;startArrow=block;startFill=1;endArrow=block;endFill=1;strokeWidth=2;" parent="1" source="LsLMx1Tqu1ayLNCX3tlf-185" target="LsLMx1Tqu1ayLNCX3tlf-260" edge="1">
          <mxGeometry relative="1" as="geometry" />
        </mxCell>
        <mxCell id="LsLMx1Tqu1ayLNCX3tlf-271" style="edgeStyle=orthogonalEdgeStyle;orthogonalLoop=1;jettySize=auto;html=1;exitX=1;exitY=0.5;exitDx=0;exitDy=0;entryX=0;entryY=0.5;entryDx=0;entryDy=0;startArrow=block;startFill=1;endArrow=block;endFill=1;strokeWidth=2;" parent="1" source="LsLMx1Tqu1ayLNCX3tlf-260" target="LsLMx1Tqu1ayLNCX3tlf-132" edge="1">
          <mxGeometry relative="1" as="geometry" />
        </mxCell>
        <mxCell id="BQZDMbGivmGI0cXqyhgK-14" style="edgeStyle=none;rounded=0;orthogonalLoop=1;jettySize=auto;html=1;exitX=0.5;exitY=1;exitDx=0;exitDy=0;entryX=0;entryY=0;entryDx=0;entryDy=0;fillColor=#fff2cc;strokeColor=#d6b656;" parent="1" source="BQZDMbGivmGI0cXqyhgK-2" target="BQZDMbGivmGI0cXqyhgK-6" edge="1">
          <mxGeometry relative="1" as="geometry" />
        </mxCell>
        <mxCell id="BQZDMbGivmGI0cXqyhgK-15" style="edgeStyle=none;rounded=0;orthogonalLoop=1;jettySize=auto;html=1;exitX=0;exitY=1;exitDx=0;exitDy=0;" parent="1" source="BQZDMbGivmGI0cXqyhgK-2" target="BQZDMbGivmGI0cXqyhgK-3" edge="1">
          <mxGeometry relative="1" as="geometry" />
        </mxCell>
        <mxCell id="BQZDMbGivmGI0cXqyhgK-16" style="edgeStyle=none;rounded=0;orthogonalLoop=1;jettySize=auto;html=1;exitX=0.5;exitY=1;exitDx=0;exitDy=0;" parent="1" source="BQZDMbGivmGI0cXqyhgK-2" target="BQZDMbGivmGI0cXqyhgK-4" edge="1">
          <mxGeometry relative="1" as="geometry" />
        </mxCell>
        <mxCell id="BQZDMbGivmGI0cXqyhgK-17" style="edgeStyle=none;rounded=0;orthogonalLoop=1;jettySize=auto;html=1;exitX=1;exitY=1;exitDx=0;exitDy=0;entryX=0.25;entryY=0;entryDx=0;entryDy=0;" parent="1" source="BQZDMbGivmGI0cXqyhgK-2" target="BQZDMbGivmGI0cXqyhgK-5" edge="1">
          <mxGeometry relative="1" as="geometry" />
        </mxCell>
        <mxCell id="BQZDMbGivmGI0cXqyhgK-2" value="cgroup" style="ellipse;whiteSpace=wrap;html=1;" parent="1" vertex="1">
          <mxGeometry x="880" y="1970" width="120" height="80" as="geometry" />
        </mxCell>
        <mxCell id="BQZDMbGivmGI0cXqyhgK-3" value="mem" style="rounded=0;whiteSpace=wrap;html=1;" parent="1" vertex="1">
          <mxGeometry x="680" y="2160" width="120" height="60" as="geometry" />
        </mxCell>
        <mxCell id="BQZDMbGivmGI0cXqyhgK-4" value="blkio" style="rounded=0;whiteSpace=wrap;html=1;" parent="1" vertex="1">
          <mxGeometry x="880" y="2160" width="120" height="60" as="geometry" />
        </mxCell>
        <mxCell id="BQZDMbGivmGI0cXqyhgK-5" value="cpu" style="rounded=0;whiteSpace=wrap;html=1;" parent="1" vertex="1">
          <mxGeometry x="1080" y="2160" width="120" height="60" as="geometry" />
        </mxCell>
        <mxCell id="BQZDMbGivmGI0cXqyhgK-8" style="rounded=0;orthogonalLoop=1;jettySize=auto;html=1;exitX=0.5;exitY=1;exitDx=0;exitDy=0;fillColor=#fff2cc;strokeColor=#d6b656;" parent="1" source="BQZDMbGivmGI0cXqyhgK-6" target="BQZDMbGivmGI0cXqyhgK-7" edge="1">
          <mxGeometry relative="1" as="geometry" />
        </mxCell>
        <mxCell id="BQZDMbGivmGI0cXqyhgK-6" value="cgroup" style="ellipse;whiteSpace=wrap;html=1;" parent="1" vertex="1">
          <mxGeometry x="1130" y="2360" width="120" height="80" as="geometry" />
        </mxCell>
        <mxCell id="BQZDMbGivmGI0cXqyhgK-18" style="edgeStyle=none;rounded=0;orthogonalLoop=1;jettySize=auto;html=1;exitX=0;exitY=1;exitDx=0;exitDy=0;" parent="1" source="BQZDMbGivmGI0cXqyhgK-7" target="BQZDMbGivmGI0cXqyhgK-9" edge="1">
          <mxGeometry relative="1" as="geometry" />
        </mxCell>
        <mxCell id="BQZDMbGivmGI0cXqyhgK-19" style="edgeStyle=none;rounded=0;orthogonalLoop=1;jettySize=auto;html=1;exitX=0.5;exitY=1;exitDx=0;exitDy=0;entryX=0.5;entryY=0;entryDx=0;entryDy=0;" parent="1" source="BQZDMbGivmGI0cXqyhgK-7" target="BQZDMbGivmGI0cXqyhgK-10" edge="1">
          <mxGeometry relative="1" as="geometry" />
        </mxCell>
        <mxCell id="BQZDMbGivmGI0cXqyhgK-20" style="edgeStyle=none;rounded=0;orthogonalLoop=1;jettySize=auto;html=1;exitX=1;exitY=1;exitDx=0;exitDy=0;" parent="1" source="BQZDMbGivmGI0cXqyhgK-7" target="BQZDMbGivmGI0cXqyhgK-11" edge="1">
          <mxGeometry relative="1" as="geometry" />
        </mxCell>
        <mxCell id="BQZDMbGivmGI0cXqyhgK-7" value="cgroup" style="ellipse;whiteSpace=wrap;html=1;" parent="1" vertex="1">
          <mxGeometry x="960" y="2610" width="120" height="80" as="geometry" />
        </mxCell>
        <mxCell id="BQZDMbGivmGI0cXqyhgK-12" style="edgeStyle=none;rounded=0;orthogonalLoop=1;jettySize=auto;html=1;exitX=0.5;exitY=0;exitDx=0;exitDy=0;entryX=0.5;entryY=1;entryDx=0;entryDy=0;" parent="1" source="BQZDMbGivmGI0cXqyhgK-9" target="BQZDMbGivmGI0cXqyhgK-3" edge="1">
          <mxGeometry relative="1" as="geometry" />
        </mxCell>
        <mxCell id="BQZDMbGivmGI0cXqyhgK-9" value="mem" style="rounded=0;whiteSpace=wrap;html=1;" parent="1" vertex="1">
          <mxGeometry x="740" y="2800" width="120" height="60" as="geometry" />
        </mxCell>
        <mxCell id="BQZDMbGivmGI0cXqyhgK-10" value="blkio" style="rounded=0;whiteSpace=wrap;html=1;" parent="1" vertex="1">
          <mxGeometry x="960" y="2800" width="120" height="60" as="geometry" />
        </mxCell>
        <mxCell id="BQZDMbGivmGI0cXqyhgK-11" value="cpu" style="rounded=0;whiteSpace=wrap;html=1;" parent="1" vertex="1">
          <mxGeometry x="1160" y="2800" width="120" height="60" as="geometry" />
        </mxCell>
        <mxCell id="BQZDMbGivmGI0cXqyhgK-13" value="parent_mem_cgroup" style="text;html=1;strokeColor=none;fillColor=none;align=center;verticalAlign=middle;whiteSpace=wrap;rounded=0;" parent="1" vertex="1">
          <mxGeometry x="620" y="2530" width="140" height="20" as="geometry" />
        </mxCell>
        <mxCell id="BQZDMbGivmGI0cXqyhgK-22" value="inode" style="swimlane;fontStyle=0;childLayout=stackLayout;horizontal=1;startSize=26;horizontalStack=0;resizeParent=1;resizeParentMax=0;resizeLast=0;collapsible=1;marginBottom=0;align=center;fontSize=14;" parent="1" vertex="1">
          <mxGeometry x="2240" y="2870" width="160" height="116" as="geometry" />
        </mxCell>
        <mxCell id="BQZDMbGivmGI0cXqyhgK-23" value="i_blkcg_css" style="text;strokeColor=none;fillColor=none;spacingLeft=4;spacingRight=4;overflow=hidden;rotatable=0;points=[[0,0.5],[1,0.5]];portConstraint=eastwest;fontSize=12;" parent="BQZDMbGivmGI0cXqyhgK-22" vertex="1">
          <mxGeometry y="26" width="160" height="30" as="geometry" />
        </mxCell>
        <mxCell id="BQZDMbGivmGI0cXqyhgK-24" value="Item 2" style="text;strokeColor=none;fillColor=none;spacingLeft=4;spacingRight=4;overflow=hidden;rotatable=0;points=[[0,0.5],[1,0.5]];portConstraint=eastwest;fontSize=12;" parent="BQZDMbGivmGI0cXqyhgK-22" vertex="1">
          <mxGeometry y="56" width="160" height="30" as="geometry" />
        </mxCell>
        <mxCell id="BQZDMbGivmGI0cXqyhgK-59" value="mapping.backing_dev_info" style="text;strokeColor=none;fillColor=none;spacingLeft=4;spacingRight=4;overflow=hidden;rotatable=0;points=[[0,0.5],[1,0.5]];portConstraint=eastwest;fontSize=12;" parent="BQZDMbGivmGI0cXqyhgK-22" vertex="1">
          <mxGeometry y="86" width="160" height="30" as="geometry" />
        </mxCell>
        <mxCell id="BQZDMbGivmGI0cXqyhgK-26" style="edgeStyle=orthogonalEdgeStyle;rounded=0;orthogonalLoop=1;jettySize=auto;html=1;exitX=0;exitY=0.5;exitDx=0;exitDy=0;entryX=0;entryY=0.5;entryDx=0;entryDy=0;" parent="1" source="BQZDMbGivmGI0cXqyhgK-23" target="BQZDMbGivmGI0cXqyhgK-28" edge="1">
          <mxGeometry relative="1" as="geometry">
            <mxPoint x="2490" y="2639" as="targetPoint" />
            <mxPoint x="2209.9999999999995" y="2870" as="sourcePoint" />
            <Array as="points">
              <mxPoint x="2000" y="2911" />
              <mxPoint x="2000" y="2651" />
            </Array>
          </mxGeometry>
        </mxCell>
        <mxCell id="BQZDMbGivmGI0cXqyhgK-39" style="edgeStyle=entityRelationEdgeStyle;rounded=0;orthogonalLoop=1;jettySize=auto;html=1;exitX=1;exitY=0;exitDx=0;exitDy=0;entryX=0;entryY=0;entryDx=0;entryDy=0;" parent="1" source="BQZDMbGivmGI0cXqyhgK-31" target="BQZDMbGivmGI0cXqyhgK-81" edge="1">
          <mxGeometry relative="1" as="geometry" />
        </mxCell>
        <mxCell id="BQZDMbGivmGI0cXqyhgK-31" value="process" style="rounded=0;whiteSpace=wrap;html=1;" parent="1" vertex="1">
          <mxGeometry x="2780" y="2941" width="120" height="60" as="geometry" />
        </mxCell>
        <mxCell id="BQZDMbGivmGI0cXqyhgK-45" style="edgeStyle=none;rounded=0;orthogonalLoop=1;jettySize=auto;html=1;entryX=0;entryY=0.5;entryDx=0;entryDy=0;" parent="1" source="BQZDMbGivmGI0cXqyhgK-32" target="BQZDMbGivmGI0cXqyhgK-43" edge="1">
          <mxGeometry relative="1" as="geometry" />
        </mxCell>
        <mxCell id="BQZDMbGivmGI0cXqyhgK-32" value="process" style="rounded=0;whiteSpace=wrap;html=1;" parent="1" vertex="1">
          <mxGeometry x="2410" y="3210" width="120" height="60" as="geometry" />
        </mxCell>
        <mxCell id="BQZDMbGivmGI0cXqyhgK-34" value="" style="shape=flexArrow;endArrow=classic;html=1;fillColor=#dae8fc;strokeColor=#6c8ebf;" parent="1" edge="1">
          <mxGeometry width="50" height="50" relative="1" as="geometry">
            <mxPoint x="2740" y="2970" as="sourcePoint" />
            <mxPoint x="2480" y="2970" as="targetPoint" />
          </mxGeometry>
        </mxCell>
        <mxCell id="BQZDMbGivmGI0cXqyhgK-35" value="产生脏页" style="text;html=1;strokeColor=none;fillColor=none;align=center;verticalAlign=middle;whiteSpace=wrap;rounded=0;" parent="1" vertex="1">
          <mxGeometry x="2660" y="2941" width="130" height="20" as="geometry" />
        </mxCell>
        <mxCell id="BQZDMbGivmGI0cXqyhgK-36" value="" style="shape=flexArrow;endArrow=classic;html=1;fillColor=#f8cecc;strokeColor=#b85450;" parent="1" edge="1">
          <mxGeometry width="50" height="50" relative="1" as="geometry">
            <mxPoint x="2490" y="3190" as="sourcePoint" />
            <mxPoint x="2380" y="3040" as="targetPoint" />
          </mxGeometry>
        </mxCell>
        <mxCell id="BQZDMbGivmGI0cXqyhgK-37" value="产生脏页" style="text;html=1;strokeColor=none;fillColor=none;align=center;verticalAlign=middle;whiteSpace=wrap;rounded=0;" parent="1" vertex="1">
          <mxGeometry x="2440" y="3110" width="130" height="20" as="geometry" />
        </mxCell>
        <mxCell id="BQZDMbGivmGI0cXqyhgK-40" value="" style="shape=flexArrow;endArrow=classic;html=1;fillColor=#dae8fc;strokeColor=#6c8ebf;" parent="1" edge="1">
          <mxGeometry width="50" height="50" relative="1" as="geometry">
            <mxPoint x="2500" y="2930" as="sourcePoint" />
            <mxPoint x="2830" y="2780" as="targetPoint" />
          </mxGeometry>
        </mxCell>
        <mxCell id="BQZDMbGivmGI0cXqyhgK-41" value="统计脏页" style="text;html=1;strokeColor=none;fillColor=none;align=center;verticalAlign=middle;whiteSpace=wrap;rounded=0;" parent="1" vertex="1">
          <mxGeometry x="2630" y="2860" width="130" height="20" as="geometry" />
        </mxCell>
        <mxCell id="BQZDMbGivmGI0cXqyhgK-42" value="" style="shape=flexArrow;endArrow=classic;html=1;fillColor=#f8cecc;strokeColor=#b85450;entryX=-0.016;entryY=0.131;entryDx=0;entryDy=0;entryPerimeter=0;" parent="1" target="BQZDMbGivmGI0cXqyhgK-43" edge="1">
          <mxGeometry width="50" height="50" relative="1" as="geometry">
            <mxPoint x="2420" y="3030" as="sourcePoint" />
            <mxPoint x="2880" y="3190" as="targetPoint" />
          </mxGeometry>
        </mxCell>
        <mxCell id="BQZDMbGivmGI0cXqyhgK-43" value="memcg" style="rounded=1;whiteSpace=wrap;html=1;" parent="1" vertex="1">
          <mxGeometry x="2690" y="3130" width="120" height="60" as="geometry" />
        </mxCell>
        <mxCell id="BQZDMbGivmGI0cXqyhgK-44" value="统计脏页" style="text;html=1;strokeColor=none;fillColor=none;align=center;verticalAlign=middle;whiteSpace=wrap;rounded=0;" parent="1" vertex="1">
          <mxGeometry x="2590" y="3070" width="130" height="20" as="geometry" />
        </mxCell>
        <mxCell id="BQZDMbGivmGI0cXqyhgK-46" value="inode_blkcg_css" style="text;html=1;strokeColor=none;fillColor=none;align=center;verticalAlign=middle;whiteSpace=wrap;rounded=0;" parent="1" vertex="1">
          <mxGeometry x="2020" y="2918" width="130" height="20" as="geometry" />
        </mxCell>
        <mxCell id="BQZDMbGivmGI0cXqyhgK-51" style="edgeStyle=orthogonalEdgeStyle;rounded=0;orthogonalLoop=1;jettySize=auto;html=1;exitX=0;exitY=0.5;exitDx=0;exitDy=0;entryX=0;entryY=0.5;entryDx=0;entryDy=0;" parent="1" source="BQZDMbGivmGI0cXqyhgK-48" target="BQZDMbGivmGI0cXqyhgK-54" edge="1">
          <mxGeometry relative="1" as="geometry">
            <mxPoint x="2190" y="2843" as="targetPoint" />
            <mxPoint x="1909.9999999999995" y="3074" as="sourcePoint" />
          </mxGeometry>
        </mxCell>
        <mxCell id="BQZDMbGivmGI0cXqyhgK-52" value="inode_blkcg_css" style="text;html=1;strokeColor=none;fillColor=none;align=center;verticalAlign=middle;whiteSpace=wrap;rounded=0;" parent="1" vertex="1">
          <mxGeometry x="1680" y="3090" width="130" height="20" as="geometry" />
        </mxCell>
        <mxCell id="BQZDMbGivmGI0cXqyhgK-47" value="inode" style="swimlane;fontStyle=0;childLayout=stackLayout;horizontal=1;startSize=26;horizontalStack=0;resizeParent=1;resizeParentMax=0;resizeLast=0;collapsible=1;marginBottom=0;align=center;fontSize=14;" parent="1" vertex="1">
          <mxGeometry x="1940" y="3074" width="160" height="116" as="geometry" />
        </mxCell>
        <mxCell id="BQZDMbGivmGI0cXqyhgK-48" value="i_blkcg_css" style="text;strokeColor=none;fillColor=none;spacingLeft=4;spacingRight=4;overflow=hidden;rotatable=0;points=[[0,0.5],[1,0.5]];portConstraint=eastwest;fontSize=12;" parent="BQZDMbGivmGI0cXqyhgK-47" vertex="1">
          <mxGeometry y="26" width="160" height="30" as="geometry" />
        </mxCell>
        <mxCell id="BQZDMbGivmGI0cXqyhgK-49" value="Item 2" style="text;strokeColor=none;fillColor=none;spacingLeft=4;spacingRight=4;overflow=hidden;rotatable=0;points=[[0,0.5],[1,0.5]];portConstraint=eastwest;fontSize=12;" parent="BQZDMbGivmGI0cXqyhgK-47" vertex="1">
          <mxGeometry y="56" width="160" height="30" as="geometry" />
        </mxCell>
        <mxCell id="BQZDMbGivmGI0cXqyhgK-50" value="mapping.backing_dev_info" style="text;strokeColor=none;fillColor=none;spacingLeft=4;spacingRight=4;overflow=hidden;rotatable=0;points=[[0,0.5],[1,0.5]];portConstraint=eastwest;fontSize=12;" parent="BQZDMbGivmGI0cXqyhgK-47" vertex="1">
          <mxGeometry y="86" width="160" height="30" as="geometry" />
        </mxCell>
        <mxCell id="BQZDMbGivmGI0cXqyhgK-57" value="bdi" style="rounded=0;whiteSpace=wrap;html=1;" parent="1" vertex="1">
          <mxGeometry x="2170" y="3320" width="120" height="60" as="geometry" />
        </mxCell>
        <mxCell id="BQZDMbGivmGI0cXqyhgK-58" style="edgeStyle=orthogonalEdgeStyle;rounded=0;orthogonalLoop=1;jettySize=auto;html=1;exitX=1;exitY=0.5;exitDx=0;exitDy=0;entryX=0.5;entryY=0;entryDx=0;entryDy=0;" parent="1" source="BQZDMbGivmGI0cXqyhgK-50" target="BQZDMbGivmGI0cXqyhgK-57" edge="1">
          <mxGeometry relative="1" as="geometry" />
        </mxCell>
        <mxCell id="BQZDMbGivmGI0cXqyhgK-60" style="edgeStyle=orthogonalEdgeStyle;rounded=0;orthogonalLoop=1;jettySize=auto;html=1;exitX=0;exitY=0.5;exitDx=0;exitDy=0;entryX=0.75;entryY=0;entryDx=0;entryDy=0;" parent="1" source="BQZDMbGivmGI0cXqyhgK-59" target="BQZDMbGivmGI0cXqyhgK-57" edge="1">
          <mxGeometry relative="1" as="geometry" />
        </mxCell>
        <mxCell id="BQZDMbGivmGI0cXqyhgK-53" value="blkcg" style="swimlane;fontStyle=0;childLayout=stackLayout;horizontal=1;startSize=26;horizontalStack=0;resizeParent=1;resizeParentMax=0;resizeLast=0;collapsible=1;marginBottom=0;align=center;fontSize=14;" parent="1" vertex="1">
          <mxGeometry x="1710" y="2941" width="160" height="116" as="geometry" />
        </mxCell>
        <mxCell id="BQZDMbGivmGI0cXqyhgK-54" value="cgroup_subsys_state css" style="text;strokeColor=none;fillColor=none;spacingLeft=4;spacingRight=4;overflow=hidden;rotatable=0;points=[[0,0.5],[1,0.5]];portConstraint=eastwest;fontSize=12;" parent="BQZDMbGivmGI0cXqyhgK-53" vertex="1">
          <mxGeometry y="26" width="160" height="30" as="geometry" />
        </mxCell>
        <mxCell id="BQZDMbGivmGI0cXqyhgK-55" value="Item 2" style="text;strokeColor=none;fillColor=none;spacingLeft=4;spacingRight=4;overflow=hidden;rotatable=0;points=[[0,0.5],[1,0.5]];portConstraint=eastwest;fontSize=12;" parent="BQZDMbGivmGI0cXqyhgK-53" vertex="1">
          <mxGeometry y="56" width="160" height="30" as="geometry" />
        </mxCell>
        <mxCell id="BQZDMbGivmGI0cXqyhgK-56" value="Item 3" style="text;strokeColor=none;fillColor=none;spacingLeft=4;spacingRight=4;overflow=hidden;rotatable=0;points=[[0,0.5],[1,0.5]];portConstraint=eastwest;fontSize=12;" parent="BQZDMbGivmGI0cXqyhgK-53" vertex="1">
          <mxGeometry y="86" width="160" height="30" as="geometry" />
        </mxCell>
        <mxCell id="BQZDMbGivmGI0cXqyhgK-61" value="inode" style="swimlane;fontStyle=0;childLayout=stackLayout;horizontal=1;startSize=26;horizontalStack=0;resizeParent=1;resizeParentMax=0;resizeLast=0;collapsible=1;marginBottom=0;align=center;fontSize=14;" parent="1" vertex="1">
          <mxGeometry x="1690" y="3310" width="160" height="116" as="geometry" />
        </mxCell>
        <mxCell id="BQZDMbGivmGI0cXqyhgK-62" value="i_blkcg_css" style="text;strokeColor=none;fillColor=none;spacingLeft=4;spacingRight=4;overflow=hidden;rotatable=0;points=[[0,0.5],[1,0.5]];portConstraint=eastwest;fontSize=12;" parent="BQZDMbGivmGI0cXqyhgK-61" vertex="1">
          <mxGeometry y="26" width="160" height="30" as="geometry" />
        </mxCell>
        <mxCell id="BQZDMbGivmGI0cXqyhgK-63" value="Item 2" style="text;strokeColor=none;fillColor=none;spacingLeft=4;spacingRight=4;overflow=hidden;rotatable=0;points=[[0,0.5],[1,0.5]];portConstraint=eastwest;fontSize=12;" parent="BQZDMbGivmGI0cXqyhgK-61" vertex="1">
          <mxGeometry y="56" width="160" height="30" as="geometry" />
        </mxCell>
        <mxCell id="BQZDMbGivmGI0cXqyhgK-64" value="mapping.backing_dev_info" style="text;strokeColor=none;fillColor=none;spacingLeft=4;spacingRight=4;overflow=hidden;rotatable=0;points=[[0,0.5],[1,0.5]];portConstraint=eastwest;fontSize=12;" parent="BQZDMbGivmGI0cXqyhgK-61" vertex="1">
          <mxGeometry y="86" width="160" height="30" as="geometry" />
        </mxCell>
        <mxCell id="BQZDMbGivmGI0cXqyhgK-66" value="bdi_max_pause" style="text;html=1;strokeColor=none;fillColor=none;align=center;verticalAlign=middle;whiteSpace=wrap;rounded=0;" parent="1" vertex="1">
          <mxGeometry x="1660" y="2890" width="120" height="20" as="geometry" />
        </mxCell>
        <mxCell id="BQZDMbGivmGI0cXqyhgK-71" style="edgeStyle=orthogonalEdgeStyle;rounded=0;orthogonalLoop=1;jettySize=auto;html=1;exitX=0;exitY=0.5;exitDx=0;exitDy=0;entryX=0;entryY=0.5;entryDx=0;entryDy=0;" parent="1" source="BQZDMbGivmGI0cXqyhgK-68" target="BQZDMbGivmGI0cXqyhgK-28" edge="1">
          <mxGeometry relative="1" as="geometry">
            <Array as="points">
              <mxPoint x="2030" y="2575" />
              <mxPoint x="2030" y="2651" />
            </Array>
          </mxGeometry>
        </mxCell>
        <mxCell id="BQZDMbGivmGI0cXqyhgK-72" value="inode_blkcg_css" style="text;html=1;strokeColor=none;fillColor=none;align=center;verticalAlign=middle;whiteSpace=wrap;rounded=0;" parent="1" vertex="1">
          <mxGeometry x="2190" y="2582" width="130" height="20" as="geometry" />
        </mxCell>
        <mxCell id="BQZDMbGivmGI0cXqyhgK-67" value="inode" style="swimlane;fontStyle=0;childLayout=stackLayout;horizontal=1;startSize=26;horizontalStack=0;resizeParent=1;resizeParentMax=0;resizeLast=0;collapsible=1;marginBottom=0;align=center;fontSize=14;" parent="1" vertex="1">
          <mxGeometry x="2360" y="2534" width="160" height="116" as="geometry" />
        </mxCell>
        <mxCell id="BQZDMbGivmGI0cXqyhgK-68" value="i_blkcg_css" style="text;strokeColor=none;fillColor=none;spacingLeft=4;spacingRight=4;overflow=hidden;rotatable=0;points=[[0,0.5],[1,0.5]];portConstraint=eastwest;fontSize=12;" parent="BQZDMbGivmGI0cXqyhgK-67" vertex="1">
          <mxGeometry y="26" width="160" height="30" as="geometry" />
        </mxCell>
        <mxCell id="BQZDMbGivmGI0cXqyhgK-69" value="Item 2" style="text;strokeColor=none;fillColor=none;spacingLeft=4;spacingRight=4;overflow=hidden;rotatable=0;points=[[0,0.5],[1,0.5]];portConstraint=eastwest;fontSize=12;" parent="BQZDMbGivmGI0cXqyhgK-67" vertex="1">
          <mxGeometry y="56" width="160" height="30" as="geometry" />
        </mxCell>
        <mxCell id="BQZDMbGivmGI0cXqyhgK-70" value="mapping.backing_dev_info" style="text;strokeColor=none;fillColor=none;spacingLeft=4;spacingRight=4;overflow=hidden;rotatable=0;points=[[0,0.5],[1,0.5]];portConstraint=eastwest;fontSize=12;" parent="BQZDMbGivmGI0cXqyhgK-67" vertex="1">
          <mxGeometry y="86" width="160" height="30" as="geometry" />
        </mxCell>
        <mxCell id="BQZDMbGivmGI0cXqyhgK-27" value="blkcg" style="swimlane;fontStyle=0;childLayout=stackLayout;horizontal=1;startSize=26;horizontalStack=0;resizeParent=1;resizeParentMax=0;resizeLast=0;collapsible=1;marginBottom=0;align=center;fontSize=14;" parent="1" vertex="1">
          <mxGeometry x="2070" y="2610" width="160" height="262" as="geometry" />
        </mxCell>
        <mxCell id="BQZDMbGivmGI0cXqyhgK-28" value="cgroup_subsys_state css" style="text;strokeColor=none;fillColor=none;spacingLeft=4;spacingRight=4;overflow=hidden;rotatable=0;points=[[0,0.5],[1,0.5]];portConstraint=eastwest;fontSize=12;" parent="BQZDMbGivmGI0cXqyhgK-27" vertex="1">
          <mxGeometry y="26" width="160" height="30" as="geometry" />
        </mxCell>
        <mxCell id="BQZDMbGivmGI0cXqyhgK-73" value="stat" style="swimlane;fontStyle=0;childLayout=stackLayout;horizontal=1;startSize=26;horizontalStack=0;resizeParent=1;resizeParentMax=0;resizeLast=0;collapsible=1;marginBottom=0;align=center;fontSize=14;rounded=1;fillColor=#fff2cc;strokeColor=#d6b656;" parent="BQZDMbGivmGI0cXqyhgK-27" vertex="1">
          <mxGeometry y="56" width="160" height="146" as="geometry" />
        </mxCell>
        <mxCell id="BQZDMbGivmGI0cXqyhgK-74" value="BLKCG_RECLAIMABLE" style="text;strokeColor=none;fillColor=none;spacingLeft=4;spacingRight=4;overflow=hidden;rotatable=0;points=[[0,0.5],[1,0.5]];portConstraint=eastwest;fontSize=12;" parent="BQZDMbGivmGI0cXqyhgK-73" vertex="1">
          <mxGeometry y="26" width="160" height="30" as="geometry" />
        </mxCell>
        <mxCell id="BQZDMbGivmGI0cXqyhgK-75" value="BLKCG_WRITEBACK" style="text;strokeColor=none;fillColor=none;spacingLeft=4;spacingRight=4;overflow=hidden;rotatable=0;points=[[0,0.5],[1,0.5]];portConstraint=eastwest;fontSize=12;" parent="BQZDMbGivmGI0cXqyhgK-73" vertex="1">
          <mxGeometry y="56" width="160" height="30" as="geometry" />
        </mxCell>
        <mxCell id="BQZDMbGivmGI0cXqyhgK-76" value="BLKCG_WRITTEN" style="text;strokeColor=none;fillColor=none;spacingLeft=4;spacingRight=4;overflow=hidden;rotatable=0;points=[[0,0.5],[1,0.5]];portConstraint=eastwest;fontSize=12;" parent="BQZDMbGivmGI0cXqyhgK-73" vertex="1">
          <mxGeometry y="86" width="160" height="30" as="geometry" />
        </mxCell>
        <mxCell id="BQZDMbGivmGI0cXqyhgK-78" value="BLKCG_DIRTIED" style="text;strokeColor=none;fillColor=none;spacingLeft=4;spacingRight=4;overflow=hidden;rotatable=0;points=[[0,0.5],[1,0.5]];portConstraint=eastwest;fontSize=12;" parent="BQZDMbGivmGI0cXqyhgK-73" vertex="1">
          <mxGeometry y="116" width="160" height="30" as="geometry" />
        </mxCell>
        <mxCell id="BQZDMbGivmGI0cXqyhgK-29" value="stat" style="text;strokeColor=none;fillColor=none;spacingLeft=4;spacingRight=4;overflow=hidden;rotatable=0;points=[[0,0.5],[1,0.5]];portConstraint=eastwest;fontSize=12;" parent="BQZDMbGivmGI0cXqyhgK-27" vertex="1">
          <mxGeometry y="202" width="160" height="30" as="geometry" />
        </mxCell>
        <mxCell id="BQZDMbGivmGI0cXqyhgK-30" value="blkcg_update_dirty_ratelimit" style="text;strokeColor=#9673a6;fillColor=#e1d5e7;spacingLeft=4;spacingRight=4;overflow=hidden;rotatable=0;points=[[0,0.5],[1,0.5]];portConstraint=eastwest;fontSize=12;" parent="BQZDMbGivmGI0cXqyhgK-27" vertex="1">
          <mxGeometry y="232" width="160" height="30" as="geometry" />
        </mxCell>
        <mxCell id="BQZDMbGivmGI0cXqyhgK-80" value="memcg_dirty_limits" style="rounded=1;whiteSpace=wrap;html=1;" parent="1" vertex="1">
          <mxGeometry x="3040" y="2800" width="120" height="60" as="geometry" />
        </mxCell>
        <mxCell id="BQZDMbGivmGI0cXqyhgK-81" value="memcg" style="swimlane;fontStyle=0;childLayout=stackLayout;horizontal=1;startSize=26;horizontalStack=0;resizeParent=1;resizeParentMax=0;resizeLast=0;collapsible=1;marginBottom=0;align=center;fontSize=14;rounded=0;" parent="1" vertex="1">
          <mxGeometry x="3020" y="2670" width="160" height="116" as="geometry" />
        </mxCell>
        <mxCell id="BQZDMbGivmGI0cXqyhgK-82" value="memcg_dirty_limits" style="text;strokeColor=none;fillColor=none;spacingLeft=4;spacingRight=4;overflow=hidden;rotatable=0;points=[[0,0.5],[1,0.5]];portConstraint=eastwest;fontSize=12;" parent="BQZDMbGivmGI0cXqyhgK-81" vertex="1">
          <mxGeometry y="26" width="160" height="30" as="geometry" />
        </mxCell>
        <mxCell id="BQZDMbGivmGI0cXqyhgK-83" value="Item 2" style="text;strokeColor=none;fillColor=none;spacingLeft=4;spacingRight=4;overflow=hidden;rotatable=0;points=[[0,0.5],[1,0.5]];portConstraint=eastwest;fontSize=12;" parent="BQZDMbGivmGI0cXqyhgK-81" vertex="1">
          <mxGeometry y="56" width="160" height="30" as="geometry" />
        </mxCell>
        <mxCell id="BQZDMbGivmGI0cXqyhgK-84" value="Item 3" style="text;strokeColor=none;fillColor=none;spacingLeft=4;spacingRight=4;overflow=hidden;rotatable=0;points=[[0,0.5],[1,0.5]];portConstraint=eastwest;fontSize=12;" parent="BQZDMbGivmGI0cXqyhgK-81" vertex="1">
          <mxGeometry y="86" width="160" height="30" as="geometry" />
        </mxCell>
      </root>
    </mxGraphModel>
  </diagram>
  <diagram id="xRZ2MEO2DmEs4SqluEOH" name="Page-2">
    <mxGraphModel dx="3050" dy="1735" grid="1" gridSize="10" guides="1" tooltips="1" connect="1" arrows="1" fold="1" page="1" pageScale="1" pageWidth="827" pageHeight="1169" math="0" shadow="0">
      <root>
        <mxCell id="EJHhD8aTbCOa_s8_bxt7-0" />
        <mxCell id="EJHhD8aTbCOa_s8_bxt7-1" parent="EJHhD8aTbCOa_s8_bxt7-0" />
        <mxCell id="obweYfwGhwlTrr-pmUHf-1" value="" style="edgeStyle=orthogonalEdgeStyle;rounded=0;orthogonalLoop=1;jettySize=auto;html=1;" parent="EJHhD8aTbCOa_s8_bxt7-1" source="TH5xl-tFhGJTPuM0t2nY-0" target="obweYfwGhwlTrr-pmUHf-0" edge="1">
          <mxGeometry relative="1" as="geometry" />
        </mxCell>
        <mxCell id="TH5xl-tFhGJTPuM0t2nY-0" value="&lt;span style=&quot;font-size: 14px&quot;&gt;cgroupfs_root&lt;/span&gt;" style="rounded=0;whiteSpace=wrap;html=1;" parent="EJHhD8aTbCOa_s8_bxt7-1" vertex="1">
          <mxGeometry x="80" y="120" width="120" height="60" as="geometry" />
        </mxCell>
        <mxCell id="Sl1jCzI8982jZ_foV5vP-1" style="rounded=0;orthogonalLoop=1;jettySize=auto;html=1;exitX=1;exitY=0.25;exitDx=0;exitDy=0;entryX=0;entryY=0.5;entryDx=0;entryDy=0;" parent="EJHhD8aTbCOa_s8_bxt7-1" source="obweYfwGhwlTrr-pmUHf-0" target="Sl1jCzI8982jZ_foV5vP-0" edge="1">
          <mxGeometry relative="1" as="geometry" />
        </mxCell>
        <mxCell id="Sl1jCzI8982jZ_foV5vP-3" style="edgeStyle=none;rounded=0;orthogonalLoop=1;jettySize=auto;html=1;exitX=1;exitY=0.75;exitDx=0;exitDy=0;entryX=0;entryY=0.5;entryDx=0;entryDy=0;" parent="EJHhD8aTbCOa_s8_bxt7-1" source="obweYfwGhwlTrr-pmUHf-0" target="Sl1jCzI8982jZ_foV5vP-2" edge="1">
          <mxGeometry relative="1" as="geometry" />
        </mxCell>
        <mxCell id="ypFqXYN7M8ZGbnd8jvG--39" style="edgeStyle=orthogonalEdgeStyle;curved=1;rounded=0;orthogonalLoop=1;jettySize=auto;html=1;exitX=1;exitY=1;exitDx=0;exitDy=0;entryX=0;entryY=0.5;entryDx=0;entryDy=0;strokeWidth=1;fontSize=1;fontColor=#000000;" parent="EJHhD8aTbCOa_s8_bxt7-1" source="obweYfwGhwlTrr-pmUHf-0" target="ypFqXYN7M8ZGbnd8jvG--0" edge="1">
          <mxGeometry relative="1" as="geometry" />
        </mxCell>
        <mxCell id="obweYfwGhwlTrr-pmUHf-0" value="&lt;span style=&quot;font-size: 14px&quot;&gt;cgroup&lt;/span&gt;" style="rounded=0;whiteSpace=wrap;html=1;fillColor=#f8cecc;strokeColor=#b85450;" parent="EJHhD8aTbCOa_s8_bxt7-1" vertex="1">
          <mxGeometry x="80" y="260" width="120" height="60" as="geometry" />
        </mxCell>
        <mxCell id="Sl1jCzI8982jZ_foV5vP-0" value="mem cg" style="rounded=1;whiteSpace=wrap;html=1;" parent="EJHhD8aTbCOa_s8_bxt7-1" vertex="1">
          <mxGeometry x="287" y="200" width="120" height="60" as="geometry" />
        </mxCell>
        <mxCell id="Sl1jCzI8982jZ_foV5vP-2" value="cpu cg" style="rounded=1;whiteSpace=wrap;html=1;" parent="EJHhD8aTbCOa_s8_bxt7-1" vertex="1">
          <mxGeometry x="287" y="330" width="120" height="60" as="geometry" />
        </mxCell>
        <mxCell id="0LGjARSn-BanhxSHzqDF-0" value="" style="edgeStyle=orthogonalEdgeStyle;rounded=0;orthogonalLoop=1;jettySize=auto;html=1;" parent="EJHhD8aTbCOa_s8_bxt7-1" source="0LGjARSn-BanhxSHzqDF-1" target="0LGjARSn-BanhxSHzqDF-4" edge="1">
          <mxGeometry relative="1" as="geometry" />
        </mxCell>
        <mxCell id="0LGjARSn-BanhxSHzqDF-1" value="&lt;span style=&quot;font-size: 14px&quot;&gt;cgroupfs_root&lt;/span&gt;" style="rounded=0;whiteSpace=wrap;html=1;" parent="EJHhD8aTbCOa_s8_bxt7-1" vertex="1">
          <mxGeometry x="600" y="120" width="120" height="60" as="geometry" />
        </mxCell>
        <mxCell id="0LGjARSn-BanhxSHzqDF-2" style="rounded=0;orthogonalLoop=1;jettySize=auto;html=1;exitX=1;exitY=0.25;exitDx=0;exitDy=0;entryX=0;entryY=0.5;entryDx=0;entryDy=0;" parent="EJHhD8aTbCOa_s8_bxt7-1" source="0LGjARSn-BanhxSHzqDF-4" target="0LGjARSn-BanhxSHzqDF-5" edge="1">
          <mxGeometry relative="1" as="geometry" />
        </mxCell>
        <mxCell id="0LGjARSn-BanhxSHzqDF-3" style="edgeStyle=none;rounded=0;orthogonalLoop=1;jettySize=auto;html=1;exitX=1;exitY=0.75;exitDx=0;exitDy=0;entryX=0;entryY=0.5;entryDx=0;entryDy=0;" parent="EJHhD8aTbCOa_s8_bxt7-1" source="0LGjARSn-BanhxSHzqDF-4" target="0LGjARSn-BanhxSHzqDF-6" edge="1">
          <mxGeometry relative="1" as="geometry" />
        </mxCell>
        <mxCell id="0LGjARSn-BanhxSHzqDF-4" value="&lt;span style=&quot;font-size: 14px&quot;&gt;cgroup&lt;/span&gt;" style="rounded=0;whiteSpace=wrap;html=1;fillColor=#d5e8d4;strokeColor=#82b366;" parent="EJHhD8aTbCOa_s8_bxt7-1" vertex="1">
          <mxGeometry x="600" y="260" width="120" height="60" as="geometry" />
        </mxCell>
        <mxCell id="0LGjARSn-BanhxSHzqDF-5" value="blkio cg" style="rounded=1;whiteSpace=wrap;html=1;" parent="EJHhD8aTbCOa_s8_bxt7-1" vertex="1">
          <mxGeometry x="807" y="200" width="120" height="60" as="geometry" />
        </mxCell>
        <mxCell id="0LGjARSn-BanhxSHzqDF-6" value="net_cls cg" style="rounded=1;whiteSpace=wrap;html=1;" parent="EJHhD8aTbCOa_s8_bxt7-1" vertex="1">
          <mxGeometry x="807" y="330" width="120" height="60" as="geometry" />
        </mxCell>
        <mxCell id="ypFqXYN7M8ZGbnd8jvG--41" style="edgeStyle=orthogonalEdgeStyle;curved=1;rounded=0;orthogonalLoop=1;jettySize=auto;html=1;exitX=0;exitY=0.5;exitDx=0;exitDy=0;entryX=0;entryY=0.5;entryDx=0;entryDy=0;strokeWidth=1;fontSize=1;fontColor=#000000;" parent="EJHhD8aTbCOa_s8_bxt7-1" source="1luVWM82quDOay2rtLGy-0" target="ypFqXYN7M8ZGbnd8jvG--3" edge="1">
          <mxGeometry relative="1" as="geometry">
            <Array as="points">
              <mxPoint x="10" y="710" />
              <mxPoint x="10" y="509" />
            </Array>
          </mxGeometry>
        </mxCell>
        <mxCell id="1luVWM82quDOay2rtLGy-0" value="css_set" style="rounded=0;whiteSpace=wrap;html=1;fillColor=#fff2cc;strokeColor=#d6b656;" parent="EJHhD8aTbCOa_s8_bxt7-1" vertex="1">
          <mxGeometry x="130" y="680" width="120" height="60" as="geometry" />
        </mxCell>
        <mxCell id="1luVWM82quDOay2rtLGy-1" value="" style="curved=1;endArrow=classic;html=1;entryX=0.5;entryY=0;entryDx=0;entryDy=0;" parent="EJHhD8aTbCOa_s8_bxt7-1" target="1luVWM82quDOay2rtLGy-2" edge="1">
          <mxGeometry width="50" height="50" relative="1" as="geometry">
            <mxPoint x="190" y="740" as="sourcePoint" />
            <mxPoint x="270" y="780" as="targetPoint" />
            <Array as="points">
              <mxPoint x="210" y="790" />
              <mxPoint x="210" y="830" />
            </Array>
          </mxGeometry>
        </mxCell>
        <mxCell id="1luVWM82quDOay2rtLGy-4" value="" style="edgeStyle=none;rounded=0;orthogonalLoop=1;jettySize=auto;html=1;exitX=0.5;exitY=1;exitDx=0;exitDy=0;" parent="EJHhD8aTbCOa_s8_bxt7-1" source="1luVWM82quDOay2rtLGy-2" target="1luVWM82quDOay2rtLGy-3" edge="1">
          <mxGeometry relative="1" as="geometry" />
        </mxCell>
        <mxCell id="1luVWM82quDOay2rtLGy-2" value="task 1" style="rounded=0;whiteSpace=wrap;html=1;" parent="EJHhD8aTbCOa_s8_bxt7-1" vertex="1">
          <mxGeometry x="160" y="880" width="120" height="60" as="geometry" />
        </mxCell>
        <mxCell id="1luVWM82quDOay2rtLGy-3" value="task 2" style="rounded=0;whiteSpace=wrap;html=1;" parent="EJHhD8aTbCOa_s8_bxt7-1" vertex="1">
          <mxGeometry x="150" y="1050" width="120" height="60" as="geometry" />
        </mxCell>
        <mxCell id="ypFqXYN7M8ZGbnd8jvG--0" value="cg_cgroup_link" style="swimlane;fontStyle=0;childLayout=stackLayout;horizontal=1;startSize=26;fillColor=#e0e0e0;horizontalStack=0;resizeParent=1;resizeParentMax=0;resizeLast=0;collapsible=1;marginBottom=0;swimlaneFillColor=#ffffff;align=center;fontSize=14;" parent="EJHhD8aTbCOa_s8_bxt7-1" vertex="1">
          <mxGeometry x="107" y="470" width="160" height="130" as="geometry" />
        </mxCell>
        <mxCell id="ypFqXYN7M8ZGbnd8jvG--3" value="cset_links" style="text;strokeColor=#d6b656;fillColor=#fff2cc;spacingLeft=4;spacingRight=4;overflow=hidden;rotatable=0;points=[[0,0.5],[1,0.5]];portConstraint=eastwest;fontSize=12;" parent="ypFqXYN7M8ZGbnd8jvG--0" vertex="1">
          <mxGeometry y="26" width="160" height="26" as="geometry" />
        </mxCell>
        <mxCell id="ypFqXYN7M8ZGbnd8jvG--1" value="cgrp_links" style="text;strokeColor=#b85450;fillColor=#f8cecc;spacingLeft=4;spacingRight=4;overflow=hidden;rotatable=0;points=[[0,0.5],[1,0.5]];portConstraint=eastwest;fontSize=12;" parent="ypFqXYN7M8ZGbnd8jvG--0" vertex="1">
          <mxGeometry y="52" width="160" height="26" as="geometry" />
        </mxCell>
        <mxCell id="ypFqXYN7M8ZGbnd8jvG--10" value="cgrp" style="text;strokeColor=none;fillColor=none;spacingLeft=4;spacingRight=4;overflow=hidden;rotatable=0;points=[[0,0.5],[1,0.5]];portConstraint=eastwest;fontSize=12;" parent="ypFqXYN7M8ZGbnd8jvG--0" vertex="1">
          <mxGeometry y="78" width="160" height="26" as="geometry" />
        </mxCell>
        <mxCell id="ypFqXYN7M8ZGbnd8jvG--11" value="cset" style="text;strokeColor=none;fillColor=none;spacingLeft=4;spacingRight=4;overflow=hidden;rotatable=0;points=[[0,0.5],[1,0.5]];portConstraint=eastwest;fontSize=12;" parent="ypFqXYN7M8ZGbnd8jvG--0" vertex="1">
          <mxGeometry y="104" width="160" height="26" as="geometry" />
        </mxCell>
        <mxCell id="ypFqXYN7M8ZGbnd8jvG--4" value="css_set" style="rounded=0;whiteSpace=wrap;html=1;" parent="EJHhD8aTbCOa_s8_bxt7-1" vertex="1">
          <mxGeometry x="640" y="680" width="120" height="60" as="geometry" />
        </mxCell>
        <mxCell id="ypFqXYN7M8ZGbnd8jvG--5" value="" style="curved=1;endArrow=classic;html=1;exitX=0.25;exitY=1;exitDx=0;exitDy=0;entryX=0.5;entryY=0;entryDx=0;entryDy=0;" parent="EJHhD8aTbCOa_s8_bxt7-1" source="ypFqXYN7M8ZGbnd8jvG--4" target="ypFqXYN7M8ZGbnd8jvG--7" edge="1">
          <mxGeometry width="50" height="50" relative="1" as="geometry">
            <mxPoint x="740" y="860" as="sourcePoint" />
            <mxPoint x="780" y="820" as="targetPoint" />
            <Array as="points">
              <mxPoint x="670" y="780" />
              <mxPoint x="740" y="810" />
            </Array>
          </mxGeometry>
        </mxCell>
        <mxCell id="ypFqXYN7M8ZGbnd8jvG--6" value="" style="edgeStyle=none;rounded=0;orthogonalLoop=1;jettySize=auto;html=1;exitX=0.5;exitY=1;exitDx=0;exitDy=0;" parent="EJHhD8aTbCOa_s8_bxt7-1" source="ypFqXYN7M8ZGbnd8jvG--7" target="ypFqXYN7M8ZGbnd8jvG--8" edge="1">
          <mxGeometry relative="1" as="geometry" />
        </mxCell>
        <mxCell id="ypFqXYN7M8ZGbnd8jvG--7" value="task 1" style="rounded=0;whiteSpace=wrap;html=1;" parent="EJHhD8aTbCOa_s8_bxt7-1" vertex="1">
          <mxGeometry x="670" y="920" width="120" height="60" as="geometry" />
        </mxCell>
        <mxCell id="ypFqXYN7M8ZGbnd8jvG--8" value="task 2" style="rounded=0;whiteSpace=wrap;html=1;" parent="EJHhD8aTbCOa_s8_bxt7-1" vertex="1">
          <mxGeometry x="660" y="1090" width="120" height="60" as="geometry" />
        </mxCell>
        <mxCell id="ypFqXYN7M8ZGbnd8jvG--12" style="edgeStyle=orthogonalEdgeStyle;curved=1;rounded=0;orthogonalLoop=1;jettySize=auto;html=1;exitX=0;exitY=0.5;exitDx=0;exitDy=0;entryX=0.5;entryY=0;entryDx=0;entryDy=0;strokeWidth=1;fontColor=#000000;fontSize=1;" parent="EJHhD8aTbCOa_s8_bxt7-1" source="ypFqXYN7M8ZGbnd8jvG--11" target="1luVWM82quDOay2rtLGy-0" edge="1">
          <mxGeometry relative="1" as="geometry" />
        </mxCell>
        <mxCell id="ypFqXYN7M8ZGbnd8jvG--13" style="edgeStyle=orthogonalEdgeStyle;curved=1;rounded=0;orthogonalLoop=1;jettySize=auto;html=1;exitX=0;exitY=0.5;exitDx=0;exitDy=0;entryX=0.5;entryY=1;entryDx=0;entryDy=0;strokeWidth=1;fontSize=1;fontColor=#000000;" parent="EJHhD8aTbCOa_s8_bxt7-1" source="ypFqXYN7M8ZGbnd8jvG--10" target="obweYfwGhwlTrr-pmUHf-0" edge="1">
          <mxGeometry relative="1" as="geometry">
            <Array as="points">
              <mxPoint x="50" y="561" />
              <mxPoint x="50" y="360" />
              <mxPoint x="140" y="360" />
            </Array>
          </mxGeometry>
        </mxCell>
        <mxCell id="ypFqXYN7M8ZGbnd8jvG--14" value="cg_cgroup_link" style="swimlane;fontStyle=0;childLayout=stackLayout;horizontal=1;startSize=26;fillColor=#e0e0e0;horizontalStack=0;resizeParent=1;resizeParentMax=0;resizeLast=0;collapsible=1;marginBottom=0;swimlaneFillColor=#ffffff;align=center;fontSize=14;" parent="EJHhD8aTbCOa_s8_bxt7-1" vertex="1">
          <mxGeometry x="360" y="470" width="160" height="130" as="geometry" />
        </mxCell>
        <mxCell id="ypFqXYN7M8ZGbnd8jvG--15" value="cset_links" style="text;strokeColor=#d6b656;fillColor=#fff2cc;spacingLeft=4;spacingRight=4;overflow=hidden;rotatable=0;points=[[0,0.5],[1,0.5]];portConstraint=eastwest;fontSize=12;" parent="ypFqXYN7M8ZGbnd8jvG--14" vertex="1">
          <mxGeometry y="26" width="160" height="26" as="geometry" />
        </mxCell>
        <mxCell id="ypFqXYN7M8ZGbnd8jvG--16" value="cgrp_links" style="text;strokeColor=#82b366;fillColor=#d5e8d4;spacingLeft=4;spacingRight=4;overflow=hidden;rotatable=0;points=[[0,0.5],[1,0.5]];portConstraint=eastwest;fontSize=12;" parent="ypFqXYN7M8ZGbnd8jvG--14" vertex="1">
          <mxGeometry y="52" width="160" height="26" as="geometry" />
        </mxCell>
        <mxCell id="ypFqXYN7M8ZGbnd8jvG--17" value="cgrp" style="text;strokeColor=none;fillColor=none;spacingLeft=4;spacingRight=4;overflow=hidden;rotatable=0;points=[[0,0.5],[1,0.5]];portConstraint=eastwest;fontSize=12;" parent="ypFqXYN7M8ZGbnd8jvG--14" vertex="1">
          <mxGeometry y="78" width="160" height="26" as="geometry" />
        </mxCell>
        <mxCell id="ypFqXYN7M8ZGbnd8jvG--18" value="cset" style="text;strokeColor=none;fillColor=none;spacingLeft=4;spacingRight=4;overflow=hidden;rotatable=0;points=[[0,0.5],[1,0.5]];portConstraint=eastwest;fontSize=12;" parent="ypFqXYN7M8ZGbnd8jvG--14" vertex="1">
          <mxGeometry y="104" width="160" height="26" as="geometry" />
        </mxCell>
        <mxCell id="ypFqXYN7M8ZGbnd8jvG--19" style="edgeStyle=orthogonalEdgeStyle;curved=1;rounded=0;orthogonalLoop=1;jettySize=auto;html=1;exitX=1;exitY=0.5;exitDx=0;exitDy=0;entryX=0;entryY=0.5;entryDx=0;entryDy=0;strokeWidth=1;fontSize=1;fontColor=#000000;" parent="EJHhD8aTbCOa_s8_bxt7-1" source="ypFqXYN7M8ZGbnd8jvG--17" target="0LGjARSn-BanhxSHzqDF-4" edge="1">
          <mxGeometry relative="1" as="geometry">
            <Array as="points">
              <mxPoint x="570" y="561" />
              <mxPoint x="570" y="290" />
            </Array>
          </mxGeometry>
        </mxCell>
        <mxCell id="ypFqXYN7M8ZGbnd8jvG--20" style="edgeStyle=orthogonalEdgeStyle;curved=1;rounded=0;orthogonalLoop=1;jettySize=auto;html=1;exitX=1;exitY=0.5;exitDx=0;exitDy=0;entryX=1;entryY=0.5;entryDx=0;entryDy=0;strokeWidth=1;fontSize=1;fontColor=#000000;" parent="EJHhD8aTbCOa_s8_bxt7-1" source="ypFqXYN7M8ZGbnd8jvG--18" target="1luVWM82quDOay2rtLGy-0" edge="1">
          <mxGeometry relative="1" as="geometry">
            <Array as="points">
              <mxPoint x="570" y="587" />
              <mxPoint x="570" y="710" />
            </Array>
          </mxGeometry>
        </mxCell>
        <mxCell id="ypFqXYN7M8ZGbnd8jvG--21" value="cg_cgroup_link" style="swimlane;fontStyle=0;childLayout=stackLayout;horizontal=1;startSize=26;fillColor=#e0e0e0;horizontalStack=0;resizeParent=1;resizeParentMax=0;resizeLast=0;collapsible=1;marginBottom=0;swimlaneFillColor=#ffffff;align=center;fontSize=14;" parent="EJHhD8aTbCOa_s8_bxt7-1" vertex="1">
          <mxGeometry x="667" y="470" width="160" height="130" as="geometry" />
        </mxCell>
        <mxCell id="ypFqXYN7M8ZGbnd8jvG--22" value="cset_links" style="text;strokeColor=#6c8ebf;fillColor=#dae8fc;spacingLeft=4;spacingRight=4;overflow=hidden;rotatable=0;points=[[0,0.5],[1,0.5]];portConstraint=eastwest;fontSize=12;" parent="ypFqXYN7M8ZGbnd8jvG--21" vertex="1">
          <mxGeometry y="26" width="160" height="26" as="geometry" />
        </mxCell>
        <mxCell id="ypFqXYN7M8ZGbnd8jvG--23" value="cgrp_links" style="text;strokeColor=#b85450;fillColor=#f8cecc;spacingLeft=4;spacingRight=4;overflow=hidden;rotatable=0;points=[[0,0.5],[1,0.5]];portConstraint=eastwest;fontSize=12;" parent="ypFqXYN7M8ZGbnd8jvG--21" vertex="1">
          <mxGeometry y="52" width="160" height="26" as="geometry" />
        </mxCell>
        <mxCell id="ypFqXYN7M8ZGbnd8jvG--24" value="cgrp" style="text;strokeColor=none;fillColor=none;spacingLeft=4;spacingRight=4;overflow=hidden;rotatable=0;points=[[0,0.5],[1,0.5]];portConstraint=eastwest;fontSize=12;" parent="ypFqXYN7M8ZGbnd8jvG--21" vertex="1">
          <mxGeometry y="78" width="160" height="26" as="geometry" />
        </mxCell>
        <mxCell id="ypFqXYN7M8ZGbnd8jvG--25" value="cset" style="text;strokeColor=none;fillColor=none;spacingLeft=4;spacingRight=4;overflow=hidden;rotatable=0;points=[[0,0.5],[1,0.5]];portConstraint=eastwest;fontSize=12;" parent="ypFqXYN7M8ZGbnd8jvG--21" vertex="1">
          <mxGeometry y="104" width="160" height="26" as="geometry" />
        </mxCell>
        <mxCell id="ypFqXYN7M8ZGbnd8jvG--26" style="edgeStyle=orthogonalEdgeStyle;curved=1;rounded=0;orthogonalLoop=1;jettySize=auto;html=1;exitX=0;exitY=0.5;exitDx=0;exitDy=0;strokeWidth=1;fontSize=1;fontColor=#000000;" parent="EJHhD8aTbCOa_s8_bxt7-1" source="ypFqXYN7M8ZGbnd8jvG--25" target="ypFqXYN7M8ZGbnd8jvG--4" edge="1">
          <mxGeometry relative="1" as="geometry" />
        </mxCell>
        <mxCell id="ypFqXYN7M8ZGbnd8jvG--27" style="edgeStyle=orthogonalEdgeStyle;curved=1;rounded=0;orthogonalLoop=1;jettySize=auto;html=1;exitX=0;exitY=0.5;exitDx=0;exitDy=0;entryX=0.75;entryY=1;entryDx=0;entryDy=0;strokeWidth=1;fontSize=1;fontColor=#000000;" parent="EJHhD8aTbCOa_s8_bxt7-1" source="ypFqXYN7M8ZGbnd8jvG--24" target="obweYfwGhwlTrr-pmUHf-0" edge="1">
          <mxGeometry relative="1" as="geometry">
            <Array as="points">
              <mxPoint x="600" y="561" />
              <mxPoint x="600" y="430" />
              <mxPoint x="170" y="430" />
            </Array>
          </mxGeometry>
        </mxCell>
        <mxCell id="ypFqXYN7M8ZGbnd8jvG--28" value="cg_cgroup_link" style="swimlane;fontStyle=0;childLayout=stackLayout;horizontal=1;startSize=26;fillColor=#e0e0e0;horizontalStack=0;resizeParent=1;resizeParentMax=0;resizeLast=0;collapsible=1;marginBottom=0;swimlaneFillColor=#ffffff;align=center;fontSize=14;" parent="EJHhD8aTbCOa_s8_bxt7-1" vertex="1">
          <mxGeometry x="910" y="470" width="160" height="130" as="geometry" />
        </mxCell>
        <mxCell id="ypFqXYN7M8ZGbnd8jvG--29" value="cset_links" style="text;strokeColor=#6c8ebf;fillColor=#dae8fc;spacingLeft=4;spacingRight=4;overflow=hidden;rotatable=0;points=[[0,0.5],[1,0.5]];portConstraint=eastwest;fontSize=12;" parent="ypFqXYN7M8ZGbnd8jvG--28" vertex="1">
          <mxGeometry y="26" width="160" height="26" as="geometry" />
        </mxCell>
        <mxCell id="ypFqXYN7M8ZGbnd8jvG--30" value="cgrp_links" style="text;strokeColor=#82b366;fillColor=#d5e8d4;spacingLeft=4;spacingRight=4;overflow=hidden;rotatable=0;points=[[0,0.5],[1,0.5]];portConstraint=eastwest;fontSize=12;" parent="ypFqXYN7M8ZGbnd8jvG--28" vertex="1">
          <mxGeometry y="52" width="160" height="26" as="geometry" />
        </mxCell>
        <mxCell id="ypFqXYN7M8ZGbnd8jvG--31" value="cgrp" style="text;strokeColor=none;fillColor=none;spacingLeft=4;spacingRight=4;overflow=hidden;rotatable=0;points=[[0,0.5],[1,0.5]];portConstraint=eastwest;fontSize=12;" parent="ypFqXYN7M8ZGbnd8jvG--28" vertex="1">
          <mxGeometry y="78" width="160" height="26" as="geometry" />
        </mxCell>
        <mxCell id="ypFqXYN7M8ZGbnd8jvG--32" value="cset" style="text;strokeColor=none;fillColor=none;spacingLeft=4;spacingRight=4;overflow=hidden;rotatable=0;points=[[0,0.5],[1,0.5]];portConstraint=eastwest;fontSize=12;" parent="ypFqXYN7M8ZGbnd8jvG--28" vertex="1">
          <mxGeometry y="104" width="160" height="26" as="geometry" />
        </mxCell>
        <mxCell id="ypFqXYN7M8ZGbnd8jvG--33" style="edgeStyle=orthogonalEdgeStyle;curved=1;rounded=0;orthogonalLoop=1;jettySize=auto;html=1;exitX=0;exitY=0.5;exitDx=0;exitDy=0;entryX=0.5;entryY=1;entryDx=0;entryDy=0;strokeWidth=1;fontSize=1;fontColor=#000000;" parent="EJHhD8aTbCOa_s8_bxt7-1" source="ypFqXYN7M8ZGbnd8jvG--31" target="0LGjARSn-BanhxSHzqDF-4" edge="1">
          <mxGeometry relative="1" as="geometry">
            <Array as="points">
              <mxPoint x="890" y="561" />
              <mxPoint x="890" y="440" />
              <mxPoint x="660" y="440" />
            </Array>
          </mxGeometry>
        </mxCell>
        <mxCell id="ypFqXYN7M8ZGbnd8jvG--34" style="edgeStyle=orthogonalEdgeStyle;curved=1;rounded=0;orthogonalLoop=1;jettySize=auto;html=1;exitX=0;exitY=0.5;exitDx=0;exitDy=0;entryX=0.75;entryY=0;entryDx=0;entryDy=0;strokeWidth=1;fontSize=1;fontColor=#000000;" parent="EJHhD8aTbCOa_s8_bxt7-1" source="ypFqXYN7M8ZGbnd8jvG--32" target="ypFqXYN7M8ZGbnd8jvG--4" edge="1">
          <mxGeometry relative="1" as="geometry">
            <Array as="points">
              <mxPoint x="890" y="587" />
              <mxPoint x="890" y="640" />
              <mxPoint x="730" y="640" />
            </Array>
          </mxGeometry>
        </mxCell>
        <mxCell id="ypFqXYN7M8ZGbnd8jvG--35" style="edgeStyle=orthogonalEdgeStyle;curved=1;rounded=0;orthogonalLoop=1;jettySize=auto;html=1;exitX=1;exitY=0.5;exitDx=0;exitDy=0;entryX=0;entryY=0.5;entryDx=0;entryDy=0;strokeWidth=1;fontSize=1;fontColor=#000000;fillColor=#f8cecc;strokeColor=#b85450;" parent="EJHhD8aTbCOa_s8_bxt7-1" source="ypFqXYN7M8ZGbnd8jvG--1" target="ypFqXYN7M8ZGbnd8jvG--23" edge="1">
          <mxGeometry relative="1" as="geometry">
            <Array as="points">
              <mxPoint x="267" y="630" />
              <mxPoint x="667" y="630" />
            </Array>
          </mxGeometry>
        </mxCell>
        <mxCell id="ypFqXYN7M8ZGbnd8jvG--36" style="edgeStyle=orthogonalEdgeStyle;curved=1;rounded=0;orthogonalLoop=1;jettySize=auto;html=1;exitX=1;exitY=0.5;exitDx=0;exitDy=0;entryX=0;entryY=0.5;entryDx=0;entryDy=0;strokeWidth=1;fontSize=1;fontColor=#000000;fillColor=#fff2cc;strokeColor=#d6b656;" parent="EJHhD8aTbCOa_s8_bxt7-1" source="ypFqXYN7M8ZGbnd8jvG--3" target="ypFqXYN7M8ZGbnd8jvG--15" edge="1">
          <mxGeometry relative="1" as="geometry" />
        </mxCell>
        <mxCell id="ypFqXYN7M8ZGbnd8jvG--37" style="edgeStyle=orthogonalEdgeStyle;curved=1;rounded=0;orthogonalLoop=1;jettySize=auto;html=1;exitX=1;exitY=0.5;exitDx=0;exitDy=0;entryX=0;entryY=0.5;entryDx=0;entryDy=0;strokeWidth=1;fontSize=1;fontColor=#000000;fillColor=#dae8fc;strokeColor=#6c8ebf;" parent="EJHhD8aTbCOa_s8_bxt7-1" source="ypFqXYN7M8ZGbnd8jvG--22" target="ypFqXYN7M8ZGbnd8jvG--29" edge="1">
          <mxGeometry relative="1" as="geometry" />
        </mxCell>
        <mxCell id="ypFqXYN7M8ZGbnd8jvG--38" style="edgeStyle=orthogonalEdgeStyle;curved=1;rounded=0;orthogonalLoop=1;jettySize=auto;html=1;exitX=1;exitY=0.5;exitDx=0;exitDy=0;entryX=0;entryY=0.5;entryDx=0;entryDy=0;strokeWidth=1;fontSize=1;fontColor=#000000;fillColor=#d5e8d4;strokeColor=#82b366;" parent="EJHhD8aTbCOa_s8_bxt7-1" source="ypFqXYN7M8ZGbnd8jvG--16" target="ypFqXYN7M8ZGbnd8jvG--30" edge="1">
          <mxGeometry relative="1" as="geometry" />
        </mxCell>
        <mxCell id="ypFqXYN7M8ZGbnd8jvG--40" value="cgrp_links" style="text;html=1;align=center;verticalAlign=middle;resizable=0;points=[];autosize=1;fontSize=1;fontColor=#000000;" parent="EJHhD8aTbCOa_s8_bxt7-1" vertex="1">
          <mxGeometry x="90" y="430" width="70" height="10" as="geometry" />
        </mxCell>
        <mxCell id="ypFqXYN7M8ZGbnd8jvG--42" value="cset_link" style="text;html=1;align=center;verticalAlign=middle;resizable=0;points=[];autosize=1;fontSize=1;fontColor=#000000;" parent="EJHhD8aTbCOa_s8_bxt7-1" vertex="1">
          <mxGeometry x="20" y="658" width="60" height="10" as="geometry" />
        </mxCell>
        <mxCell id="P1kIayfbAXQVAzDgpCgh-0" value="&lt;span style=&quot;font-size: 14px&quot;&gt;cgroup&lt;/span&gt;" style="rounded=0;whiteSpace=wrap;html=1;fillColor=#dae8fc;strokeColor=#6c8ebf;" parent="EJHhD8aTbCOa_s8_bxt7-1" vertex="1">
          <mxGeometry x="1450" y="220" width="120" height="60" as="geometry" />
        </mxCell>
        <mxCell id="P1kIayfbAXQVAzDgpCgh-1" value="blkio&amp;nbsp; css" style="rounded=1;whiteSpace=wrap;html=1;fillColor=#fff2cc;strokeColor=#d6b656;" parent="EJHhD8aTbCOa_s8_bxt7-1" vertex="1">
          <mxGeometry x="1690" y="185" width="120" height="60" as="geometry" />
        </mxCell>
        <mxCell id="P1kIayfbAXQVAzDgpCgh-2" value="net_cls css" style="rounded=1;whiteSpace=wrap;html=1;fillColor=#f8cecc;strokeColor=#b85450;" parent="EJHhD8aTbCOa_s8_bxt7-1" vertex="1">
          <mxGeometry x="1990" y="290" width="120" height="60" as="geometry" />
        </mxCell>
        <mxCell id="P1kIayfbAXQVAzDgpCgh-3" style="rounded=0;orthogonalLoop=1;jettySize=auto;html=1;exitX=1;exitY=0.25;exitDx=0;exitDy=0;entryX=0;entryY=0.5;entryDx=0;entryDy=0;" parent="EJHhD8aTbCOa_s8_bxt7-1" source="P1kIayfbAXQVAzDgpCgh-0" target="P1kIayfbAXQVAzDgpCgh-1" edge="1">
          <mxGeometry relative="1" as="geometry" />
        </mxCell>
        <mxCell id="P1kIayfbAXQVAzDgpCgh-4" style="edgeStyle=none;rounded=0;orthogonalLoop=1;jettySize=auto;html=1;exitX=1;exitY=0.75;exitDx=0;exitDy=0;entryX=0;entryY=0.5;entryDx=0;entryDy=0;" parent="EJHhD8aTbCOa_s8_bxt7-1" source="P1kIayfbAXQVAzDgpCgh-0" target="P1kIayfbAXQVAzDgpCgh-2" edge="1">
          <mxGeometry relative="1" as="geometry" />
        </mxCell>
        <mxCell id="P1kIayfbAXQVAzDgpCgh-20" style="rounded=0;orthogonalLoop=1;jettySize=auto;html=1;exitX=0.5;exitY=0;exitDx=0;exitDy=0;entryX=0.5;entryY=1;entryDx=0;entryDy=0;fillColor=#dae8fc;strokeColor=#6c8ebf;" parent="EJHhD8aTbCOa_s8_bxt7-1" source="P1kIayfbAXQVAzDgpCgh-6" target="P1kIayfbAXQVAzDgpCgh-0" edge="1">
          <mxGeometry relative="1" as="geometry" />
        </mxCell>
        <mxCell id="P1kIayfbAXQVAzDgpCgh-6" value="&lt;span style=&quot;font-size: 14px&quot;&gt;cgroup&lt;/span&gt;" style="rounded=0;whiteSpace=wrap;html=1;fillColor=#dae8fc;strokeColor=#6c8ebf;" parent="EJHhD8aTbCOa_s8_bxt7-1" vertex="1">
          <mxGeometry x="1387" y="430" width="120" height="60" as="geometry" />
        </mxCell>
        <mxCell id="P1kIayfbAXQVAzDgpCgh-23" style="edgeStyle=none;rounded=0;orthogonalLoop=1;jettySize=auto;html=1;exitX=0.5;exitY=0;exitDx=0;exitDy=0;entryX=0.5;entryY=1;entryDx=0;entryDy=0;fillColor=#fff2cc;strokeColor=#d6b656;" parent="EJHhD8aTbCOa_s8_bxt7-1" source="P1kIayfbAXQVAzDgpCgh-7" target="P1kIayfbAXQVAzDgpCgh-1" edge="1">
          <mxGeometry relative="1" as="geometry" />
        </mxCell>
        <mxCell id="P1kIayfbAXQVAzDgpCgh-7" value="blkio css" style="rounded=1;whiteSpace=wrap;html=1;fillColor=#fff2cc;strokeColor=#d6b656;" parent="EJHhD8aTbCOa_s8_bxt7-1" vertex="1">
          <mxGeometry x="1594" y="410" width="120" height="60" as="geometry" />
        </mxCell>
        <mxCell id="P1kIayfbAXQVAzDgpCgh-25" style="edgeStyle=none;rounded=0;orthogonalLoop=1;jettySize=auto;html=1;exitX=0.5;exitY=0;exitDx=0;exitDy=0;entryX=0.75;entryY=1;entryDx=0;entryDy=0;fillColor=#fff2cc;strokeColor=#d6b656;" parent="EJHhD8aTbCOa_s8_bxt7-1" source="P1kIayfbAXQVAzDgpCgh-12" target="P1kIayfbAXQVAzDgpCgh-1" edge="1">
          <mxGeometry relative="1" as="geometry" />
        </mxCell>
        <mxCell id="P1kIayfbAXQVAzDgpCgh-26" style="edgeStyle=none;rounded=0;orthogonalLoop=1;jettySize=auto;html=1;exitX=0.5;exitY=0;exitDx=0;exitDy=0;entryX=0.5;entryY=1;entryDx=0;entryDy=0;fillColor=#f8cecc;strokeColor=#b85450;" parent="EJHhD8aTbCOa_s8_bxt7-1" source="P1kIayfbAXQVAzDgpCgh-8" target="P1kIayfbAXQVAzDgpCgh-2" edge="1">
          <mxGeometry relative="1" as="geometry" />
        </mxCell>
        <mxCell id="P1kIayfbAXQVAzDgpCgh-8" value="net_cls css" style="rounded=1;whiteSpace=wrap;html=1;fillColor=#f8cecc;strokeColor=#b85450;" parent="EJHhD8aTbCOa_s8_bxt7-1" vertex="1">
          <mxGeometry x="1910" y="470" width="120" height="60" as="geometry" />
        </mxCell>
        <mxCell id="P1kIayfbAXQVAzDgpCgh-9" style="rounded=0;orthogonalLoop=1;jettySize=auto;html=1;exitX=1;exitY=0.25;exitDx=0;exitDy=0;entryX=0;entryY=0.5;entryDx=0;entryDy=0;" parent="EJHhD8aTbCOa_s8_bxt7-1" source="P1kIayfbAXQVAzDgpCgh-6" target="P1kIayfbAXQVAzDgpCgh-7" edge="1">
          <mxGeometry relative="1" as="geometry" />
        </mxCell>
        <mxCell id="P1kIayfbAXQVAzDgpCgh-10" style="edgeStyle=none;rounded=0;orthogonalLoop=1;jettySize=auto;html=1;exitX=1;exitY=0.75;exitDx=0;exitDy=0;entryX=0;entryY=0.5;entryDx=0;entryDy=0;" parent="EJHhD8aTbCOa_s8_bxt7-1" source="P1kIayfbAXQVAzDgpCgh-6" target="P1kIayfbAXQVAzDgpCgh-8" edge="1">
          <mxGeometry relative="1" as="geometry" />
        </mxCell>
        <mxCell id="P1kIayfbAXQVAzDgpCgh-22" style="edgeStyle=none;rounded=0;orthogonalLoop=1;jettySize=auto;html=1;exitX=0.5;exitY=0;exitDx=0;exitDy=0;entryX=0.75;entryY=1;entryDx=0;entryDy=0;fillColor=#dae8fc;strokeColor=#6c8ebf;" parent="EJHhD8aTbCOa_s8_bxt7-1" source="P1kIayfbAXQVAzDgpCgh-11" target="P1kIayfbAXQVAzDgpCgh-0" edge="1">
          <mxGeometry relative="1" as="geometry">
            <Array as="points" />
          </mxGeometry>
        </mxCell>
        <mxCell id="P1kIayfbAXQVAzDgpCgh-11" value="&lt;span style=&quot;font-size: 14px&quot;&gt;cgroup&lt;/span&gt;" style="rounded=0;whiteSpace=wrap;html=1;fillColor=#dae8fc;strokeColor=#6c8ebf;" parent="EJHhD8aTbCOa_s8_bxt7-1" vertex="1">
          <mxGeometry x="1534" y="608" width="120" height="60" as="geometry" />
        </mxCell>
        <mxCell id="P1kIayfbAXQVAzDgpCgh-12" value="blkio css" style="rounded=1;whiteSpace=wrap;html=1;fillColor=#fff2cc;strokeColor=#d6b656;" parent="EJHhD8aTbCOa_s8_bxt7-1" vertex="1">
          <mxGeometry x="1777" y="580" width="120" height="60" as="geometry" />
        </mxCell>
        <mxCell id="P1kIayfbAXQVAzDgpCgh-27" style="edgeStyle=none;rounded=0;orthogonalLoop=1;jettySize=auto;html=1;exitX=0.5;exitY=0;exitDx=0;exitDy=0;entryX=0.75;entryY=1;entryDx=0;entryDy=0;fillColor=#f8cecc;strokeColor=#b85450;" parent="EJHhD8aTbCOa_s8_bxt7-1" source="P1kIayfbAXQVAzDgpCgh-13" target="P1kIayfbAXQVAzDgpCgh-2" edge="1">
          <mxGeometry relative="1" as="geometry" />
        </mxCell>
        <mxCell id="P1kIayfbAXQVAzDgpCgh-13" value="net_cls css" style="rounded=1;whiteSpace=wrap;html=1;fillColor=#f8cecc;strokeColor=#b85450;" parent="EJHhD8aTbCOa_s8_bxt7-1" vertex="1">
          <mxGeometry x="2093" y="640" width="120" height="60" as="geometry" />
        </mxCell>
        <mxCell id="P1kIayfbAXQVAzDgpCgh-14" style="rounded=0;orthogonalLoop=1;jettySize=auto;html=1;exitX=1;exitY=0.25;exitDx=0;exitDy=0;entryX=0;entryY=0.5;entryDx=0;entryDy=0;" parent="EJHhD8aTbCOa_s8_bxt7-1" source="P1kIayfbAXQVAzDgpCgh-11" target="P1kIayfbAXQVAzDgpCgh-12" edge="1">
          <mxGeometry relative="1" as="geometry" />
        </mxCell>
        <mxCell id="P1kIayfbAXQVAzDgpCgh-15" style="edgeStyle=none;rounded=0;orthogonalLoop=1;jettySize=auto;html=1;exitX=1;exitY=0.75;exitDx=0;exitDy=0;entryX=0;entryY=0.5;entryDx=0;entryDy=0;" parent="EJHhD8aTbCOa_s8_bxt7-1" source="P1kIayfbAXQVAzDgpCgh-11" target="P1kIayfbAXQVAzDgpCgh-13" edge="1">
          <mxGeometry relative="1" as="geometry" />
        </mxCell>
        <mxCell id="P1kIayfbAXQVAzDgpCgh-17" value="subsys[subsys_id]" style="text;html=1;align=center;verticalAlign=middle;resizable=0;points=[];autosize=1;" parent="EJHhD8aTbCOa_s8_bxt7-1" vertex="1">
          <mxGeometry x="1560" y="185" width="110" height="20" as="geometry" />
        </mxCell>
        <mxCell id="ZLaX8RdWIVgGhKSRJ2gm-1" value="一个root是一个树， 每个树上可以挂接多个subsys" style="text;html=1;align=center;verticalAlign=middle;resizable=0;points=[];autosize=1;fillColor=#dae8fc;strokeColor=#6c8ebf;" vertex="1" parent="EJHhD8aTbCOa_s8_bxt7-1">
          <mxGeometry x="220" y="130" width="280" height="20" as="geometry" />
        </mxCell>
      </root>
    </mxGraphModel>
  </diagram>
  <diagram id="vUQClD2A7eOsbaSuo6TV" name="5.4">
    <mxGraphModel dx="1830" dy="2210" grid="1" gridSize="10" guides="1" tooltips="1" connect="1" arrows="1" fold="1" page="1" pageScale="1" pageWidth="827" pageHeight="1169" math="0" shadow="0">
      <root>
        <mxCell id="WfYI21hxz-77Iptig5c5-0" />
        <mxCell id="WfYI21hxz-77Iptig5c5-1" parent="WfYI21hxz-77Iptig5c5-0" />
        <mxCell id="WfYI21hxz-77Iptig5c5-7" style="edgeStyle=orthogonalEdgeStyle;rounded=0;orthogonalLoop=1;jettySize=auto;html=1;exitX=1;exitY=0.5;exitDx=0;exitDy=0;entryX=0;entryY=0;entryDx=0;entryDy=0;" parent="WfYI21hxz-77Iptig5c5-1" source="WfYI21hxz-77Iptig5c5-6" target="WfYI21hxz-77Iptig5c5-10" edge="1">
          <mxGeometry relative="1" as="geometry">
            <mxPoint x="370" y="525" as="targetPoint" />
            <Array as="points">
              <mxPoint x="250" y="421" />
            </Array>
          </mxGeometry>
        </mxCell>
        <mxCell id="WfYI21hxz-77Iptig5c5-31" value="" style="endArrow=classic;startArrow=classic;html=1;" parent="WfYI21hxz-77Iptig5c5-1" edge="1">
          <mxGeometry width="50" height="50" relative="1" as="geometry">
            <mxPoint x="330" y="910" as="sourcePoint" />
            <mxPoint x="330" y="820" as="targetPoint" />
          </mxGeometry>
        </mxCell>
        <mxCell id="WfYI21hxz-77Iptig5c5-32" value="1:1" style="text;html=1;align=center;verticalAlign=middle;resizable=0;points=[];autosize=1;" parent="WfYI21hxz-77Iptig5c5-1" vertex="1">
          <mxGeometry x="340" y="860" width="30" height="20" as="geometry" />
        </mxCell>
        <mxCell id="WfYI21hxz-77Iptig5c5-42" value="" style="endArrow=classic;html=1;" parent="WfYI21hxz-77Iptig5c5-1" edge="1">
          <mxGeometry width="50" height="50" relative="1" as="geometry">
            <mxPoint x="930" y="220" as="sourcePoint" />
            <mxPoint x="680" y="310" as="targetPoint" />
          </mxGeometry>
        </mxCell>
        <mxCell id="WfYI21hxz-77Iptig5c5-43" value="" style="endArrow=classic;startArrow=classic;html=1;" parent="WfYI21hxz-77Iptig5c5-1" edge="1">
          <mxGeometry width="50" height="50" relative="1" as="geometry">
            <mxPoint x="334" y="390" as="sourcePoint" />
            <mxPoint x="494" y="390" as="targetPoint" />
          </mxGeometry>
        </mxCell>
        <mxCell id="WfYI21hxz-77Iptig5c5-44" value="1:1&amp;nbsp; memcg_id" style="text;html=1;align=center;verticalAlign=middle;resizable=0;points=[];autosize=1;" parent="WfYI21hxz-77Iptig5c5-1" vertex="1">
          <mxGeometry x="369" y="360" width="90" height="20" as="geometry" />
        </mxCell>
        <mxCell id="WfYI21hxz-77Iptig5c5-3" value="mem_cgroup" style="swimlane;fontStyle=0;childLayout=stackLayout;horizontal=1;startSize=26;horizontalStack=0;resizeParent=1;resizeParentMax=0;resizeLast=0;collapsible=1;marginBottom=0;align=center;fontSize=14;fillColor=#d5e8d4;strokeColor=#82b366;" parent="WfYI21hxz-77Iptig5c5-1" vertex="1">
          <mxGeometry x="80" y="320" width="160" height="116" as="geometry" />
        </mxCell>
        <mxCell id="WfYI21hxz-77Iptig5c5-4" value="cgwb_domain" style="text;strokeColor=none;fillColor=none;spacingLeft=4;spacingRight=4;overflow=hidden;rotatable=0;points=[[0,0.5],[1,0.5]];portConstraint=eastwest;fontSize=12;" parent="WfYI21hxz-77Iptig5c5-3" vertex="1">
          <mxGeometry y="26" width="160" height="30" as="geometry" />
        </mxCell>
        <mxCell id="WfYI21hxz-77Iptig5c5-5" value="Item 2" style="text;strokeColor=none;fillColor=none;spacingLeft=4;spacingRight=4;overflow=hidden;rotatable=0;points=[[0,0.5],[1,0.5]];portConstraint=eastwest;fontSize=12;" parent="WfYI21hxz-77Iptig5c5-3" vertex="1">
          <mxGeometry y="56" width="160" height="30" as="geometry" />
        </mxCell>
        <mxCell id="WfYI21hxz-77Iptig5c5-6" value="nodeinfo" style="text;strokeColor=none;fillColor=none;spacingLeft=4;spacingRight=4;overflow=hidden;rotatable=0;points=[[0,0.5],[1,0.5]];portConstraint=eastwest;fontSize=12;" parent="WfYI21hxz-77Iptig5c5-3" vertex="1">
          <mxGeometry y="86" width="160" height="30" as="geometry" />
        </mxCell>
        <mxCell id="WfYI21hxz-77Iptig5c5-38" value="wb" style="swimlane;fontStyle=0;childLayout=stackLayout;horizontal=1;startSize=26;horizontalStack=0;resizeParent=1;resizeParentMax=0;resizeLast=0;collapsible=1;marginBottom=0;align=center;fontSize=14;fillColor=#f8cecc;strokeColor=#b85450;" parent="WfYI21hxz-77Iptig5c5-1" vertex="1">
          <mxGeometry x="560" y="320" width="160" height="176" as="geometry" />
        </mxCell>
        <mxCell id="WfYI21hxz-77Iptig5c5-39" value="memcg_css" style="text;strokeColor=none;fillColor=none;spacingLeft=4;spacingRight=4;overflow=hidden;rotatable=0;points=[[0,0.5],[1,0.5]];portConstraint=eastwest;fontSize=12;" parent="WfYI21hxz-77Iptig5c5-38" vertex="1">
          <mxGeometry y="26" width="160" height="30" as="geometry" />
        </mxCell>
        <mxCell id="WfYI21hxz-77Iptig5c5-40" value="Item 2" style="text;strokeColor=none;fillColor=none;spacingLeft=4;spacingRight=4;overflow=hidden;rotatable=0;points=[[0,0.5],[1,0.5]];portConstraint=eastwest;fontSize=12;" parent="WfYI21hxz-77Iptig5c5-38" vertex="1">
          <mxGeometry y="56" width="160" height="30" as="geometry" />
        </mxCell>
        <mxCell id="Dcm_oEK0ZLHb1oZzMAA7-2" value="memcg_completions" style="text;strokeColor=none;fillColor=none;spacingLeft=4;spacingRight=4;overflow=hidden;rotatable=0;points=[[0,0.5],[1,0.5]];portConstraint=eastwest;fontSize=12;" vertex="1" parent="WfYI21hxz-77Iptig5c5-38">
          <mxGeometry y="86" width="160" height="30" as="geometry" />
        </mxCell>
        <mxCell id="Dcm_oEK0ZLHb1oZzMAA7-1" value="completions" style="text;strokeColor=none;fillColor=none;spacingLeft=4;spacingRight=4;overflow=hidden;rotatable=0;points=[[0,0.5],[1,0.5]];portConstraint=eastwest;fontSize=12;" vertex="1" parent="WfYI21hxz-77Iptig5c5-38">
          <mxGeometry y="116" width="160" height="30" as="geometry" />
        </mxCell>
        <mxCell id="WfYI21hxz-77Iptig5c5-41" value="Item 3" style="text;strokeColor=none;fillColor=none;spacingLeft=4;spacingRight=4;overflow=hidden;rotatable=0;points=[[0,0.5],[1,0.5]];portConstraint=eastwest;fontSize=12;" parent="WfYI21hxz-77Iptig5c5-38" vertex="1">
          <mxGeometry y="146" width="160" height="30" as="geometry" />
        </mxCell>
        <mxCell id="WfYI21hxz-77Iptig5c5-51" value="attach" style="text;html=1;align=center;verticalAlign=middle;resizable=0;points=[];autosize=1;" parent="WfYI21hxz-77Iptig5c5-1" vertex="1">
          <mxGeometry x="780" y="510" width="50" height="20" as="geometry" />
        </mxCell>
        <mxCell id="WfYI21hxz-77Iptig5c5-52" value="" style="endArrow=classic;html=1;exitX=0;exitY=0.5;exitDx=0;exitDy=0;entryX=1;entryY=0;entryDx=0;entryDy=0;" parent="WfYI21hxz-77Iptig5c5-1" source="WfYI21hxz-77Iptig5c5-39" target="WfYI21hxz-77Iptig5c5-3" edge="1">
          <mxGeometry width="50" height="50" relative="1" as="geometry">
            <mxPoint x="440" y="350" as="sourcePoint" />
            <mxPoint x="490" y="300" as="targetPoint" />
            <Array as="points">
              <mxPoint x="400" y="361" />
              <mxPoint x="400" y="320" />
            </Array>
          </mxGeometry>
        </mxCell>
        <mxCell id="WfYI21hxz-77Iptig5c5-10" value="mem_cgroup_per_node" style="swimlane;fontStyle=0;childLayout=stackLayout;horizontal=1;startSize=26;horizontalStack=0;resizeParent=1;resizeParentMax=0;resizeLast=0;collapsible=1;marginBottom=0;align=center;fontSize=14;" parent="WfYI21hxz-77Iptig5c5-1" vertex="1">
          <mxGeometry x="250" y="630" width="160" height="116" as="geometry" />
        </mxCell>
        <mxCell id="WfYI21hxz-77Iptig5c5-11" value="lruvec" style="text;strokeColor=none;fillColor=none;spacingLeft=4;spacingRight=4;overflow=hidden;rotatable=0;points=[[0,0.5],[1,0.5]];portConstraint=eastwest;fontSize=12;" parent="WfYI21hxz-77Iptig5c5-10" vertex="1">
          <mxGeometry y="26" width="160" height="30" as="geometry" />
        </mxCell>
        <mxCell id="WfYI21hxz-77Iptig5c5-12" value="Item 2" style="text;strokeColor=none;fillColor=none;spacingLeft=4;spacingRight=4;overflow=hidden;rotatable=0;points=[[0,0.5],[1,0.5]];portConstraint=eastwest;fontSize=12;" parent="WfYI21hxz-77Iptig5c5-10" vertex="1">
          <mxGeometry y="56" width="160" height="30" as="geometry" />
        </mxCell>
        <mxCell id="WfYI21hxz-77Iptig5c5-13" value="Item 3" style="text;strokeColor=none;fillColor=none;spacingLeft=4;spacingRight=4;overflow=hidden;rotatable=0;points=[[0,0.5],[1,0.5]];portConstraint=eastwest;fontSize=12;" parent="WfYI21hxz-77Iptig5c5-10" vertex="1">
          <mxGeometry y="86" width="160" height="30" as="geometry" />
        </mxCell>
        <mxCell id="WfYI21hxz-77Iptig5c5-14" value="mem_cgroup_per_node" style="swimlane;fontStyle=0;childLayout=stackLayout;horizontal=1;startSize=26;horizontalStack=0;resizeParent=1;resizeParentMax=0;resizeLast=0;collapsible=1;marginBottom=0;align=center;fontSize=14;" parent="WfYI21hxz-77Iptig5c5-1" vertex="1">
          <mxGeometry x="410" y="630" width="160" height="116" as="geometry" />
        </mxCell>
        <mxCell id="WfYI21hxz-77Iptig5c5-15" value="Item 1" style="text;strokeColor=none;fillColor=none;spacingLeft=4;spacingRight=4;overflow=hidden;rotatable=0;points=[[0,0.5],[1,0.5]];portConstraint=eastwest;fontSize=12;" parent="WfYI21hxz-77Iptig5c5-14" vertex="1">
          <mxGeometry y="26" width="160" height="30" as="geometry" />
        </mxCell>
        <mxCell id="WfYI21hxz-77Iptig5c5-16" value="Item 2" style="text;strokeColor=none;fillColor=none;spacingLeft=4;spacingRight=4;overflow=hidden;rotatable=0;points=[[0,0.5],[1,0.5]];portConstraint=eastwest;fontSize=12;" parent="WfYI21hxz-77Iptig5c5-14" vertex="1">
          <mxGeometry y="56" width="160" height="30" as="geometry" />
        </mxCell>
        <mxCell id="WfYI21hxz-77Iptig5c5-17" value="Item 3" style="text;strokeColor=none;fillColor=none;spacingLeft=4;spacingRight=4;overflow=hidden;rotatable=0;points=[[0,0.5],[1,0.5]];portConstraint=eastwest;fontSize=12;" parent="WfYI21hxz-77Iptig5c5-14" vertex="1">
          <mxGeometry y="86" width="160" height="30" as="geometry" />
        </mxCell>
        <mxCell id="WfYI21hxz-77Iptig5c5-18" value="mem_cgroup_per_node" style="swimlane;fontStyle=0;childLayout=stackLayout;horizontal=1;startSize=26;horizontalStack=0;resizeParent=1;resizeParentMax=0;resizeLast=0;collapsible=1;marginBottom=0;align=center;fontSize=14;" parent="WfYI21hxz-77Iptig5c5-1" vertex="1">
          <mxGeometry x="570" y="630" width="160" height="116" as="geometry" />
        </mxCell>
        <mxCell id="WfYI21hxz-77Iptig5c5-19" value="Item 1" style="text;strokeColor=none;fillColor=none;spacingLeft=4;spacingRight=4;overflow=hidden;rotatable=0;points=[[0,0.5],[1,0.5]];portConstraint=eastwest;fontSize=12;" parent="WfYI21hxz-77Iptig5c5-18" vertex="1">
          <mxGeometry y="26" width="160" height="30" as="geometry" />
        </mxCell>
        <mxCell id="WfYI21hxz-77Iptig5c5-20" value="Item 2" style="text;strokeColor=none;fillColor=none;spacingLeft=4;spacingRight=4;overflow=hidden;rotatable=0;points=[[0,0.5],[1,0.5]];portConstraint=eastwest;fontSize=12;" parent="WfYI21hxz-77Iptig5c5-18" vertex="1">
          <mxGeometry y="56" width="160" height="30" as="geometry" />
        </mxCell>
        <mxCell id="WfYI21hxz-77Iptig5c5-21" value="Item 3" style="text;strokeColor=none;fillColor=none;spacingLeft=4;spacingRight=4;overflow=hidden;rotatable=0;points=[[0,0.5],[1,0.5]];portConstraint=eastwest;fontSize=12;" parent="WfYI21hxz-77Iptig5c5-18" vertex="1">
          <mxGeometry y="86" width="160" height="30" as="geometry" />
        </mxCell>
        <mxCell id="Jg690fpIbDFamo7Ynv4O-5" value="cgroup_subsys" style="swimlane;fontStyle=0;childLayout=stackLayout;horizontal=1;startSize=26;horizontalStack=0;resizeParent=1;resizeParentMax=0;resizeLast=0;collapsible=1;marginBottom=0;align=center;fontSize=14;" vertex="1" parent="WfYI21hxz-77Iptig5c5-1">
          <mxGeometry x="3420" y="-44" width="160" height="116" as="geometry" />
        </mxCell>
        <mxCell id="Jg690fpIbDFamo7Ynv4O-6" value="cgroup_root * root" style="text;strokeColor=none;fillColor=none;spacingLeft=4;spacingRight=4;overflow=hidden;rotatable=0;points=[[0,0.5],[1,0.5]];portConstraint=eastwest;fontSize=12;" vertex="1" parent="Jg690fpIbDFamo7Ynv4O-5">
          <mxGeometry y="26" width="160" height="30" as="geometry" />
        </mxCell>
        <mxCell id="Jg690fpIbDFamo7Ynv4O-7" value="Item 2" style="text;strokeColor=none;fillColor=none;spacingLeft=4;spacingRight=4;overflow=hidden;rotatable=0;points=[[0,0.5],[1,0.5]];portConstraint=eastwest;fontSize=12;" vertex="1" parent="Jg690fpIbDFamo7Ynv4O-5">
          <mxGeometry y="56" width="160" height="30" as="geometry" />
        </mxCell>
        <mxCell id="Jg690fpIbDFamo7Ynv4O-8" value="Item 3" style="text;strokeColor=none;fillColor=none;spacingLeft=4;spacingRight=4;overflow=hidden;rotatable=0;points=[[0,0.5],[1,0.5]];portConstraint=eastwest;fontSize=12;" vertex="1" parent="Jg690fpIbDFamo7Ynv4O-5">
          <mxGeometry y="86" width="160" height="30" as="geometry" />
        </mxCell>
        <mxCell id="WfYI21hxz-77Iptig5c5-23" value="pglist_data" style="swimlane;fontStyle=0;childLayout=stackLayout;horizontal=1;startSize=26;horizontalStack=0;resizeParent=1;resizeParentMax=0;resizeLast=0;collapsible=1;marginBottom=0;align=center;fontSize=14;" parent="WfYI21hxz-77Iptig5c5-1" vertex="1">
          <mxGeometry x="250" y="980" width="160" height="116" as="geometry" />
        </mxCell>
        <mxCell id="WfYI21hxz-77Iptig5c5-24" value="__lruvec" style="text;strokeColor=none;fillColor=none;spacingLeft=4;spacingRight=4;overflow=hidden;rotatable=0;points=[[0,0.5],[1,0.5]];portConstraint=eastwest;fontSize=12;" parent="WfYI21hxz-77Iptig5c5-23" vertex="1">
          <mxGeometry y="26" width="160" height="30" as="geometry" />
        </mxCell>
        <mxCell id="WfYI21hxz-77Iptig5c5-25" value="Item 2" style="text;strokeColor=none;fillColor=none;spacingLeft=4;spacingRight=4;overflow=hidden;rotatable=0;points=[[0,0.5],[1,0.5]];portConstraint=eastwest;fontSize=12;" parent="WfYI21hxz-77Iptig5c5-23" vertex="1">
          <mxGeometry y="56" width="160" height="30" as="geometry" />
        </mxCell>
        <mxCell id="WfYI21hxz-77Iptig5c5-26" value="Item 3" style="text;strokeColor=none;fillColor=none;spacingLeft=4;spacingRight=4;overflow=hidden;rotatable=0;points=[[0,0.5],[1,0.5]];portConstraint=eastwest;fontSize=12;" parent="WfYI21hxz-77Iptig5c5-23" vertex="1">
          <mxGeometry y="86" width="160" height="30" as="geometry" />
        </mxCell>
        <mxCell id="WfYI21hxz-77Iptig5c5-27" value="pglist_data" style="swimlane;fontStyle=0;childLayout=stackLayout;horizontal=1;startSize=26;horizontalStack=0;resizeParent=1;resizeParentMax=0;resizeLast=0;collapsible=1;marginBottom=0;align=center;fontSize=14;" parent="WfYI21hxz-77Iptig5c5-1" vertex="1">
          <mxGeometry x="410" y="980" width="160" height="116" as="geometry" />
        </mxCell>
        <mxCell id="WfYI21hxz-77Iptig5c5-28" value="Item 1" style="text;strokeColor=none;fillColor=none;spacingLeft=4;spacingRight=4;overflow=hidden;rotatable=0;points=[[0,0.5],[1,0.5]];portConstraint=eastwest;fontSize=12;" parent="WfYI21hxz-77Iptig5c5-27" vertex="1">
          <mxGeometry y="26" width="160" height="30" as="geometry" />
        </mxCell>
        <mxCell id="WfYI21hxz-77Iptig5c5-29" value="Item 2" style="text;strokeColor=none;fillColor=none;spacingLeft=4;spacingRight=4;overflow=hidden;rotatable=0;points=[[0,0.5],[1,0.5]];portConstraint=eastwest;fontSize=12;" parent="WfYI21hxz-77Iptig5c5-27" vertex="1">
          <mxGeometry y="56" width="160" height="30" as="geometry" />
        </mxCell>
        <mxCell id="WfYI21hxz-77Iptig5c5-30" value="Item 3" style="text;strokeColor=none;fillColor=none;spacingLeft=4;spacingRight=4;overflow=hidden;rotatable=0;points=[[0,0.5],[1,0.5]];portConstraint=eastwest;fontSize=12;" parent="WfYI21hxz-77Iptig5c5-27" vertex="1">
          <mxGeometry y="86" width="160" height="30" as="geometry" />
        </mxCell>
        <mxCell id="WfYI21hxz-77Iptig5c5-33" value="pglist_data" style="swimlane;fontStyle=0;childLayout=stackLayout;horizontal=1;startSize=26;horizontalStack=0;resizeParent=1;resizeParentMax=0;resizeLast=0;collapsible=1;marginBottom=0;align=center;fontSize=14;" parent="WfYI21hxz-77Iptig5c5-1" vertex="1">
          <mxGeometry x="570" y="980" width="160" height="116" as="geometry" />
        </mxCell>
        <mxCell id="WfYI21hxz-77Iptig5c5-34" value="Item 1" style="text;strokeColor=none;fillColor=none;spacingLeft=4;spacingRight=4;overflow=hidden;rotatable=0;points=[[0,0.5],[1,0.5]];portConstraint=eastwest;fontSize=12;" parent="WfYI21hxz-77Iptig5c5-33" vertex="1">
          <mxGeometry y="26" width="160" height="30" as="geometry" />
        </mxCell>
        <mxCell id="WfYI21hxz-77Iptig5c5-35" value="Item 2" style="text;strokeColor=none;fillColor=none;spacingLeft=4;spacingRight=4;overflow=hidden;rotatable=0;points=[[0,0.5],[1,0.5]];portConstraint=eastwest;fontSize=12;" parent="WfYI21hxz-77Iptig5c5-33" vertex="1">
          <mxGeometry y="56" width="160" height="30" as="geometry" />
        </mxCell>
        <mxCell id="WfYI21hxz-77Iptig5c5-36" value="Item 3" style="text;strokeColor=none;fillColor=none;spacingLeft=4;spacingRight=4;overflow=hidden;rotatable=0;points=[[0,0.5],[1,0.5]];portConstraint=eastwest;fontSize=12;" parent="WfYI21hxz-77Iptig5c5-33" vertex="1">
          <mxGeometry y="86" width="160" height="30" as="geometry" />
        </mxCell>
        <mxCell id="WfYI21hxz-77Iptig5c5-45" value="inode" style="swimlane;fontStyle=0;childLayout=stackLayout;horizontal=1;startSize=26;horizontalStack=0;resizeParent=1;resizeParentMax=0;resizeLast=0;collapsible=1;marginBottom=0;align=center;fontSize=14;fillColor=#dae8fc;strokeColor=#6c8ebf;" parent="WfYI21hxz-77Iptig5c5-1" vertex="1">
          <mxGeometry x="890" y="570" width="160" height="116" as="geometry" />
        </mxCell>
        <mxCell id="WfYI21hxz-77Iptig5c5-46" value="wb" style="text;strokeColor=none;fillColor=none;spacingLeft=4;spacingRight=4;overflow=hidden;rotatable=0;points=[[0,0.5],[1,0.5]];portConstraint=eastwest;fontSize=12;" parent="WfYI21hxz-77Iptig5c5-45" vertex="1">
          <mxGeometry y="26" width="160" height="30" as="geometry" />
        </mxCell>
        <mxCell id="WfYI21hxz-77Iptig5c5-47" value="Item 2" style="text;strokeColor=none;fillColor=none;spacingLeft=4;spacingRight=4;overflow=hidden;rotatable=0;points=[[0,0.5],[1,0.5]];portConstraint=eastwest;fontSize=12;" parent="WfYI21hxz-77Iptig5c5-45" vertex="1">
          <mxGeometry y="56" width="160" height="30" as="geometry" />
        </mxCell>
        <mxCell id="WfYI21hxz-77Iptig5c5-48" value="Item 3" style="text;strokeColor=none;fillColor=none;spacingLeft=4;spacingRight=4;overflow=hidden;rotatable=0;points=[[0,0.5],[1,0.5]];portConstraint=eastwest;fontSize=12;" parent="WfYI21hxz-77Iptig5c5-45" vertex="1">
          <mxGeometry y="86" width="160" height="30" as="geometry" />
        </mxCell>
        <mxCell id="Dcm_oEK0ZLHb1oZzMAA7-4" value="wb" style="swimlane;fontStyle=0;childLayout=stackLayout;horizontal=1;startSize=26;horizontalStack=0;resizeParent=1;resizeParentMax=0;resizeLast=0;collapsible=1;marginBottom=0;align=center;fontSize=14;fillColor=#f8cecc;strokeColor=#b85450;" vertex="1" parent="WfYI21hxz-77Iptig5c5-1">
          <mxGeometry x="900" y="320" width="160" height="176" as="geometry" />
        </mxCell>
        <mxCell id="Dcm_oEK0ZLHb1oZzMAA7-5" value="memcg_css" style="text;strokeColor=none;fillColor=none;spacingLeft=4;spacingRight=4;overflow=hidden;rotatable=0;points=[[0,0.5],[1,0.5]];portConstraint=eastwest;fontSize=12;" vertex="1" parent="Dcm_oEK0ZLHb1oZzMAA7-4">
          <mxGeometry y="26" width="160" height="30" as="geometry" />
        </mxCell>
        <mxCell id="Dcm_oEK0ZLHb1oZzMAA7-6" value="Item 2" style="text;strokeColor=none;fillColor=none;spacingLeft=4;spacingRight=4;overflow=hidden;rotatable=0;points=[[0,0.5],[1,0.5]];portConstraint=eastwest;fontSize=12;" vertex="1" parent="Dcm_oEK0ZLHb1oZzMAA7-4">
          <mxGeometry y="56" width="160" height="30" as="geometry" />
        </mxCell>
        <mxCell id="Dcm_oEK0ZLHb1oZzMAA7-7" value="memcg_completions" style="text;strokeColor=none;fillColor=none;spacingLeft=4;spacingRight=4;overflow=hidden;rotatable=0;points=[[0,0.5],[1,0.5]];portConstraint=eastwest;fontSize=12;" vertex="1" parent="Dcm_oEK0ZLHb1oZzMAA7-4">
          <mxGeometry y="86" width="160" height="30" as="geometry" />
        </mxCell>
        <mxCell id="Dcm_oEK0ZLHb1oZzMAA7-8" value="completions" style="text;strokeColor=none;fillColor=none;spacingLeft=4;spacingRight=4;overflow=hidden;rotatable=0;points=[[0,0.5],[1,0.5]];portConstraint=eastwest;fontSize=12;" vertex="1" parent="Dcm_oEK0ZLHb1oZzMAA7-4">
          <mxGeometry y="116" width="160" height="30" as="geometry" />
        </mxCell>
        <mxCell id="Dcm_oEK0ZLHb1oZzMAA7-9" value="Item 3" style="text;strokeColor=none;fillColor=none;spacingLeft=4;spacingRight=4;overflow=hidden;rotatable=0;points=[[0,0.5],[1,0.5]];portConstraint=eastwest;fontSize=12;" vertex="1" parent="Dcm_oEK0ZLHb1oZzMAA7-4">
          <mxGeometry y="146" width="160" height="30" as="geometry" />
        </mxCell>
        <mxCell id="Dcm_oEK0ZLHb1oZzMAA7-10" value="wb" style="swimlane;fontStyle=0;childLayout=stackLayout;horizontal=1;startSize=26;horizontalStack=0;resizeParent=1;resizeParentMax=0;resizeLast=0;collapsible=1;marginBottom=0;align=center;fontSize=14;fillColor=#f8cecc;strokeColor=#b85450;" vertex="1" parent="WfYI21hxz-77Iptig5c5-1">
          <mxGeometry x="1170" y="320" width="160" height="176" as="geometry" />
        </mxCell>
        <mxCell id="Dcm_oEK0ZLHb1oZzMAA7-11" value="memcg_css" style="text;strokeColor=none;fillColor=none;spacingLeft=4;spacingRight=4;overflow=hidden;rotatable=0;points=[[0,0.5],[1,0.5]];portConstraint=eastwest;fontSize=12;" vertex="1" parent="Dcm_oEK0ZLHb1oZzMAA7-10">
          <mxGeometry y="26" width="160" height="30" as="geometry" />
        </mxCell>
        <mxCell id="Dcm_oEK0ZLHb1oZzMAA7-12" value="Item 2" style="text;strokeColor=none;fillColor=none;spacingLeft=4;spacingRight=4;overflow=hidden;rotatable=0;points=[[0,0.5],[1,0.5]];portConstraint=eastwest;fontSize=12;" vertex="1" parent="Dcm_oEK0ZLHb1oZzMAA7-10">
          <mxGeometry y="56" width="160" height="30" as="geometry" />
        </mxCell>
        <mxCell id="Dcm_oEK0ZLHb1oZzMAA7-13" value="memcg_completions" style="text;strokeColor=none;fillColor=none;spacingLeft=4;spacingRight=4;overflow=hidden;rotatable=0;points=[[0,0.5],[1,0.5]];portConstraint=eastwest;fontSize=12;" vertex="1" parent="Dcm_oEK0ZLHb1oZzMAA7-10">
          <mxGeometry y="86" width="160" height="30" as="geometry" />
        </mxCell>
        <mxCell id="Dcm_oEK0ZLHb1oZzMAA7-14" value="completions" style="text;strokeColor=none;fillColor=none;spacingLeft=4;spacingRight=4;overflow=hidden;rotatable=0;points=[[0,0.5],[1,0.5]];portConstraint=eastwest;fontSize=12;" vertex="1" parent="Dcm_oEK0ZLHb1oZzMAA7-10">
          <mxGeometry y="116" width="160" height="30" as="geometry" />
        </mxCell>
        <mxCell id="Dcm_oEK0ZLHb1oZzMAA7-15" value="Item 3" style="text;strokeColor=none;fillColor=none;spacingLeft=4;spacingRight=4;overflow=hidden;rotatable=0;points=[[0,0.5],[1,0.5]];portConstraint=eastwest;fontSize=12;" vertex="1" parent="Dcm_oEK0ZLHb1oZzMAA7-10">
          <mxGeometry y="146" width="160" height="30" as="geometry" />
        </mxCell>
        <mxCell id="Dcm_oEK0ZLHb1oZzMAA7-16" value="memcg_id" style="text;html=1;align=center;verticalAlign=middle;resizable=0;points=[];autosize=1;" vertex="1" parent="WfYI21hxz-77Iptig5c5-1">
          <mxGeometry x="655" y="250" width="70" height="20" as="geometry" />
        </mxCell>
        <mxCell id="Dcm_oEK0ZLHb1oZzMAA7-17" value="" style="endArrow=classic;html=1;" edge="1" parent="WfYI21hxz-77Iptig5c5-1">
          <mxGeometry width="50" height="50" relative="1" as="geometry">
            <mxPoint x="980" y="230" as="sourcePoint" />
            <mxPoint x="970" y="310" as="targetPoint" />
          </mxGeometry>
        </mxCell>
        <mxCell id="Dcm_oEK0ZLHb1oZzMAA7-0" value="bdi" style="swimlane;fontStyle=0;childLayout=stackLayout;horizontal=1;startSize=26;horizontalStack=0;resizeParent=1;resizeParentMax=0;resizeLast=0;collapsible=1;marginBottom=0;align=center;fontSize=14;" vertex="1" parent="WfYI21hxz-77Iptig5c5-1">
          <mxGeometry x="900" y="150" width="160" height="56" as="geometry" />
        </mxCell>
        <mxCell id="Dcm_oEK0ZLHb1oZzMAA7-3" value="Item 3" style="text;strokeColor=none;fillColor=none;spacingLeft=4;spacingRight=4;overflow=hidden;rotatable=0;points=[[0,0.5],[1,0.5]];portConstraint=eastwest;fontSize=12;" vertex="1" parent="Dcm_oEK0ZLHb1oZzMAA7-0">
          <mxGeometry y="26" width="160" height="30" as="geometry" />
        </mxCell>
        <mxCell id="Dcm_oEK0ZLHb1oZzMAA7-19" value="" style="endArrow=classic;html=1;" edge="1" parent="WfYI21hxz-77Iptig5c5-1">
          <mxGeometry width="50" height="50" relative="1" as="geometry">
            <mxPoint x="1060" y="230" as="sourcePoint" />
            <mxPoint x="1230" y="310" as="targetPoint" />
          </mxGeometry>
        </mxCell>
        <mxCell id="Dcm_oEK0ZLHb1oZzMAA7-20" value="" style="shape=flexArrow;endArrow=classic;html=1;" edge="1" parent="WfYI21hxz-77Iptig5c5-1">
          <mxGeometry width="50" height="50" relative="1" as="geometry">
            <mxPoint x="860" y="580" as="sourcePoint" />
            <mxPoint x="720" y="510" as="targetPoint" />
          </mxGeometry>
        </mxCell>
        <mxCell id="Dcm_oEK0ZLHb1oZzMAA7-21" value="global_wb_domain" style="rounded=0;whiteSpace=wrap;html=1;fillColor=#fff2cc;strokeColor=#d6b656;" vertex="1" parent="WfYI21hxz-77Iptig5c5-1">
          <mxGeometry x="130" y="90" width="120" height="60" as="geometry" />
        </mxCell>
        <mxCell id="Kr7dGRDA-T_ttMKYb2uq-14" value="cgroup_subsys" style="swimlane;fontStyle=0;childLayout=stackLayout;horizontal=1;startSize=26;horizontalStack=0;resizeParent=1;resizeParentMax=0;resizeLast=0;collapsible=1;marginBottom=0;align=center;fontSize=14;" vertex="1" parent="WfYI21hxz-77Iptig5c5-1">
          <mxGeometry x="1654" y="560" width="146" height="116" as="geometry" />
        </mxCell>
        <mxCell id="Kr7dGRDA-T_ttMKYb2uq-15" value="root" style="text;strokeColor=none;fillColor=none;spacingLeft=4;spacingRight=4;overflow=hidden;rotatable=0;points=[[0,0.5],[1,0.5]];portConstraint=eastwest;fontSize=12;" vertex="1" parent="Kr7dGRDA-T_ttMKYb2uq-14">
          <mxGeometry y="26" width="146" height="30" as="geometry" />
        </mxCell>
        <mxCell id="Kr7dGRDA-T_ttMKYb2uq-16" value="Item 2" style="text;strokeColor=none;fillColor=none;spacingLeft=4;spacingRight=4;overflow=hidden;rotatable=0;points=[[0,0.5],[1,0.5]];portConstraint=eastwest;fontSize=12;" vertex="1" parent="Kr7dGRDA-T_ttMKYb2uq-14">
          <mxGeometry y="56" width="146" height="30" as="geometry" />
        </mxCell>
        <mxCell id="Kr7dGRDA-T_ttMKYb2uq-17" value="Item 3" style="text;strokeColor=none;fillColor=none;spacingLeft=4;spacingRight=4;overflow=hidden;rotatable=0;points=[[0,0.5],[1,0.5]];portConstraint=eastwest;fontSize=12;" vertex="1" parent="Kr7dGRDA-T_ttMKYb2uq-14">
          <mxGeometry y="86" width="146" height="30" as="geometry" />
        </mxCell>
        <mxCell id="Kr7dGRDA-T_ttMKYb2uq-18" value="init_css_set" style="rounded=0;whiteSpace=wrap;html=1;" vertex="1" parent="WfYI21hxz-77Iptig5c5-1">
          <mxGeometry x="1430" y="686" width="120" height="60" as="geometry" />
        </mxCell>
        <mxCell id="Kr7dGRDA-T_ttMKYb2uq-19" value="" style="rounded=0;whiteSpace=wrap;html=1;" vertex="1" parent="WfYI21hxz-77Iptig5c5-1">
          <mxGeometry x="1654" y="760" width="146" height="60" as="geometry" />
        </mxCell>
        <mxCell id="Kr7dGRDA-T_ttMKYb2uq-20" value="" style="endArrow=classic;startArrow=classic;html=1;" edge="1" parent="WfYI21hxz-77Iptig5c5-1">
          <mxGeometry width="50" height="50" relative="1" as="geometry">
            <mxPoint x="1720" y="750" as="sourcePoint" />
            <mxPoint x="1720" y="700" as="targetPoint" />
          </mxGeometry>
        </mxCell>
        <mxCell id="Kr7dGRDA-T_ttMKYb2uq-21" value="" style="endArrow=classic;html=1;entryX=0;entryY=0;entryDx=0;entryDy=0;exitX=1;exitY=0.5;exitDx=0;exitDy=0;" edge="1" parent="WfYI21hxz-77Iptig5c5-1" source="Kr7dGRDA-T_ttMKYb2uq-18" target="Kr7dGRDA-T_ttMKYb2uq-19">
          <mxGeometry width="50" height="50" relative="1" as="geometry">
            <mxPoint x="1580" y="820" as="sourcePoint" />
            <mxPoint x="1630" y="770" as="targetPoint" />
          </mxGeometry>
        </mxCell>
        <mxCell id="Jg690fpIbDFamo7Ynv4O-38" style="edgeStyle=orthogonalEdgeStyle;rounded=0;orthogonalLoop=1;jettySize=auto;html=1;exitX=1;exitY=0.5;exitDx=0;exitDy=0;entryX=0;entryY=0;entryDx=0;entryDy=0;" edge="1" parent="WfYI21hxz-77Iptig5c5-1" source="Jg690fpIbDFamo7Ynv4O-21" target="Jg690fpIbDFamo7Ynv4O-92">
          <mxGeometry relative="1" as="geometry">
            <mxPoint x="3130" y="615" as="targetPoint" />
            <Array as="points">
              <mxPoint x="3120" y="555" />
            </Array>
          </mxGeometry>
        </mxCell>
        <mxCell id="Jg690fpIbDFamo7Ynv4O-15" value="cgroup" style="swimlane;fontStyle=0;childLayout=stackLayout;horizontal=1;startSize=26;horizontalStack=0;resizeParent=1;resizeParentMax=0;resizeLast=0;collapsible=1;marginBottom=0;align=center;fontSize=14;rounded=0;arcSize=50;fillColor=#dae8fc;strokeColor=#6c8ebf;" vertex="1" parent="WfYI21hxz-77Iptig5c5-1">
          <mxGeometry x="2590" y="428" width="400" height="142" as="geometry" />
        </mxCell>
        <mxCell id="Jg690fpIbDFamo7Ynv4O-16" value="cgroup_subsys_state self" style="swimlane;fontStyle=0;childLayout=stackLayout;horizontal=1;startSize=26;horizontalStack=0;resizeParent=1;resizeParentMax=0;resizeLast=0;collapsible=1;marginBottom=0;align=center;fontSize=14;rounded=1;arcSize=50;fillColor=#d5e8d4;strokeColor=#82b366;" vertex="1" parent="Jg690fpIbDFamo7Ynv4O-15">
          <mxGeometry y="26" width="400" height="56" as="geometry" />
        </mxCell>
        <mxCell id="Jg690fpIbDFamo7Ynv4O-17" value="parent" style="text;strokeColor=none;fillColor=none;spacingLeft=4;spacingRight=4;overflow=hidden;rotatable=0;points=[[0,0.5],[1,0.5]];portConstraint=eastwest;fontSize=12;" vertex="1" parent="Jg690fpIbDFamo7Ynv4O-16">
          <mxGeometry y="26" width="400" height="30" as="geometry" />
        </mxCell>
        <mxCell id="Jg690fpIbDFamo7Ynv4O-20" value="root" style="text;strokeColor=none;fillColor=none;spacingLeft=4;spacingRight=4;overflow=hidden;rotatable=0;points=[[0,0.5],[1,0.5]];portConstraint=eastwest;fontSize=12;" vertex="1" parent="Jg690fpIbDFamo7Ynv4O-15">
          <mxGeometry y="82" width="400" height="30" as="geometry" />
        </mxCell>
        <mxCell id="Jg690fpIbDFamo7Ynv4O-21" value="subsys" style="text;strokeColor=none;fillColor=none;spacingLeft=4;spacingRight=4;overflow=hidden;rotatable=0;points=[[0,0.5],[1,0.5]];portConstraint=eastwest;fontSize=12;" vertex="1" parent="Jg690fpIbDFamo7Ynv4O-15">
          <mxGeometry y="112" width="400" height="30" as="geometry" />
        </mxCell>
        <mxCell id="Kr7dGRDA-T_ttMKYb2uq-1" value="cgroup_root" style="swimlane;fontStyle=0;childLayout=stackLayout;horizontal=1;startSize=26;horizontalStack=0;resizeParent=1;resizeParentMax=0;resizeLast=0;collapsible=1;marginBottom=0;align=center;fontSize=14;" vertex="1" parent="WfYI21hxz-77Iptig5c5-1">
          <mxGeometry x="2810" y="72" width="400" height="258" as="geometry" />
        </mxCell>
        <mxCell id="Jg690fpIbDFamo7Ynv4O-1" value="struct cgroup cgrp" style="swimlane;fontStyle=0;childLayout=stackLayout;horizontal=1;startSize=26;horizontalStack=0;resizeParent=1;resizeParentMax=0;resizeLast=0;collapsible=1;marginBottom=0;align=center;fontSize=14;rounded=1;arcSize=50;fillColor=#dae8fc;strokeColor=#6c8ebf;" vertex="1" parent="Kr7dGRDA-T_ttMKYb2uq-1">
          <mxGeometry y="26" width="400" height="172" as="geometry" />
        </mxCell>
        <mxCell id="Jg690fpIbDFamo7Ynv4O-9" value="cgroup_subsys_state self" style="swimlane;fontStyle=0;childLayout=stackLayout;horizontal=1;startSize=26;horizontalStack=0;resizeParent=1;resizeParentMax=0;resizeLast=0;collapsible=1;marginBottom=0;align=center;fontSize=14;rounded=1;arcSize=50;fillColor=#d5e8d4;strokeColor=#82b366;" vertex="1" parent="Jg690fpIbDFamo7Ynv4O-1">
          <mxGeometry y="26" width="400" height="86" as="geometry" />
        </mxCell>
        <mxCell id="Jg690fpIbDFamo7Ynv4O-10" value="parent" style="text;strokeColor=none;fillColor=none;spacingLeft=4;spacingRight=4;overflow=hidden;rotatable=0;points=[[0,0.5],[1,0.5]];portConstraint=eastwest;fontSize=12;" vertex="1" parent="Jg690fpIbDFamo7Ynv4O-9">
          <mxGeometry y="26" width="400" height="30" as="geometry" />
        </mxCell>
        <mxCell id="Jg690fpIbDFamo7Ynv4O-106" value="ss = 0" style="text;strokeColor=none;fillColor=none;spacingLeft=4;spacingRight=4;overflow=hidden;rotatable=0;points=[[0,0.5],[1,0.5]];portConstraint=eastwest;fontSize=12;rounded=0;" vertex="1" parent="Jg690fpIbDFamo7Ynv4O-9">
          <mxGeometry y="56" width="400" height="30" as="geometry" />
        </mxCell>
        <mxCell id="Jg690fpIbDFamo7Ynv4O-3" value="root" style="text;strokeColor=none;fillColor=none;spacingLeft=4;spacingRight=4;overflow=hidden;rotatable=0;points=[[0,0.5],[1,0.5]];portConstraint=eastwest;fontSize=12;" vertex="1" parent="Jg690fpIbDFamo7Ynv4O-1">
          <mxGeometry y="112" width="400" height="30" as="geometry" />
        </mxCell>
        <mxCell id="Jg690fpIbDFamo7Ynv4O-4" value="subsys" style="text;strokeColor=none;fillColor=none;spacingLeft=4;spacingRight=4;overflow=hidden;rotatable=0;points=[[0,0.5],[1,0.5]];portConstraint=eastwest;fontSize=12;" vertex="1" parent="Jg690fpIbDFamo7Ynv4O-1">
          <mxGeometry y="142" width="400" height="30" as="geometry" />
        </mxCell>
        <mxCell id="Kr7dGRDA-T_ttMKYb2uq-3" value="Item 2" style="text;strokeColor=none;fillColor=none;spacingLeft=4;spacingRight=4;overflow=hidden;rotatable=0;points=[[0,0.5],[1,0.5]];portConstraint=eastwest;fontSize=12;" vertex="1" parent="Kr7dGRDA-T_ttMKYb2uq-1">
          <mxGeometry y="198" width="400" height="30" as="geometry" />
        </mxCell>
        <mxCell id="Kr7dGRDA-T_ttMKYb2uq-4" value="Item 3" style="text;strokeColor=none;fillColor=none;spacingLeft=4;spacingRight=4;overflow=hidden;rotatable=0;points=[[0,0.5],[1,0.5]];portConstraint=eastwest;fontSize=12;" vertex="1" parent="Kr7dGRDA-T_ttMKYb2uq-1">
          <mxGeometry y="228" width="400" height="30" as="geometry" />
        </mxCell>
        <mxCell id="Jg690fpIbDFamo7Ynv4O-105" style="edgeStyle=orthogonalEdgeStyle;rounded=0;orthogonalLoop=1;jettySize=auto;html=1;exitX=0;exitY=0.5;exitDx=0;exitDy=0;entryX=0;entryY=0;entryDx=0;entryDy=0;" edge="1" parent="Kr7dGRDA-T_ttMKYb2uq-1" source="Jg690fpIbDFamo7Ynv4O-3" target="Kr7dGRDA-T_ttMKYb2uq-1">
          <mxGeometry relative="1" as="geometry">
            <Array as="points">
              <mxPoint x="-90" y="123" />
              <mxPoint x="-90" />
            </Array>
          </mxGeometry>
        </mxCell>
        <mxCell id="Kr7dGRDA-T_ttMKYb2uq-10" value="init_css_set" style="swimlane;fontStyle=0;childLayout=stackLayout;horizontal=1;startSize=26;horizontalStack=0;resizeParent=1;resizeParentMax=0;resizeLast=0;collapsible=1;marginBottom=0;align=center;fontSize=14;" vertex="1" parent="WfYI21hxz-77Iptig5c5-1">
          <mxGeometry x="2500" y="1270" width="160" height="116" as="geometry" />
        </mxCell>
        <mxCell id="Kr7dGRDA-T_ttMKYb2uq-11" value="Item 1" style="text;strokeColor=none;fillColor=none;spacingLeft=4;spacingRight=4;overflow=hidden;rotatable=0;points=[[0,0.5],[1,0.5]];portConstraint=eastwest;fontSize=12;" vertex="1" parent="Kr7dGRDA-T_ttMKYb2uq-10">
          <mxGeometry y="26" width="160" height="30" as="geometry" />
        </mxCell>
        <mxCell id="Kr7dGRDA-T_ttMKYb2uq-12" value="Item 2" style="text;strokeColor=none;fillColor=none;spacingLeft=4;spacingRight=4;overflow=hidden;rotatable=0;points=[[0,0.5],[1,0.5]];portConstraint=eastwest;fontSize=12;" vertex="1" parent="Kr7dGRDA-T_ttMKYb2uq-10">
          <mxGeometry y="56" width="160" height="30" as="geometry" />
        </mxCell>
        <mxCell id="Kr7dGRDA-T_ttMKYb2uq-13" value="Item 3" style="text;strokeColor=none;fillColor=none;spacingLeft=4;spacingRight=4;overflow=hidden;rotatable=0;points=[[0,0.5],[1,0.5]];portConstraint=eastwest;fontSize=12;" vertex="1" parent="Kr7dGRDA-T_ttMKYb2uq-10">
          <mxGeometry y="86" width="160" height="30" as="geometry" />
        </mxCell>
        <mxCell id="Jg690fpIbDFamo7Ynv4O-53" style="edgeStyle=orthogonalEdgeStyle;rounded=0;orthogonalLoop=1;jettySize=auto;html=1;exitX=1;exitY=0.5;exitDx=0;exitDy=0;entryX=0;entryY=0.5;entryDx=0;entryDy=0;" edge="1" parent="WfYI21hxz-77Iptig5c5-1" source="Jg690fpIbDFamo7Ynv4O-47" target="Jg690fpIbDFamo7Ynv4O-51">
          <mxGeometry relative="1" as="geometry" />
        </mxCell>
        <mxCell id="Jg690fpIbDFamo7Ynv4O-60" style="edgeStyle=orthogonalEdgeStyle;rounded=0;orthogonalLoop=1;jettySize=auto;html=1;exitX=1;exitY=0.5;exitDx=0;exitDy=0;entryX=0;entryY=0.5;entryDx=0;entryDy=0;" edge="1" parent="WfYI21hxz-77Iptig5c5-1" source="Jg690fpIbDFamo7Ynv4O-51" target="Jg690fpIbDFamo7Ynv4O-56">
          <mxGeometry relative="1" as="geometry" />
        </mxCell>
        <mxCell id="Jg690fpIbDFamo7Ynv4O-61" style="edgeStyle=orthogonalEdgeStyle;rounded=0;orthogonalLoop=1;jettySize=auto;html=1;exitX=0;exitY=0.5;exitDx=0;exitDy=0;entryX=0;entryY=0.5;entryDx=0;entryDy=0;" edge="1" parent="WfYI21hxz-77Iptig5c5-1" source="Jg690fpIbDFamo7Ynv4O-40" target="Jg690fpIbDFamo7Ynv4O-47">
          <mxGeometry relative="1" as="geometry" />
        </mxCell>
        <mxCell id="Jg690fpIbDFamo7Ynv4O-62" style="edgeStyle=orthogonalEdgeStyle;rounded=0;orthogonalLoop=1;jettySize=auto;html=1;exitX=1;exitY=0.5;exitDx=0;exitDy=0;entryX=1;entryY=0.5;entryDx=0;entryDy=0;" edge="1" parent="WfYI21hxz-77Iptig5c5-1" source="Jg690fpIbDFamo7Ynv4O-56" target="Jg690fpIbDFamo7Ynv4O-40">
          <mxGeometry relative="1" as="geometry" />
        </mxCell>
        <mxCell id="Jg690fpIbDFamo7Ynv4O-63" value="cgroup" style="swimlane;fontStyle=0;childLayout=stackLayout;horizontal=1;startSize=26;horizontalStack=0;resizeParent=1;resizeParentMax=0;resizeLast=0;collapsible=1;marginBottom=0;align=center;fontSize=14;rounded=0;arcSize=50;fillColor=#dae8fc;strokeColor=#6c8ebf;" vertex="1" parent="WfYI21hxz-77Iptig5c5-1">
          <mxGeometry x="2481" y="760" width="400" height="142" as="geometry" />
        </mxCell>
        <mxCell id="Jg690fpIbDFamo7Ynv4O-64" value="cgroup_subsys_state self" style="swimlane;fontStyle=0;childLayout=stackLayout;horizontal=1;startSize=26;horizontalStack=0;resizeParent=1;resizeParentMax=0;resizeLast=0;collapsible=1;marginBottom=0;align=center;fontSize=14;rounded=1;arcSize=50;fillColor=#d5e8d4;strokeColor=#82b366;" vertex="1" parent="Jg690fpIbDFamo7Ynv4O-63">
          <mxGeometry y="26" width="400" height="56" as="geometry" />
        </mxCell>
        <mxCell id="Jg690fpIbDFamo7Ynv4O-65" value="parent" style="text;strokeColor=none;fillColor=none;spacingLeft=4;spacingRight=4;overflow=hidden;rotatable=0;points=[[0,0.5],[1,0.5]];portConstraint=eastwest;fontSize=12;" vertex="1" parent="Jg690fpIbDFamo7Ynv4O-64">
          <mxGeometry y="26" width="400" height="30" as="geometry" />
        </mxCell>
        <mxCell id="Jg690fpIbDFamo7Ynv4O-68" value="root" style="text;strokeColor=none;fillColor=none;spacingLeft=4;spacingRight=4;overflow=hidden;rotatable=0;points=[[0,0.5],[1,0.5]];portConstraint=eastwest;fontSize=12;" vertex="1" parent="Jg690fpIbDFamo7Ynv4O-63">
          <mxGeometry y="82" width="400" height="30" as="geometry" />
        </mxCell>
        <mxCell id="Jg690fpIbDFamo7Ynv4O-69" value="subsys" style="text;strokeColor=none;fillColor=none;spacingLeft=4;spacingRight=4;overflow=hidden;rotatable=0;points=[[0,0.5],[1,0.5]];portConstraint=eastwest;fontSize=12;" vertex="1" parent="Jg690fpIbDFamo7Ynv4O-63">
          <mxGeometry y="112" width="400" height="30" as="geometry" />
        </mxCell>
        <mxCell id="Jg690fpIbDFamo7Ynv4O-70" value="对应cgroup中的dir目录" style="text;html=1;align=center;verticalAlign=middle;resizable=0;points=[];autosize=1;fillColor=#dae8fc;strokeColor=#6c8ebf;" vertex="1" parent="WfYI21hxz-77Iptig5c5-1">
          <mxGeometry x="2481" y="740" width="140" height="20" as="geometry" />
        </mxCell>
        <mxCell id="Jg690fpIbDFamo7Ynv4O-71" style="edgeStyle=orthogonalEdgeStyle;rounded=0;orthogonalLoop=1;jettySize=auto;html=1;exitX=0;exitY=0.5;exitDx=0;exitDy=0;entryX=0;entryY=0;entryDx=0;entryDy=0;entryPerimeter=0;" edge="1" parent="WfYI21hxz-77Iptig5c5-1" source="Jg690fpIbDFamo7Ynv4O-65" target="Jg690fpIbDFamo7Ynv4O-17">
          <mxGeometry relative="1" as="geometry">
            <Array as="points">
              <mxPoint x="2461" y="827" />
              <mxPoint x="2461" y="480" />
            </Array>
          </mxGeometry>
        </mxCell>
        <mxCell id="Jg690fpIbDFamo7Ynv4O-72" style="edgeStyle=orthogonalEdgeStyle;rounded=0;orthogonalLoop=1;jettySize=auto;html=1;exitX=0;exitY=0.5;exitDx=0;exitDy=0;entryX=0;entryY=0;entryDx=0;entryDy=0;" edge="1" parent="WfYI21hxz-77Iptig5c5-1" target="Kr7dGRDA-T_ttMKYb2uq-1">
          <mxGeometry relative="1" as="geometry">
            <mxPoint x="2590" y="555" as="sourcePoint" />
            <Array as="points">
              <mxPoint x="2560" y="555" />
              <mxPoint x="2560" y="72" />
            </Array>
          </mxGeometry>
        </mxCell>
        <mxCell id="Jg690fpIbDFamo7Ynv4O-73" style="edgeStyle=orthogonalEdgeStyle;rounded=0;orthogonalLoop=1;jettySize=auto;html=1;exitX=0;exitY=0.5;exitDx=0;exitDy=0;entryX=0;entryY=0;entryDx=0;entryDy=0;" edge="1" parent="WfYI21hxz-77Iptig5c5-1" source="Jg690fpIbDFamo7Ynv4O-68" target="Kr7dGRDA-T_ttMKYb2uq-1">
          <mxGeometry relative="1" as="geometry">
            <Array as="points">
              <mxPoint x="2380" y="857" />
              <mxPoint x="2380" y="52" />
              <mxPoint x="2810" y="52" />
            </Array>
          </mxGeometry>
        </mxCell>
        <mxCell id="Jg690fpIbDFamo7Ynv4O-74" style="edgeStyle=orthogonalEdgeStyle;rounded=0;orthogonalLoop=1;jettySize=auto;html=1;exitX=0;exitY=0.5;exitDx=0;exitDy=0;entryX=-0.003;entryY=-0.016;entryDx=0;entryDy=0;entryPerimeter=0;" edge="1" parent="WfYI21hxz-77Iptig5c5-1" source="Jg690fpIbDFamo7Ynv4O-17" target="Jg690fpIbDFamo7Ynv4O-10">
          <mxGeometry relative="1" as="geometry">
            <Array as="points">
              <mxPoint x="2510" y="495" />
              <mxPoint x="2510" y="150" />
              <mxPoint x="2809" y="150" />
            </Array>
          </mxGeometry>
        </mxCell>
        <mxCell id="Jg690fpIbDFamo7Ynv4O-75" style="edgeStyle=orthogonalEdgeStyle;rounded=0;orthogonalLoop=1;jettySize=auto;html=1;exitX=0;exitY=0.5;exitDx=0;exitDy=0;entryX=1;entryY=0;entryDx=0;entryDy=0;" edge="1" parent="WfYI21hxz-77Iptig5c5-1" source="Jg690fpIbDFamo7Ynv4O-52" target="Jg690fpIbDFamo7Ynv4O-39">
          <mxGeometry relative="1" as="geometry">
            <Array as="points">
              <mxPoint x="3360" y="1341" />
              <mxPoint x="3360" y="1060" />
            </Array>
          </mxGeometry>
        </mxCell>
        <mxCell id="Jg690fpIbDFamo7Ynv4O-76" style="edgeStyle=orthogonalEdgeStyle;rounded=0;orthogonalLoop=1;jettySize=auto;html=1;exitX=0;exitY=0.5;exitDx=0;exitDy=0;entryX=1;entryY=0;entryDx=0;entryDy=0;" edge="1" parent="WfYI21hxz-77Iptig5c5-1" source="Jg690fpIbDFamo7Ynv4O-57" target="Jg690fpIbDFamo7Ynv4O-39">
          <mxGeometry relative="1" as="geometry">
            <Array as="points">
              <mxPoint x="3630" y="1341" />
              <mxPoint x="3630" y="1060" />
            </Array>
          </mxGeometry>
        </mxCell>
        <mxCell id="Jg690fpIbDFamo7Ynv4O-77" style="edgeStyle=orthogonalEdgeStyle;rounded=0;orthogonalLoop=1;jettySize=auto;html=1;exitX=0;exitY=0.5;exitDx=0;exitDy=0;fillColor=#f8cecc;strokeColor=#b85450;" edge="1" parent="WfYI21hxz-77Iptig5c5-1" source="Jg690fpIbDFamo7Ynv4O-48">
          <mxGeometry relative="1" as="geometry">
            <mxPoint x="3180" y="1060" as="targetPoint" />
            <Array as="points">
              <mxPoint x="3040" y="1341" />
              <mxPoint x="3040" y="1060" />
            </Array>
          </mxGeometry>
        </mxCell>
        <mxCell id="Jg690fpIbDFamo7Ynv4O-78" style="edgeStyle=orthogonalEdgeStyle;rounded=0;orthogonalLoop=1;jettySize=auto;html=1;exitX=0;exitY=0.5;exitDx=0;exitDy=0;entryX=1;entryY=0;entryDx=0;entryDy=0;fillColor=#f8cecc;strokeColor=#b85450;" edge="1" parent="WfYI21hxz-77Iptig5c5-1">
          <mxGeometry relative="1" as="geometry">
            <mxPoint x="3740" y="1341" as="sourcePoint" />
            <mxPoint x="3340" y="1060" as="targetPoint" />
            <Array as="points">
              <mxPoint x="3630" y="1341" />
              <mxPoint x="3630" y="1060" />
            </Array>
          </mxGeometry>
        </mxCell>
        <mxCell id="Jg690fpIbDFamo7Ynv4O-79" style="edgeStyle=orthogonalEdgeStyle;rounded=0;orthogonalLoop=1;jettySize=auto;html=1;exitX=0;exitY=0.5;exitDx=0;exitDy=0;entryX=1;entryY=0;entryDx=0;entryDy=0;fillColor=#f8cecc;strokeColor=#b85450;" edge="1" parent="WfYI21hxz-77Iptig5c5-1">
          <mxGeometry relative="1" as="geometry">
            <mxPoint x="3380" y="1341" as="sourcePoint" />
            <mxPoint x="3340" y="1060" as="targetPoint" />
            <Array as="points">
              <mxPoint x="3360" y="1341" />
              <mxPoint x="3360" y="1060" />
            </Array>
          </mxGeometry>
        </mxCell>
        <mxCell id="Jg690fpIbDFamo7Ynv4O-84" value="rebind_subsystems" style="text;html=1;align=center;verticalAlign=middle;resizable=0;points=[];autosize=1;" vertex="1" parent="WfYI21hxz-77Iptig5c5-1">
          <mxGeometry x="3120" y="550" width="120" height="20" as="geometry" />
        </mxCell>
        <mxCell id="Jg690fpIbDFamo7Ynv4O-39" value="css" style="swimlane;fontStyle=0;childLayout=stackLayout;horizontal=1;startSize=26;horizontalStack=0;resizeParent=1;resizeParentMax=0;resizeLast=0;collapsible=1;marginBottom=0;align=center;fontSize=14;" vertex="1" parent="WfYI21hxz-77Iptig5c5-1">
          <mxGeometry x="3180" y="1060" width="160" height="116" as="geometry" />
        </mxCell>
        <mxCell id="Jg690fpIbDFamo7Ynv4O-40" value="children" style="text;strokeColor=none;fillColor=none;spacingLeft=4;spacingRight=4;overflow=hidden;rotatable=0;points=[[0,0.5],[1,0.5]];portConstraint=eastwest;fontSize=12;" vertex="1" parent="Jg690fpIbDFamo7Ynv4O-39">
          <mxGeometry y="26" width="160" height="30" as="geometry" />
        </mxCell>
        <mxCell id="Jg690fpIbDFamo7Ynv4O-41" value="sibling" style="text;strokeColor=none;fillColor=none;spacingLeft=4;spacingRight=4;overflow=hidden;rotatable=0;points=[[0,0.5],[1,0.5]];portConstraint=eastwest;fontSize=12;" vertex="1" parent="Jg690fpIbDFamo7Ynv4O-39">
          <mxGeometry y="56" width="160" height="30" as="geometry" />
        </mxCell>
        <mxCell id="Jg690fpIbDFamo7Ynv4O-42" value="Item 3" style="text;strokeColor=none;fillColor=none;spacingLeft=4;spacingRight=4;overflow=hidden;rotatable=0;points=[[0,0.5],[1,0.5]];portConstraint=eastwest;fontSize=12;" vertex="1" parent="Jg690fpIbDFamo7Ynv4O-39">
          <mxGeometry y="86" width="160" height="30" as="geometry" />
        </mxCell>
        <mxCell id="Jg690fpIbDFamo7Ynv4O-45" value="css" style="swimlane;fontStyle=0;childLayout=stackLayout;horizontal=1;startSize=26;horizontalStack=0;resizeParent=1;resizeParentMax=0;resizeLast=0;collapsible=1;marginBottom=0;align=center;fontSize=14;" vertex="1" parent="WfYI21hxz-77Iptig5c5-1">
          <mxGeometry x="3100" y="1240" width="160" height="116" as="geometry" />
        </mxCell>
        <mxCell id="Jg690fpIbDFamo7Ynv4O-46" value="children" style="text;strokeColor=none;fillColor=none;spacingLeft=4;spacingRight=4;overflow=hidden;rotatable=0;points=[[0,0.5],[1,0.5]];portConstraint=eastwest;fontSize=12;" vertex="1" parent="Jg690fpIbDFamo7Ynv4O-45">
          <mxGeometry y="26" width="160" height="30" as="geometry" />
        </mxCell>
        <mxCell id="Jg690fpIbDFamo7Ynv4O-47" value="sibling" style="text;strokeColor=none;fillColor=none;spacingLeft=4;spacingRight=4;overflow=hidden;rotatable=0;points=[[0,0.5],[1,0.5]];portConstraint=eastwest;fontSize=12;" vertex="1" parent="Jg690fpIbDFamo7Ynv4O-45">
          <mxGeometry y="56" width="160" height="30" as="geometry" />
        </mxCell>
        <mxCell id="Jg690fpIbDFamo7Ynv4O-48" value="parent" style="text;strokeColor=#b85450;fillColor=#f8cecc;spacingLeft=4;spacingRight=4;overflow=hidden;rotatable=0;points=[[0,0.5],[1,0.5]];portConstraint=eastwest;fontSize=12;" vertex="1" parent="Jg690fpIbDFamo7Ynv4O-45">
          <mxGeometry y="86" width="160" height="30" as="geometry" />
        </mxCell>
        <mxCell id="Jg690fpIbDFamo7Ynv4O-54" value="css" style="swimlane;fontStyle=0;childLayout=stackLayout;horizontal=1;startSize=26;horizontalStack=0;resizeParent=1;resizeParentMax=0;resizeLast=0;collapsible=1;marginBottom=0;align=center;fontSize=14;" vertex="1" parent="WfYI21hxz-77Iptig5c5-1">
          <mxGeometry x="3740" y="1240" width="160" height="116" as="geometry" />
        </mxCell>
        <mxCell id="Jg690fpIbDFamo7Ynv4O-55" value="children" style="text;strokeColor=none;fillColor=none;spacingLeft=4;spacingRight=4;overflow=hidden;rotatable=0;points=[[0,0.5],[1,0.5]];portConstraint=eastwest;fontSize=12;" vertex="1" parent="Jg690fpIbDFamo7Ynv4O-54">
          <mxGeometry y="26" width="160" height="30" as="geometry" />
        </mxCell>
        <mxCell id="Jg690fpIbDFamo7Ynv4O-56" value="sibling" style="text;strokeColor=none;fillColor=none;spacingLeft=4;spacingRight=4;overflow=hidden;rotatable=0;points=[[0,0.5],[1,0.5]];portConstraint=eastwest;fontSize=12;" vertex="1" parent="Jg690fpIbDFamo7Ynv4O-54">
          <mxGeometry y="56" width="160" height="30" as="geometry" />
        </mxCell>
        <mxCell id="Jg690fpIbDFamo7Ynv4O-57" value="parent" style="text;strokeColor=#b85450;fillColor=#f8cecc;spacingLeft=4;spacingRight=4;overflow=hidden;rotatable=0;points=[[0,0.5],[1,0.5]];portConstraint=eastwest;fontSize=12;" vertex="1" parent="Jg690fpIbDFamo7Ynv4O-54">
          <mxGeometry y="86" width="160" height="30" as="geometry" />
        </mxCell>
        <mxCell id="Jg690fpIbDFamo7Ynv4O-49" value="css" style="swimlane;fontStyle=0;childLayout=stackLayout;horizontal=1;startSize=26;horizontalStack=0;resizeParent=1;resizeParentMax=0;resizeLast=0;collapsible=1;marginBottom=0;align=center;fontSize=14;" vertex="1" parent="WfYI21hxz-77Iptig5c5-1">
          <mxGeometry x="3380" y="1240" width="160" height="116" as="geometry" />
        </mxCell>
        <mxCell id="Jg690fpIbDFamo7Ynv4O-50" value="children" style="text;strokeColor=none;fillColor=none;spacingLeft=4;spacingRight=4;overflow=hidden;rotatable=0;points=[[0,0.5],[1,0.5]];portConstraint=eastwest;fontSize=12;" vertex="1" parent="Jg690fpIbDFamo7Ynv4O-49">
          <mxGeometry y="26" width="160" height="30" as="geometry" />
        </mxCell>
        <mxCell id="Jg690fpIbDFamo7Ynv4O-51" value="sibling" style="text;strokeColor=none;fillColor=none;spacingLeft=4;spacingRight=4;overflow=hidden;rotatable=0;points=[[0,0.5],[1,0.5]];portConstraint=eastwest;fontSize=12;" vertex="1" parent="Jg690fpIbDFamo7Ynv4O-49">
          <mxGeometry y="56" width="160" height="30" as="geometry" />
        </mxCell>
        <mxCell id="Jg690fpIbDFamo7Ynv4O-52" value="parent" style="text;strokeColor=#b85450;fillColor=#f8cecc;spacingLeft=4;spacingRight=4;overflow=hidden;rotatable=0;points=[[0,0.5],[1,0.5]];portConstraint=eastwest;fontSize=12;" vertex="1" parent="Jg690fpIbDFamo7Ynv4O-49">
          <mxGeometry y="86" width="160" height="30" as="geometry" />
        </mxCell>
        <mxCell id="Jg690fpIbDFamo7Ynv4O-87" style="edgeStyle=orthogonalEdgeStyle;rounded=0;orthogonalLoop=1;jettySize=auto;html=1;exitX=1;exitY=0.5;exitDx=0;exitDy=0;entryX=0;entryY=0.5;entryDx=0;entryDy=0;" edge="1" parent="WfYI21hxz-77Iptig5c5-1" source="Jg690fpIbDFamo7Ynv4O-69">
          <mxGeometry relative="1" as="geometry">
            <mxPoint x="3040" y="947" as="targetPoint" />
          </mxGeometry>
        </mxCell>
        <mxCell id="Jg690fpIbDFamo7Ynv4O-92" value="css" style="swimlane;fontStyle=0;childLayout=stackLayout;horizontal=1;startSize=26;horizontalStack=0;resizeParent=1;resizeParentMax=0;resizeLast=0;collapsible=1;marginBottom=0;align=center;fontSize=14;rounded=0;fillColor=#d5e8d4;strokeColor=#82b366;" vertex="1" parent="WfYI21hxz-77Iptig5c5-1">
          <mxGeometry x="3120" y="688" width="160" height="56" as="geometry" />
        </mxCell>
        <mxCell id="Jg690fpIbDFamo7Ynv4O-93" value="cgroup" style="text;strokeColor=#82b366;fillColor=#d5e8d4;spacingLeft=4;spacingRight=4;overflow=hidden;rotatable=0;points=[[0,0.5],[1,0.5]];portConstraint=eastwest;fontSize=12;" vertex="1" parent="Jg690fpIbDFamo7Ynv4O-92">
          <mxGeometry y="26" width="160" height="30" as="geometry" />
        </mxCell>
        <mxCell id="Jg690fpIbDFamo7Ynv4O-96" value="css" style="swimlane;fontStyle=0;childLayout=stackLayout;horizontal=1;startSize=26;horizontalStack=0;resizeParent=1;resizeParentMax=0;resizeLast=0;collapsible=1;marginBottom=0;align=center;fontSize=14;rounded=0;fillColor=#d5e8d4;strokeColor=#82b366;" vertex="1" parent="WfYI21hxz-77Iptig5c5-1">
          <mxGeometry x="3280" y="688" width="160" height="56" as="geometry" />
        </mxCell>
        <mxCell id="Jg690fpIbDFamo7Ynv4O-97" value="cgroup" style="text;strokeColor=#82b366;fillColor=#d5e8d4;spacingLeft=4;spacingRight=4;overflow=hidden;rotatable=0;points=[[0,0.5],[1,0.5]];portConstraint=eastwest;fontSize=12;" vertex="1" parent="Jg690fpIbDFamo7Ynv4O-96">
          <mxGeometry y="26" width="160" height="30" as="geometry" />
        </mxCell>
        <mxCell id="Jg690fpIbDFamo7Ynv4O-98" value="css" style="swimlane;fontStyle=0;childLayout=stackLayout;horizontal=1;startSize=26;horizontalStack=0;resizeParent=1;resizeParentMax=0;resizeLast=0;collapsible=1;marginBottom=0;align=center;fontSize=14;rounded=0;fillColor=#d5e8d4;strokeColor=#82b366;" vertex="1" parent="WfYI21hxz-77Iptig5c5-1">
          <mxGeometry x="3040" y="950" width="160" height="56" as="geometry" />
        </mxCell>
        <mxCell id="Jg690fpIbDFamo7Ynv4O-99" value="cgroup" style="text;strokeColor=#82b366;fillColor=#d5e8d4;spacingLeft=4;spacingRight=4;overflow=hidden;rotatable=0;points=[[0,0.5],[1,0.5]];portConstraint=eastwest;fontSize=12;" vertex="1" parent="Jg690fpIbDFamo7Ynv4O-98">
          <mxGeometry y="26" width="160" height="30" as="geometry" />
        </mxCell>
        <mxCell id="Jg690fpIbDFamo7Ynv4O-100" value="css" style="swimlane;fontStyle=0;childLayout=stackLayout;horizontal=1;startSize=26;horizontalStack=0;resizeParent=1;resizeParentMax=0;resizeLast=0;collapsible=1;marginBottom=0;align=center;fontSize=14;rounded=0;fillColor=#d5e8d4;strokeColor=#82b366;" vertex="1" parent="WfYI21hxz-77Iptig5c5-1">
          <mxGeometry x="3200" y="950" width="160" height="56" as="geometry" />
        </mxCell>
        <mxCell id="Jg690fpIbDFamo7Ynv4O-101" value="cgroup" style="text;strokeColor=#82b366;fillColor=#d5e8d4;spacingLeft=4;spacingRight=4;overflow=hidden;rotatable=0;points=[[0,0.5],[1,0.5]];portConstraint=eastwest;fontSize=12;" vertex="1" parent="Jg690fpIbDFamo7Ynv4O-100">
          <mxGeometry y="26" width="160" height="30" as="geometry" />
        </mxCell>
        <mxCell id="Jg690fpIbDFamo7Ynv4O-102" style="edgeStyle=orthogonalEdgeStyle;rounded=0;orthogonalLoop=1;jettySize=auto;html=1;exitX=0;exitY=0.5;exitDx=0;exitDy=0;entryX=0.5;entryY=0;entryDx=0;entryDy=0;" edge="1" parent="WfYI21hxz-77Iptig5c5-1" source="Jg690fpIbDFamo7Ynv4O-6" target="Kr7dGRDA-T_ttMKYb2uq-1">
          <mxGeometry relative="1" as="geometry" />
        </mxCell>
        <mxCell id="Jg690fpIbDFamo7Ynv4O-103" style="edgeStyle=orthogonalEdgeStyle;rounded=0;orthogonalLoop=1;jettySize=auto;html=1;exitX=0;exitY=0.5;exitDx=0;exitDy=0;entryX=1;entryY=0;entryDx=0;entryDy=0;" edge="1" parent="WfYI21hxz-77Iptig5c5-1" source="Jg690fpIbDFamo7Ynv4O-93" target="Jg690fpIbDFamo7Ynv4O-15">
          <mxGeometry relative="1" as="geometry" />
        </mxCell>
        <mxCell id="Jg690fpIbDFamo7Ynv4O-104" style="edgeStyle=orthogonalEdgeStyle;rounded=0;orthogonalLoop=1;jettySize=auto;html=1;exitX=0;exitY=0.5;exitDx=0;exitDy=0;entryX=1;entryY=0;entryDx=0;entryDy=0;" edge="1" parent="WfYI21hxz-77Iptig5c5-1" source="Jg690fpIbDFamo7Ynv4O-99" target="Jg690fpIbDFamo7Ynv4O-63">
          <mxGeometry relative="1" as="geometry" />
        </mxCell>
        <mxCell id="Jg690fpIbDFamo7Ynv4O-107" style="edgeStyle=orthogonalEdgeStyle;rounded=0;orthogonalLoop=1;jettySize=auto;html=1;exitX=1;exitY=0.5;exitDx=0;exitDy=0;" edge="1" parent="WfYI21hxz-77Iptig5c5-1" source="Jg690fpIbDFamo7Ynv4O-4">
          <mxGeometry relative="1" as="geometry">
            <mxPoint x="3320" y="310" as="targetPoint" />
          </mxGeometry>
        </mxCell>
        <mxCell id="Jg690fpIbDFamo7Ynv4O-108" value="css" style="swimlane;fontStyle=0;childLayout=stackLayout;horizontal=1;startSize=26;horizontalStack=0;resizeParent=1;resizeParentMax=0;resizeLast=0;collapsible=1;marginBottom=0;align=center;fontSize=14;rounded=0;fillColor=#d5e8d4;strokeColor=#82b366;" vertex="1" parent="WfYI21hxz-77Iptig5c5-1">
          <mxGeometry x="3320" y="310" width="160" height="56" as="geometry" />
        </mxCell>
        <mxCell id="Jg690fpIbDFamo7Ynv4O-109" value="cgroup" style="text;strokeColor=#82b366;fillColor=#d5e8d4;spacingLeft=4;spacingRight=4;overflow=hidden;rotatable=0;points=[[0,0.5],[1,0.5]];portConstraint=eastwest;fontSize=12;" vertex="1" parent="Jg690fpIbDFamo7Ynv4O-108">
          <mxGeometry y="26" width="160" height="30" as="geometry" />
        </mxCell>
        <mxCell id="Jg690fpIbDFamo7Ynv4O-110" value="css" style="swimlane;fontStyle=0;childLayout=stackLayout;horizontal=1;startSize=26;horizontalStack=0;resizeParent=1;resizeParentMax=0;resizeLast=0;collapsible=1;marginBottom=0;align=center;fontSize=14;rounded=0;fillColor=#d5e8d4;strokeColor=#82b366;" vertex="1" parent="WfYI21hxz-77Iptig5c5-1">
          <mxGeometry x="3480" y="310" width="160" height="56" as="geometry" />
        </mxCell>
        <mxCell id="Jg690fpIbDFamo7Ynv4O-111" value="cgroup" style="text;strokeColor=#82b366;fillColor=#d5e8d4;spacingLeft=4;spacingRight=4;overflow=hidden;rotatable=0;points=[[0,0.5],[1,0.5]];portConstraint=eastwest;fontSize=12;" vertex="1" parent="Jg690fpIbDFamo7Ynv4O-110">
          <mxGeometry y="26" width="160" height="30" as="geometry" />
        </mxCell>
      </root>
    </mxGraphModel>
  </diagram>
</mxfile>
